SplineFontDB: 3.0
FontName: Garuda-Oblique
FullName: Garuda Oblique
FamilyName: Garuda
Weight: Regular
Copyright: Generated by NECTEC for Public Domain\n\nModified under GNU General Public License by TLWG
Version: 003.009
ItalicAngle: -12
UnderlinePosition: -27
UnderlineWidth: 10
Ascent: 840
Descent: 160
LayerCount: 2
Layer: 0 0 "Back"  1
Layer: 1 0 "Fore"  0
FSType: 0
OS2Version: 4
OS2_WeightWidthSlopeOnly: 0
OS2_UseTypoMetrics: 0
CreationTime: 1153661469
ModificationTime: 1437279036
PfmFamily: 33
TTFWeight: 400
TTFWidth: 5
LineGap: 0
VLineGap: 0
Panose: 2 11 6 4 2 2 2 2 2 4
OS2TypoAscent: 0
OS2TypoAOffset: 1
OS2TypoDescent: 0
OS2TypoDOffset: 1
OS2TypoLinegap: 0
OS2WinAscent: 1284
OS2WinAOffset: 0
OS2WinDescent: 591
OS2WinDOffset: 0
HheadAscent: 1284
HheadAOffset: 0
HheadDescent: -591
HheadDOffset: 0
OS2Vendor: 'PfEd'
Lookup: 6 0 0 "'ccmp' Thai Tone Tilde Reordering"  {"'ccmp' Thai Tone Tilde Reordering"  } ['ccmp' ('DFLT' <'dflt' > 'latn' <'dflt' > 'thai' <'KUY ' 'MLY ' 'PAL ' 'SAN ' 'THA ' 'dflt' > ) ]
Lookup: 6 0 0 "'ccmp' Thai Tone Macron Reordering"  {"'ccmp' Thai Tone Macron Reordering"  } ['ccmp' ('DFLT' <'dflt' > 'latn' <'dflt' > 'thai' <'KUY ' 'MLY ' 'PAL ' 'SAN ' 'THA ' 'dflt' > ) ]
Lookup: 6 0 0 "'ccmp' Thai Below Vowel Macron Reordering"  {"'ccmp' Thai Below Vowel Macron Reordering"  } ['ccmp' ('DFLT' <'dflt' > 'latn' <'dflt' > 'thai' <'KUY ' 'MLY ' 'PAL ' 'SAN ' 'THA ' 'dflt' > ) ]
Lookup: 4 0 0 "'ccmp' Patani Malay Ligatures"  {"'ccmp' Patani Malay Ligatures"  } ['ccmp' ('DFLT' <'dflt' > 'thai' <'KUY ' 'MLY ' 'PAL ' 'SAN ' 'THA ' 'dflt' > ) ]
Lookup: 6 0 0 "'ccmp' Thai Conditional Descender Removal"  {"'ccmp' Thai Conditional Descender Removal"  } ['ccmp' ('DFLT' <'dflt' > 'thai' <'KUY ' 'MLY ' 'THA ' 'dflt' > ) ]
Lookup: 1 0 0 "'ccmp' Pali-Sanskrit Descender Removal"  {"'ccmp' Pali-Sanskrit Descender Removal" ("descless" ) } ['ccmp' ('thai' <'PAL ' 'SAN ' > ) ]

StartChar: .notdef
Encoding: 65536 -1 0
Width: 766
VWidth: 2048
Flags: W
HStem: 0 95<212 595> 1193 95<445 828>
DStem2: 95 0 191.807 0 0.207912 0.978148<117.25 1239.7> 574.807 0 671 0 0.207912 0.978148<97.1224 1219.57>
LayerCount: 2
Fore
SplineSet
95 0 m 1
 369 1288 l 1
 946 1288 l 1
 671 0 l 1
 95 0 l 1
212 95 m 1
 595 95 l 1
 828 1193 l 1
 445 1193 l 1
 212 95 l 1
EndSplineSet
Validated: 1
EndChar

StartChar: exclam
Encoding: 33 33 2
Width: 277
VWidth: 2048
Flags: W
HStem: 0 100<111 192> 696 20G<233.823 347>
VStem: 151 57<178 203.094>
DStem2: 90 0 192 0 0.207912 0.978148<21.207 102.181 569.716 731.125>
LayerCount: 2
Fore
SplineSet
151 178 m 1
 205 558 l 1
 238 716 l 1
 347 716 l 1
 314 558 l 1
 208 178 l 1
 151 178 l 1
90 0 m 1
 111 100 l 1
 213 100 l 1
 192 0 l 1
 90 0 l 1
EndSplineSet
Validated: 1
EndChar

StartChar: quotedbl
Encoding: 34 34 3
Width: 354
VWidth: 2048
Flags: W
HStem: 463 253<298 322 460 483>
VStem: 169 291
LayerCount: 2
Fore
SplineSet
169 463 m 1
 173 599 l 1
 198 716 l 1
 298 716 l 1
 273 599 l 1
 222 463 l 1
 169 463 l 1
329 463 m 1
 335 599 l 1
 360 716 l 1
 460 716 l 1
 435 599 l 1
 383 463 l 1
 329 463 l 1
EndSplineSet
Validated: 1
EndChar

StartChar: numbersign
Encoding: 35 35 4
Width: 556
VWidth: 2048
Flags: W
HStem: -12 21G<48 129.365 274 356.462> 196 72<68 136 238 361 465 586> 446 72<121 239 341 466 570 639> 708 20G<347.714 429 574.619 656>
DStem2: 48 -12 121 -12 0.384261 0.923225<28.0511 225.846 331.512 496.231 601.897 801.539> 274 -12 348 -12 0.385324 0.922782<28.5139 225.462 331.976 496.616 603.13 801.923>
LayerCount: 2
Fore
SplineSet
48 -12 m 1
 136 196 l 1
 53 196 l 1
 68 268 l 1
 164 268 l 1
 239 446 l 1
 106 446 l 1
 121 518 l 1
 269 518 l 1
 356 728 l 1
 429 728 l 1
 341 518 l 1
 495 518 l 1
 583 728 l 1
 656 728 l 1
 570 518 l 1
 654 518 l 1
 639 446 l 1
 540 446 l 1
 465 268 l 1
 601 268 l 1
 586 196 l 1
 436 196 l 1
 348 -12 l 1
 274 -12 l 1
 361 196 l 1
 208 196 l 1
 121 -12 l 1
 48 -12 l 1
238 268 m 1
 391 268 l 1
 466 446 l 1
 313 446 l 1
 238 268 l 1
EndSplineSet
Validated: 1
EndChar

StartChar: dollar
Encoding: 36 36 5
Width: 556
VWidth: 2048
Flags: W
HStem: -15 75<211.052 247 313 376.612> 667 73<334.988 392 457 485.11>
VStem: 74 95<100.512 199> 161 90<462.929 591.093> 463 96<154.203 283.664> 519 94<564 635.155>
DStem2: 228 -103 278 -103 0.207912 0.978148<10.3956 90.0273 177.111 448.941 537.792 787.271 872.19 904.748>
LayerCount: 2
Fore
SplineSet
559 250 m 0xc8
 559 135 464 -6 297 -14 c 1
 278 -103 l 1
 228 -103 l 1
 247 -15 l 1
 131 0 74 57 74 156 c 0
 74 169 75 184 77 199 c 1
 170 216 l 1
 169 206 169 197 169 188 c 0xe8
 169 111 200 68 263 60 c 1
 322 339 l 1
 214 364 161 415 161 495 c 0
 161 552 193 719 407 740 c 1
 416 782 l 1
 466 782 l 1
 457 740 l 1
 562 731 613 677 613 584 c 0
 613 577 612 571 612 564 c 1
 519 550 l 1
 519 560 l 2xd4
 519 620 494 656 442 667 c 1
 388 412 l 1
 502 387 559 333 559 250 c 0xc8
392 667 m 1
 301 655 251 581 251 520 c 0xd0
 251 474 281 442 340 423 c 1
 392 667 l 1
313 60 m 1
 416 71 463 165 463 225 c 0xc8
 463 272 432 306 369 326 c 1
 313 60 l 1
EndSplineSet
Validated: 1
EndChar

StartChar: percent
Encoding: 37 37 6
Width: 889
VWidth: 2048
Flags: W
HStem: -26 60<636.638 734.163> 291 62<684.686 782.091> 349 62<252.659 350.134> 668 60<301.099 397.944>
VStem: 166 76<421.584 585.521> 410 77<493.753 656.922> 549 76<45.2932 208.631> 793 76<116.126 281.276>
DStem2: 206 -26 279 -26 0.59141 0.806371<43.1729 935.053>
LayerCount: 2
Fore
SplineSet
487 599 m 0xbf
 487 482 409 349 284 349 c 0
 204 349 166 401 166 479 c 0
 166 589 231 728 363 728 c 0
 442 728 487 681 487 599 c 0xbf
299 411 m 0
 388 411 410 557 410 598 c 0
 410 644 391 668 354 668 c 0
 264 668 242 522 242 478 c 0
 242 433 260 411 299 411 c 0
206 -26 m 1
 759 728 l 1
 829 728 l 1
 279 -26 l 1
 206 -26 l 1
869 221 m 0
 869 112 799 -26 667 -26 c 0
 590 -26 549 22 549 103 c 0
 549 234 632 353 746 353 c 0xdf
 829 353 869 300 869 221 c 0
681 34 m 0
 771 34 793 181 793 224 c 0
 793 269 775 291 736 291 c 0
 647 291 625 145 625 104 c 0
 625 58 644 34 681 34 c 0
EndSplineSet
Validated: 1
EndChar

StartChar: ampersand
Encoding: 38 38 7
Width: 666
VWidth: 2048
Flags: W
HStem: -12 76<219.047 369.491> 656 72<383.75 496.859>
VStem: 81 97<105.111 243.098> 251 94<500.611 617.328> 512 92<534.303 640.979>
DStem2: 393 458 301 412 0.509068 -0.860726<-111.013 -7.24082 65.509 255.03>
LayerCount: 2
Fore
SplineSet
251 544 m 0
 251 628 340 728 466 728 c 0
 561 728 604 672 604 608 c 0
 604 526 540 455 427 402 c 1
 522 238 l 1
 543 267 561 299 576 337 c 1
 663 317 l 1
 635 254 602 204 567 162 c 1
 591 120 619 83 655 54 c 1
 582 -17 l 1
 551 6 522 40 493 84 c 1
 421 20 346 -12 267 -12 c 0
 131 -12 81 77 81 158 c 0
 81 311 246 388 301 412 c 1
 268 462 251 506 251 544 c 0
393 458 m 1
 474 500 512 545 512 594 c 0
 512 634 484 656 446 656 c 0
 385 656 345 607 345 560 c 0
 345 530 365 503 393 458 c 1
334 354 m 1
 225 296 178 240 178 172 c 0
 178 108 224 64 285 64 c 0
 347 64 402 95 453 155 c 1
 334 354 l 1
EndSplineSet
Validated: 1
EndChar

StartChar: quotesingle
Encoding: 39 39 8
Width: 190
VWidth: 2048
Flags: W
HStem: 463 253<196 219>
VStem: 164 132
LayerCount: 2
Fore
SplineSet
164 463 m 1
 171 596 l 1
 196 716 l 1
 296 716 l 1
 271 596 l 1
 219 463 l 1
 164 463 l 1
EndSplineSet
Validated: 1
EndChar

StartChar: parenleft
Encoding: 40 40 9
Width: 332
VWidth: 2048
Flags: W
HStem: -210 21G<160 252> 708 20G<296 452>
VStem: 100 90<-47.3224 275.75>
LayerCount: 2
Fore
SplineSet
452 728 m 1
 315 563 190 349 190 96 c 0
 190 -6 210 -108 252 -210 c 1
 190 -210 l 1
 130 -107 100 0 100 113 c 0
 100 329 202 536 390 728 c 1
 452 728 l 1
EndSplineSet
Validated: 1
EndChar

StartChar: parenright
Encoding: 41 41 10
Width: 332
VWidth: 2048
Flags: W
HStem: -210 21G<16 213> 708 20G<216 308.5>
VStem: 281 86<249.545 563.399>
LayerCount: 2
Fore
SplineSet
16 -210 m 1
 190 -1 281 214 281 428 c 0
 281 539 253 626 216 728 c 1
 279 728 l 1
 338 619 367 509 367 397 c 0
 367 303 347 58 79 -210 c 1
 16 -210 l 1
EndSplineSet
Validated: 1
EndChar

StartChar: asterisk
Encoding: 42 42 11
Width: 387
VWidth: 2048
Flags: W
HStem: 584 71<410.363 470.789> 708 20G<311 382>
VStem: 313 69<654.381 728>
LayerCount: 2
Fore
SplineSet
156 584 m 1
 193 655 l 1
 241 636 276 621 296 607 c 1
 302 665 309 707 313 728 c 1
 382 728 l 1
 375 696 361 656 345 607 c 1
 383 624 424 639 470 655 c 1
 478 584 l 1
 434 572 393 563 352 558 c 1
 368 540 390 509 416 464 c 1
 348 423 l 1
 335 449 318 484 304 529 c 1
 269 483 241 448 217 423 c 1
 168 464 l 1
 216 512 251 543 271 558 c 1
 230 566 191 575 156 584 c 1
EndSplineSet
Validated: 1
EndChar

StartChar: plus
Encoding: 43 43 12
Width: 583
VWidth: 2048
Flags: W
HStem: 313 81<139 318 418 596> 569 20G<371.795 459>
DStem2: 276 116 359 116 0.207912 0.978148<17.2567 201.427 301.449 483.455>
LayerCount: 2
Fore
SplineSet
276 116 m 1
 318 313 l 1
 122 313 l 1
 139 394 l 1
 335 394 l 1
 376 589 l 1
 459 589 l 1
 418 394 l 1
 613 394 l 1
 596 313 l 1
 401 313 l 1
 359 116 l 1
 276 116 l 1
EndSplineSet
Validated: 1
EndChar

StartChar: comma
Encoding: 44 44 13
Width: 277
VWidth: 2048
Flags: W
HStem: -141 241
VStem: 61 150
LayerCount: 2
Fore
SplineSet
89 0 m 1
 110 100 l 1
 211 100 l 1
 190 0 l 2
 175 -71 137 -118 77 -141 c 1
 61 -104 l 1
 99 -89 125 -54 138 0 c 1
 89 0 l 1
EndSplineSet
Validated: 1
EndChar

StartChar: hyphen
Encoding: 45 45 14
AltUni2: 002010.ffffffff.0
Width: 332
VWidth: 2048
Flags: W
HStem: 215 88<96 348>
VStem: 78 288
LayerCount: 2
Fore
SplineSet
78 215 m 1
 96 303 l 1
 366 303 l 1
 348 215 l 1
 78 215 l 1
EndSplineSet
Validated: 1
EndChar

StartChar: period
Encoding: 46 46 15
Width: 277
VWidth: 2048
Flags: W
HStem: 0 100<111 192>
VStem: 90 123
LayerCount: 2
Fore
SplineSet
90 0 m 1
 111 100 l 1
 213 100 l 1
 192 0 l 1
 90 0 l 1
EndSplineSet
Validated: 1
EndChar

StartChar: slash
Encoding: 47 47 16
Width: 277
VWidth: 2048
Flags: W
HStem: -12 21G<-3 77.8378> 708 20G<352.135 432>
DStem2: -3 -12 68 -12 0.442359 0.896838<31.4075 825.121>
LayerCount: 2
Fore
SplineSet
-3 -12 m 1
 362 728 l 1
 432 728 l 1
 68 -12 l 1
 -3 -12 l 1
EndSplineSet
Validated: 1
EndChar

StartChar: zero
Encoding: 48 48 17
Width: 556
VWidth: 2048
Flags: W
HStem: -12 72<226.991 352.763> 658 72<349.759 476.168>
VStem: 98 89<105.459 369.525> 515 90<350.488 613.722>
LayerCount: 2
Fore
SplineSet
431 730 m 0
 547 730 605 659 605 521 c 0
 605 387 539 -12 273 -12 c 0
 156 -12 98 59 98 198 c 0
 98 336 165 730 431 730 c 0
414 658 m 0
 244 658 187 312 187 207 c 0
 187 110 221 60 289 60 c 0
 453 60 515 389 515 510 c 0
 515 607 482 658 414 658 c 0
EndSplineSet
Validated: 1
EndChar

StartChar: one
Encoding: 49 49 18
Width: 556
VWidth: 2048
Flags: W
HStem: 0 21G<285 378.246> 696 20G<443 526>
VStem: 468 58<689.564 716>
DStem2: 285 0 374 0 0.207912 0.978148<18.5041 570.548>
LayerCount: 2
Fore
SplineSet
374 0 m 1
 285 0 l 1
 404 558 l 1
 347 512 281 477 205 451 c 1
 223 537 l 1
 336 584 418 644 468 716 c 1
 526 716 l 1
 374 0 l 1
EndSplineSet
Validated: 1
EndChar

StartChar: two
Encoding: 50 50 19
Width: 556
VWidth: 2048
Flags: W
HStem: 0 72<154 501> 658 72<328.804 491.285>
VStem: 528 91<489.678 620.437>
LayerCount: 2
Fore
SplineSet
619 577 m 0
 619 358 269 213 154 72 c 1
 516 72 l 1
 501 0 l 1
 28 0 l 1
 59 145 309 290 382 353 c 0
 508 460 528 519 528 561 c 0
 528 621 482 658 416 658 c 0
 329 658 263 604 244 514 c 1
 155 523 l 1
 197 661 290 730 432 730 c 0
 546 730 619 673 619 577 c 0
EndSplineSet
Validated: 1
EndChar

StartChar: three
Encoding: 51 51 20
Width: 556
VWidth: 2048
Flags: W
HStem: -12 72<216.242 365.828> 344 76<314 351.246> 354 66<314 419.711> 526 21G<166 266> 658 72<332.424 474.652>
VStem: 81 92<107.094 193> 466 92<165.928 315.899> 503 91<499.003 629.631>
LayerCount: 2
Fore
SplineSet
558 269 m 0xde
 558 130 442 -12 267 -12 c 0
 138 -12 81 63 81 166 c 0
 81 175 81 184 82 193 c 1
 173 204 l 1
 173 110 209 60 283 60 c 0
 392 60 466 160 466 248 c 0
 466 312 424 354 352 354 c 0xbe
 336 354 315 350 289 344 c 1
 314 420 l 1
 336 420 l 2
 432 420 503 494 503 571 c 0
 503 626 464 658 408 658 c 0
 335 658 282 612 250 526 c 1
 166 541 l 1
 216 666 301 730 422 730 c 0
 532 730 594 669 594 583 c 0xdd
 594 524 568 439 458 393 c 1
 526 377 558 334 558 269 c 0xde
EndSplineSet
Validated: 1
EndChar

StartChar: four
Encoding: 52 52 21
Width: 556
VWidth: 2048
Flags: W
HStem: 0 21G<323 416.199> 181 72<154 361 466 547> 696 20G<473.598 564>
DStem2: 66 253 154 253 0.677091 0.735899<59.584 493.577> 323 0 412 0 0.207912 0.978148<18.5041 184.945 277.203 587.8>
LayerCount: 2
Fore
SplineSet
323 0 m 1
 361 181 l 1
 50 181 l 1
 66 253 l 1
 492 716 l 1
 564 716 l 1
 466 253 l 1
 563 253 l 1
 547 181 l 1
 450 181 l 1
 412 0 l 1
 323 0 l 1
377 253 m 1
 445 575 l 1
 154 253 l 1
 377 253 l 1
EndSplineSet
Validated: 1
EndChar

StartChar: five
Encoding: 53 53 22
Width: 556
VWidth: 2048
Flags: W
HStem: -12 72<211.214 365.078> 404 72<291.687 434.952> 644 72<335 620>
VStem: 80 94<99.9205 189> 478 93<193.151 360.764>
DStem2: 130 343 251 433 0.370961 0.928648<19.4618 66.7027 128.465 355.57>
LayerCount: 2
Fore
SplineSet
284 60 m 0
 395 60 478 173 478 284 c 0
 478 343 452 404 356 404 c 0
 299 404 251 378 210 332 c 1
 130 343 l 1
 279 716 l 1
 635 716 l 1
 620 644 l 1
 335 644 l 1
 251 433 l 1
 301 464 348 476 394 476 c 0
 512 476 571 407 571 307 c 0
 571 157 453 -12 268 -12 c 0
 150 -12 80 51 80 161 c 0
 80 170 80 179 81 189 c 1
 174 195 l 1
 174 190 174 185 174 180 c 0
 174 101 211 60 284 60 c 0
EndSplineSet
Validated: 1
EndChar

StartChar: six
Encoding: 54 54 23
Width: 556
VWidth: 2048
Flags: W
HStem: -12 72<229.143 370.533> 394 72<295.736 435.789> 658 72<351.877 493.001>
VStem: 93 90<107.175 281.152> 475 91<185.318 353.498> 526 89<549 622.038>
LayerCount: 2
Fore
SplineSet
566 296 m 0xf8
 566 162 463 -12 284 -12 c 0
 156 -12 93 60 93 199 c 0
 93 240 98 288 109 341 c 0
 163 597 278 730 449 730 c 0
 596 730 615 629 615 567 c 2
 615 549 l 1
 526 543 l 1xf4
 525 617 494 658 428 658 c 0
 309 658 237 524 205 374 c 1
 260 439 324 466 398 466 c 0
 505 466 566 396 566 296 c 0xf8
298 60 m 0
 407 60 475 182 475 281 c 0xf8
 475 366 417 394 366 394 c 0
 250 394 183 281 183 187 c 0
 183 113 225 60 298 60 c 0
EndSplineSet
Validated: 1
EndChar

StartChar: seven
Encoding: 55 55 24
Width: 556
VWidth: 2048
Flags: W
HStem: 0 21G<147 274.5> 644 72<200 536>
VStem: 147 91<0 62.0117>
LayerCount: 2
Fore
SplineSet
147 0 m 1
 205 240 385 509 536 644 c 1
 185 644 l 1
 200 716 l 1
 662 716 l 1
 650 661 l 1
 498 528 311 265 238 0 c 1
 147 0 l 1
EndSplineSet
Validated: 1
EndChar

StartChar: eight
Encoding: 56 56 25
Width: 556
VWidth: 2048
Flags: W
HStem: -12 72<216.095 371.998> 356 72<301.3 424.619> 658 72<341.759 479.904>
VStem: 80 91<103.974 256.272> 181 91<457.222 591.038> 471 91<158.962 311.192> 511 91<495.46 628.478>
LayerCount: 2
Fore
SplineSet
562 259 m 0xfc
 562 120 441 -12 273 -12 c 0
 154 -12 80 56 80 159 c 0
 80 232 117 358 260 393 c 1
 208 415 181 452 181 504 c 0
 181 604 270 730 431 730 c 0
 541 730 602 669 602 583 c 0xfa
 602 521 573 433 463 393 c 1
 530 370 562 324 562 259 c 0xfc
368 428 m 0
 451 428 511 495 511 569 c 0
 511 625 471 658 416 658 c 0
 357 658 272 610 272 517 c 0
 272 463 308 428 368 428 c 0
290 60 m 0
 396 60 471 152 471 242 c 0xfc
 471 311 422 356 350 356 c 0
 252 356 171 266 171 173 c 0
 171 100 224 60 290 60 c 0
EndSplineSet
Validated: 1
EndChar

StartChar: nine
Encoding: 57 57 26
Width: 556
VWidth: 2048
Flags: W
HStem: -12 72<206.691 348.561> 250 72<274.121 405.74> 658 72<342.058 482.241>
VStem: 90 86<91.4242 168.625> 138 90<369.266 532.112> 524 86<438.714 613.754>
LayerCount: 2
Fore
SplineSet
138 425 m 0xec
 138 561 240 730 422 730 c 0
 538 730 610 671 610 524 c 0
 610 482 604 433 592 377 c 0
 538 121 425 -12 253 -12 c 0
 149 -12 90 46 90 145 c 0
 90 153 90 161 91 169 c 1
 176 176 l 1
 176 169 l 2xf4
 176 98 207 60 271 60 c 0
 410 60 474 237 486 295 c 2
 496 342 l 1
 443 279 381 250 307 250 c 0
 202 250 138 321 138 425 c 0xec
417 658 m 0
 308 658 228 537 228 442 c 0xec
 228 366 279 322 344 322 c 0
 452 322 524 437 524 536 c 0
 524 605 488 658 417 658 c 0
EndSplineSet
Validated: 1
EndChar

StartChar: colon
Encoding: 58 58 27
Width: 277
VWidth: 2048
Flags: W
HStem: 0 100<111 192> 418 100<200 281>
VStem: 90 212
DStem2: 90 0 192 0 0.207912 0.978148<21.207 102.181 448.577 529.551>
LayerCount: 2
Fore
SplineSet
179 418 m 1
 200 518 l 1
 302 518 l 1
 281 418 l 1
 179 418 l 1
90 0 m 1
 111 100 l 1
 213 100 l 1
 192 0 l 1
 90 0 l 1
EndSplineSet
Validated: 1
EndChar

StartChar: semicolon
Encoding: 59 59 28
Width: 277
VWidth: 2048
Flags: W
HStem: 418 100<199 279>
VStem: 61 239
DStem2: 59.0295 -141 160.03 -141 0.207912 0.978148<155.068 246.331 592.519 673.701>
LayerCount: 2
Fore
SplineSet
178 418 m 1
 199 518 l 1
 300 518 l 1
 279 418 l 1
 178 418 l 1
89 0 m 1
 110 100 l 1
 211 100 l 1
 190 0 l 2
 175 -71 137 -118 77 -141 c 1
 61 -104 l 1
 99 -89 125 -54 138 0 c 1
 89 0 l 1
EndSplineSet
Validated: 1
EndChar

StartChar: less
Encoding: 60 60 29
Width: 583
VWidth: 2048
Flags: W
HStem: 576 20G<604.557 651.632>
DStem2: 228 354 122 313 0.904294 -0.426911<0 376.771> 139 395 228 354 0.932038 0.362359<68.0947 505.464>
LayerCount: 2
Fore
SplineSet
122 313 m 1
 139 395 l 1
 656 596 l 1
 637 509 l 1
 228 354 l 1
 571 198 l 1
 552 110 l 1
 122 313 l 1
EndSplineSet
Validated: 1
EndChar

StartChar: equal
Encoding: 61 61 30
Width: 583
VWidth: 2048
Flags: W
HStem: 215 72<116 575> 431 72<162 621>
LayerCount: 2
Fore
SplineSet
621 431 m 1
 147 431 l 1
 162 503 l 1
 636 503 l 1
 621 431 l 1
575 215 m 1
 101 215 l 1
 116 287 l 1
 590 287 l 1
 575 215 l 1
EndSplineSet
Validated: 1
EndChar

StartChar: greater
Encoding: 62 62 31
Width: 583
VWidth: 2048
Flags: W
HStem: 576 20G<177.632 224.886>
DStem2: 97 198 78 110 0.931057 0.364874<0 437.723> 182 596 163 509 0.906291 -0.422655<19.5515 395.921>
LayerCount: 2
Fore
SplineSet
596 313 m 1
 78 110 l 1
 97 198 l 1
 506 354 l 1
 163 509 l 1
 182 596 l 1
 613 395 l 1
 596 313 l 1
EndSplineSet
Validated: 1
EndChar

StartChar: question
Encoding: 63 63 32
Width: 556
VWidth: 2048
Flags: W
HStem: 0 100<246 325> 656 72<334.61 490.06>
VStem: 531 92<493.316 616.069>
DStem2: 225 0 325 0 0.207912 0.978148<20.7912 102.181 199.39 308.768>
LayerCount: 2
Fore
SplineSet
353 349 m 0
 420 408 531 463 531 555 c 0
 531 617 482 656 416 656 c 0
 337 656 279 609 243 510 c 1
 155 521 l 1
 201 659 293 728 431 728 c 0
 542 728 623 676 623 577 c 0
 623 443 489 387 418 308 c 0
 390 277 370 236 356 176 c 1
 267 176 l 1
 276 217 l 2
 289 276 330 329 353 349 c 0
225 0 m 1
 246 100 l 1
 346 100 l 1
 325 0 l 1
 225 0 l 1
EndSplineSet
Validated: 1
EndChar

StartChar: at
Encoding: 64 64 33
Width: 1014
VWidth: 2048
Flags: W
HStem: -210 72<358.701 672.046> -2 72<397.099 498.542 646.297 760.619> 458 72<527.886 657.383> 498 20G<760.282 856> 658 72<537.947 805.271>
VStem: 91 76<26.3675 268.229> 280 91<97.8857 264.414> 965 74<310.829 515.88>
LayerCount: 2
Fore
SplineSet
675 658 m 0xdf
 370 658 167 383 167 143 c 0
 167 -15 266 -138 518 -138 c 0
 679 -138 804 -89 894 9 c 1
 981 9 l 1
 890 -128 696 -210 504 -210 c 0
 190 -210 91 -51 91 121 c 0
 91 366 293 730 693 730 c 0
 903 730 1039 615 1039 434 c 0
 1039 212 835 -2 662 -2 c 0
 609 -2 582 18 582 59 c 0
 582 65 583 73 584 80 c 1
 527 26 471 -2 417 -2 c 0
 329 -2 280 62 280 154 c 0
 280 333 459 530 607 530 c 0xef
 669 530 712 500 735 440 c 1
 769 518 l 1
 856 518 l 1
 714 189 l 2
 698 153 683 117 683 99 c 0
 683 83 691 70 709 70 c 0
 797 70 965 236 965 418 c 0
 965 566 851 658 675 658 c 0xdf
450 70 m 0
 581 70 685 255 685 360 c 0
 685 420 653 458 597 458 c 0
 478 458 371 276 371 169 c 0
 371 111 400 70 450 70 c 0
EndSplineSet
Validated: 1
EndChar

StartChar: A
Encoding: 65 65 34
Width: 666
VWidth: 2048
Flags: W
HStem: 0 21G<-2 111.869 562.542 668> 214 84<277 515> 696 20G<426.682 534.827>
DStem2: -2 0 100 0 0.524429 0.851454<53.4918 302.305 400.049 400.049 639.429 790.546> 531 716 481 504 0.187931 -0.982182<62.2268 407.545>
LayerCount: 2
Fore
SplineSet
439 716 m 1
 531 716 l 1
 668 0 l 1
 566 0 l 1
 529 214 l 1
 227 214 l 1
 100 0 l 1
 -2 0 l 1
 439 716 l 1
277 298 m 1
 515 298 l 1
 481 504 l 2
 475 545 469 587 469 627 c 2
 469 641 l 1
 451 596 426 550 399 504 c 2
 277 298 l 1
EndSplineSet
Validated: 1
EndChar

StartChar: B
Encoding: 66 66 35
Width: 666
VWidth: 2048
Flags: W
HStem: 0 84<187 476.074> 331 84<257 525.382> 632 84<303 571.381>
VStem: 565 96<159.312 295.563> 600 98<485.611 604.82>
DStem2: 74 0 169.145 0 0.207912 0.978148<105.658 358.072 443.979 665.801>
LayerCount: 2
Fore
SplineSet
698 575 m 0xe8
 698 519 674 431 559 382 c 1
 628 359 661 318 661 255 c 0xf0
 661 170 618 0 346 0 c 2
 74 0 l 1
 226 716 l 1
 494 716 l 2
 586 716 698 686 698 575 c 0xe8
411 415 m 2
 511 415 600 443 600 554 c 0xe8
 600 622 538 632 445 632 c 2
 303 632 l 1
 257 415 l 1
 411 415 l 2
565 241 m 0xf0
 565 296 526 331 404 331 c 2
 239 331 l 1
 187 84 l 1
 364 84 l 2
 535 84 565 178 565 241 c 0xf0
EndSplineSet
Validated: 1
EndChar

StartChar: C
Encoding: 67 67 36
Width: 721
VWidth: 2048
Flags: W
HStem: -12 84<297.824 499.653> 646 84<411.884 614.53>
VStem: 116 97<157.579 401.382> 684 98<519.429 569.889>
LayerCount: 2
Fore
SplineSet
116 247 m 0
 116 456 241 730 543 730 c 0
 691 730 771 660 782 521 c 1
 684 499 l 1
 673 599 618 646 523 646 c 0
 271 646 213 378 213 262 c 0
 213 146 268 72 394 72 c 0
 507 72 590 130 642 251 c 1
 732 227 l 1
 656 67 540 -12 383 -12 c 0
 206 -12 116 85 116 247 c 0
EndSplineSet
Validated: 1
EndChar

StartChar: D
Encoding: 68 68 37
Width: 721
VWidth: 2048
Flags: W
HStem: 0 84<190 457.291> 632 84<306 582.029>
VStem: 663 97<329.168 557.266>
DStem2: 77 0 172.145 0 0.207912 0.978148<105.658 665.801>
LayerCount: 2
Fore
SplineSet
77 0 m 1
 229 716 l 1
 475 716 l 2
 674 716 760 637 760 485 c 0
 760 344 695 0 336 0 c 2
 77 0 l 1
190 84 m 1
 343 84 l 2
 640 84 663 391 663 466 c 0
 663 578 603 632 456 632 c 2
 306 632 l 1
 190 84 l 1
EndSplineSet
Validated: 1
EndChar

StartChar: E
Encoding: 69 69 38
Width: 666
VWidth: 2048
Flags: W
HStem: 0 84<193 613> 328 84<263 640> 632 84<309 732>
DStem2: 80 0 175.145 0 0.207912 0.978148<105.658 355.138 441.045 665.801>
LayerCount: 2
Fore
SplineSet
80 0 m 1
 232 716 l 1
 750 716 l 1
 732 632 l 1
 309 632 l 1
 263 412 l 1
 658 412 l 1
 640 328 l 1
 245 328 l 1
 193 84 l 1
 631 84 l 1
 613 0 l 1
 80 0 l 1
EndSplineSet
Validated: 1
EndChar

StartChar: F
Encoding: 70 70 39
Width: 610
VWidth: 2048
Flags: W
HStem: 0 21G<83 182.281> 327 84<265 582> 632 84<312 700>
DStem2: 83 0 178 0 0.207912 0.978148<19.7516 354.16 439.859 665.801>
LayerCount: 2
Fore
SplineSet
83 0 m 1
 235 716 l 1
 718 716 l 1
 700 632 l 1
 312 632 l 1
 265 411 l 1
 599 411 l 1
 582 327 l 1
 248 327 l 1
 178 0 l 1
 83 0 l 1
EndSplineSet
Validated: 1
EndChar

StartChar: G
Encoding: 71 71 40
Width: 777
VWidth: 2048
Flags: W
HStem: -12 84<318.176 554.126> 281 84<490 681> 646 84<428.511 649.878>
VStem: 120 97<169.001 400.054> 724 91<516 572.059>
DStem2: 618.203 -12 713.194 -12 0.207912 0.978148<140.474 299.653>
LayerCount: 2
Fore
SplineSet
120 255 m 0
 120 444 243 730 567 730 c 0
 728 730 811 659 815 516 c 1
 724 493 l 1
 717 597 658 646 549 646 c 0
 279 646 217 386 217 271 c 0
 217 145 289 72 429 72 c 0
 512 72 587 98 652 147 c 1
 681 281 l 1
 472 281 l 1
 490 365 l 1
 794 365 l 1
 737 100 l 1
 627 25 520 -12 415 -12 c 0
 184 -12 120 122 120 255 c 0
EndSplineSet
Validated: 1
EndChar

StartChar: H
Encoding: 72 72 41
Width: 721
VWidth: 2048
Flags: W
HStem: 0 21G<80 179.26 547 646.246> 338 84<265 619> 696 20G<227.754 327 694.782 794>
DStem2: 80 0 175 0 0.207912 0.978148<19.7516 365.335 451.242 731.956> 547 0 642 0 0.207912 0.978148<19.7516 345.584 431.49 731.956>
LayerCount: 2
Fore
SplineSet
80 0 m 1
 232 716 l 1
 327 716 l 1
 265 422 l 1
 637 422 l 1
 699 716 l 1
 794 716 l 1
 642 0 l 1
 547 0 l 1
 619 338 l 1
 247 338 l 1
 175 0 l 1
 80 0 l 1
EndSplineSet
Validated: 1
EndChar

StartChar: I
Encoding: 73 73 42
Width: 277
VWidth: 2048
Flags: W
HStem: 0 21G<94 193.246> 696 20G<241.754 341>
VStem: 94 247
DStem2: 94 0 189 0 0.207912 0.978148<19.7516 731.956>
LayerCount: 2
Fore
SplineSet
94 0 m 1
 246 716 l 1
 341 716 l 1
 189 0 l 1
 94 0 l 1
EndSplineSet
Validated: 1
EndChar

StartChar: J
Encoding: 74 74 43
Width: 499
VWidth: 2048
Flags: W
HStem: -12 84<174.744 309.655> 696 20G<472.772 572>
VStem: 61 92<94.935 203.792>
DStem2: 322.837 -12 416.986 -12 0.207912 0.978148<125.448 744.144>
LayerCount: 2
Fore
SplineSet
234 72 m 0
 333 72 355 139 373 224 c 2
 477 716 l 1
 572 716 l 1
 468 228 l 2
 434 67 351 -12 216 -12 c 0
 111 -12 61 34 61 124 c 0
 61 148 64 174 71 204 c 1
 158 215 l 1
 155 197 153 180 153 165 c 0
 153 103 180 72 234 72 c 0
EndSplineSet
Validated: 1
EndChar

StartChar: K
Encoding: 75 75 44
Width: 666
VWidth: 2048
Flags: W
HStem: 0 21G<74 173.274 531.11 665> 696 20G<221.754 321 651.843 803>
DStem2: 74 0 169 0 0.207912 0.978148<19.7516 273.352 387.894 731.956> 246 360 222 248 0.778772 0.627307<0 91.5922 194.042 558.193>
LayerCount: 2
Fore
SplineSet
74 0 m 1
 226 716 l 1
 321 716 l 1
 246 360 l 1
 676 716 l 1
 803 716 l 1
 442 426 l 1
 665 0 l 1
 541 0 l 1
 362 362 l 1
 222 248 l 1
 169 0 l 1
 74 0 l 1
EndSplineSet
Validated: 1
EndChar

StartChar: L
Encoding: 76 76 45
Width: 556
VWidth: 2048
Flags: W
HStem: 0 84<187 521> 696 20G<221.754 321>
DStem2: 74 0 169.145 0 0.207912 0.978148<105.658 731.956>
LayerCount: 2
Fore
SplineSet
74 0 m 1
 226 716 l 1
 321 716 l 1
 187 84 l 1
 539 84 l 1
 521 0 l 1
 74 0 l 1
EndSplineSet
Validated: 1
EndChar

StartChar: M
Encoding: 77 77 46
Width: 832
VWidth: 2048
Flags: W
HStem: 0 21G<75 174.264 370.554 469.975 662 761.246> 696 20G<222.754 376.286 751.244 909>
DStem2: 75 0 170 0 0.207912 0.978148<19.7516 638.352> 374 716 299 605 0.121409 -0.992603<101.073 598.854> 442 121 459 0 0.481084 0.876674<0 592.209> 662 0 757 0 0.207912 0.978148<19.7516 618.6>
LayerCount: 2
Fore
SplineSet
75 0 m 1
 227 716 l 1
 374 716 l 1
 442 121 l 1
 762 716 l 1
 909 716 l 1
 757 0 l 1
 662 0 l 1
 791 605 l 1
 459 0 l 1
 373 0 l 1
 299 605 l 1
 170 0 l 1
 75 0 l 1
EndSplineSet
Validated: 1
EndChar

StartChar: N
Encoding: 78 78 47
Width: 721
VWidth: 2048
Flags: W
HStem: 0 21G<77 176.263 531.19 645.246> 696 20G<224.754 338.877 693.758 793>
DStem2: 77 0 172 0 0.207912 0.978148<19.7516 595.398> 330 716 292 563 0.40312 -0.915147<124.699 613.774> 546.054 0 641 0 0.207912 0.978148<158.463 731.945>
LayerCount: 2
Fore
SplineSet
77 0 m 1
 229 716 l 1
 330 716 l 1
 579 155 l 1
 698 716 l 1
 793 716 l 1
 641 0 l 1
 540 0 l 1
 292 563 l 1
 172 0 l 1
 77 0 l 1
EndSplineSet
Validated: 1
EndChar

StartChar: O
Encoding: 79 79 48
Width: 777
VWidth: 2048
Flags: W
HStem: -12 84<308.4 510.127> 646 84<416.988 632.724>
VStem: 113 97<168.725 394.643> 722 96<313.582 553.499>
LayerCount: 2
Fore
SplineSet
113 258 m 0
 113 435 239 730 545 730 c 0
 729 730 818 622 818 461 c 0
 818 206 633 -12 387 -12 c 0
 210 -12 113 101 113 258 c 0
527 646 m 0
 267 646 210 366 210 272 c 0
 210 154 276 72 405 72 c 0
 595 72 722 250 722 451 c 0
 722 556 676 646 527 646 c 0
EndSplineSet
Validated: 1
EndChar

StartChar: P
Encoding: 80 80 49
Width: 666
VWidth: 2048
Flags: W
HStem: 0 21G<77 176.247> 292 84<252 545.146> 632 84<306 605.572>
VStem: 638 98<459.124 600.261>
DStem2: 77 0 172 0 0.207912 0.978148<19.7516 318.261 404.168 665.801>
LayerCount: 2
Fore
SplineSet
77 0 m 1
 229 716 l 1
 500 716 l 2
 650 716 736 675 736 566 c 0
 736 496 707 292 418 292 c 2
 234 292 l 1
 172 0 l 1
 77 0 l 1
437 376 m 2
 611 376 638 485 638 545 c 0
 638 614 583 632 490 632 c 2
 306 632 l 1
 252 376 l 1
 437 376 l 2
EndSplineSet
Validated: 1
EndChar

StartChar: Q
Encoding: 81 81 50
Width: 777
VWidth: 2048
Flags: W
HStem: -12 84<298.345 498.649> 646 84<413.927 619.938>
VStem: 108 96<168.33 398.286> 719 98<320.726 548.419>
LayerCount: 2
Fore
SplineSet
108 257 m 0
 108 464 251 730 541 730 c 0
 719 730 817 633 817 468 c 0
 817 328 758 175 635 77 c 1
 673 46 710 25 744 11 c 1
 702 -55 l 1
 654 -37 610 -8 566 32 c 1
 508 3 445 -12 380 -12 c 0
 210 -12 108 91 108 257 c 0
523 646 m 0
 280 646 204 398 204 271 c 0
 204 148 272 72 401 72 c 0
 435 72 468 75 500 89 c 1
 475 107 447 121 415 129 c 1
 454 198 l 1
 505 182 543 159 573 129 c 1
 681 213 719 349 719 445 c 0
 719 567 652 646 523 646 c 0
EndSplineSet
Validated: 1
EndChar

StartChar: R
Encoding: 82 82 51
Width: 721
VWidth: 2048
Flags: W
HStem: 0 21G<78 177.241 581.812 710> 316 84<258 434.018> 632 84<307 633.101>
VStem: 669 100<472.368 600.171>
DStem2: 78 0 173 0 0.207912 0.978148<19.7516 342.776 428.683 665.801> 627 195 529 149 0.39164 -0.920118<-118.723 164.932>
LayerCount: 2
Fore
SplineSet
78 0 m 1
 230 716 l 1
 547 716 l 2
 694 716 769 683 769 581 c 0
 769 427 668 344 518 325 c 1
 563 305 598 261 627 195 c 2
 710 0 l 1
 590 0 l 1
 529 149 l 2
 492 238 462 316 351 316 c 2
 240 316 l 1
 173 0 l 1
 78 0 l 1
462 400 m 2
 638 400 669 488 669 547 c 0
 669 605 623 632 534 632 c 2
 307 632 l 1
 258 400 l 1
 462 400 l 2
EndSplineSet
Validated: 1
EndChar

StartChar: S
Encoding: 83 83 52
Width: 666
VWidth: 2048
Flags: W
HStem: -12 84<250.309 469.835> 644 84<349.885 563.761>
VStem: 89 96<132.495 230> 181 98<470.673 584.07> 564 99<153.023 268.232> 612 94<513 598.273>
LayerCount: 2
Fore
SplineSet
348 -12 m 0xd8
 184 -12 89 52 89 183 c 0
 89 198 91 214 93 230 c 1
 186 238 l 1
 185 230 185 222 185 215 c 0
 185 119 243 72 361 72 c 0
 477 72 564 131 564 220 c 0xe8
 564 281 502 298 375 331 c 0
 248 364 181 410 181 493 c 0
 181 634 314 728 478 728 c 0
 618 728 706 671 706 557 c 0
 706 543 705 529 702 513 c 1
 611 507 l 1
 612 515 612 523 612 530 c 0xd4
 612 606 563 644 465 644 c 0
 304 644 279 561 279 517 c 0
 279 465 330 447 424 423 c 0
 509 401 663 377 663 245 c 0
 663 123 550 -12 348 -12 c 0xd8
EndSplineSet
Validated: 1
EndChar

StartChar: T
Encoding: 84 84 53
Width: 610
VWidth: 2048
Flags: W
HStem: 0 21G<259 358.241> 632 84<175 393 488 726>
DStem2: 259 0 354 0 0.207912 0.978148<19.7516 646.049>
LayerCount: 2
Fore
SplineSet
259 0 m 1
 393 632 l 1
 157 632 l 1
 175 716 l 1
 744 716 l 1
 726 632 l 1
 488 632 l 1
 354 0 l 1
 259 0 l 1
EndSplineSet
Validated: 1
EndChar

StartChar: U
Encoding: 85 85 54
Width: 721
VWidth: 2048
Flags: W
HStem: -12 84<276.212 481.981> 696 20G<225.749 325 694.739 794>
VStem: 127 98<121.073 331.578>
DStem2: 75.2572 -12 170.045 -12 0.207912 0.978148<243.746 744.264> 544.045 -12 639.257 -12 0.207912 0.978148<177.943 744.308>
LayerCount: 2
Fore
SplineSet
369 72 m 0
 543 72 584 176 611 303 c 2
 699 716 l 1
 794 716 l 1
 706 302 l 2
 660 85 555 -12 359 -12 c 0
 197 -12 127 48 127 179 c 0
 127 215 132 256 142 302 c 2
 230 716 l 1
 325 716 l 1
 237 303 l 2
 229 266 225 233 225 204 c 0
 225 118 265 72 369 72 c 0
EndSplineSet
Validated: 1
EndChar

StartChar: V
Encoding: 86 86 55
Width: 666
VWidth: 2048
Flags: W
HStem: 0 21G<278.508 392.039> 696 20G<157 261.968 703.258 811>
VStem: 157 102<675.904 716>
DStem2: 351 96 380 0 0.515727 0.856753<0 718.911>
LayerCount: 2
Fore
SplineSet
282 0 m 1
 157 716 l 1
 259 716 l 1
 351 96 l 1
 715 716 l 1
 811 716 l 1
 380 0 l 1
 282 0 l 1
EndSplineSet
Validated: 1
EndChar

StartChar: W
Encoding: 87 87 56
Width: 944
VWidth: 2048
Flags: W
HStem: 0 21G<200.939 308.746 643.762 745.749> 696 20G<164 261.582 559.034 685.164 980.685 1085>
VStem: 164 97<584.105 716>
DStem2: 278 132 299 0 0.438058 0.898947<0 591.359> 684 716 606 630 0.0617865 -0.998089<81.0163 584.985> 718 132 736 0 0.438152 0.898901<0 644.135>
LayerCount: 2
Fore
SplineSet
202 0 m 1
 164 716 l 1
 261 716 l 1
 278 132 l 1
 569 716 l 1
 684 716 l 1
 718 132 l 1
 990 716 l 1
 1085 716 l 1
 736 0 l 1
 645 0 l 1
 606 630 l 1
 299 0 l 1
 202 0 l 1
EndSplineSet
Validated: 1
EndChar

StartChar: X
Encoding: 88 88 57
Width: 666
VWidth: 2048
Flags: W
HStem: 0 21G<5 136.658 534.067 661> 696 20G<189 311.738 670.674 793>
DStem2: 5 0 118 0 0.691291 0.722576<78.1159 485.623 619.618 990.899> 302 716 189 716 0.448212 -0.893927<0 296.946 415.794 748.519>
LayerCount: 2
Fore
SplineSet
5 0 m 1
 361 374 l 1
 189 716 l 1
 302 716 l 1
 432 449 l 1
 690 716 l 1
 793 716 l 1
 470 379 l 1
 661 0 l 1
 544 0 l 1
 396 298 l 1
 118 0 l 1
 5 0 l 1
EndSplineSet
Validated: 1
EndChar

StartChar: Y
Encoding: 89 89 58
Width: 666
VWidth: 2048
Flags: W
HStem: 0 21G<279 378.224> 696 20G<155 278.93 683.569 811>
DStem2: 270 716 155 716 0.414301 -0.91014<0 358.104> 279 0 374 0 0.207912 0.978148<19.7516 309.685> 416 389 438 303 0.670254 0.742131<0 433.699>
LayerCount: 2
Fore
SplineSet
279 0 m 1
 343 303 l 1
 155 716 l 1
 270 716 l 1
 416 389 l 1
 701 716 l 1
 811 716 l 1
 438 303 l 1
 374 0 l 1
 279 0 l 1
EndSplineSet
Validated: 1
EndChar

StartChar: Z
Encoding: 90 90 59
Width: 610
VWidth: 2048
Flags: W
HStem: 0 84<147 586> 632 84<213 589>
DStem2: 39 89 147 84 0.715968 0.698133<73.8339 772.869>
LayerCount: 2
Fore
SplineSet
20 0 m 1
 39 89 l 1
 589 632 l 1
 195 632 l 1
 213 716 l 1
 727 716 l 1
 709 632 l 1
 147 84 l 1
 604 84 l 1
 586 0 l 1
 20 0 l 1
EndSplineSet
Validated: 1
EndChar

StartChar: bracketleft
Encoding: 91 91 60
Width: 277
VWidth: 2048
Flags: W
HStem: -199 72<129 220> 644 72<293 399>
DStem2: 25 -199 113.696 -199 0.207912 0.978148<92.0494 880.299>
LayerCount: 2
Fore
SplineSet
25 -199 m 1
 219 716 l 1
 414 716 l 1
 399 644 l 1
 293 644 l 1
 129 -127 l 1
 235 -127 l 1
 220 -199 l 1
 25 -199 l 1
EndSplineSet
Validated: 1
EndChar

StartChar: backslash
Encoding: 92 92 61
Width: 277
VWidth: 2048
Flags: W
HStem: -12 21G<202.676 274> 708 20G<155 227.297>
VStem: 155 119
DStem2: 226 728 155 728 0.0660715 -0.997815<0 736.929>
LayerCount: 2
Fore
SplineSet
204 -12 m 1
 155 728 l 1
 226 728 l 1
 274 -12 l 1
 204 -12 l 1
EndSplineSet
Validated: 1
EndChar

StartChar: bracketright
Encoding: 93 93 62
Width: 277
VWidth: 2048
Flags: W
HStem: -199 72<-9 99> 644 72<170 263>
DStem2: 83.6959 -199 171 -199 0.207912 0.978148<73.6085 861.858>
LayerCount: 2
Fore
SplineSet
171 -199 m 1
 -24 -199 l 1
 -9 -127 l 1
 99 -127 l 1
 263 644 l 1
 155 644 l 1
 170 716 l 1
 365 716 l 1
 171 -199 l 1
EndSplineSet
Validated: 1
EndChar

StartChar: asciicircum
Encoding: 94 94 63
Width: 469
VWidth: 2048
Flags: W
HStem: 708 20G<340.905 429.604>
DStem2: 98 337 188 337 0.547768 0.83663<49.2991 391.357>
LayerCount: 2
Fore
SplineSet
188 337 m 1
 98 337 l 1
 354 728 l 1
 425 728 l 1
 515 337 l 1
 426 337 l 1
 368 628 l 1
 188 337 l 1
EndSplineSet
Validated: 1
EndChar

StartChar: underscore
Encoding: 95 95 64
Width: 556
VWidth: 2048
Flags: W
HStem: -199 64<-44 527>
LayerCount: 2
Fore
SplineSet
-57 -199 m 1
 -44 -135 l 1
 540 -135 l 1
 527 -199 l 1
 -57 -199 l 1
EndSplineSet
Validated: 1
EndChar

StartChar: grave
Encoding: 96 96 65
Width: 332
VWidth: 2048
Flags: W
HStem: 582 138<280 314>
VStem: 196 155
LayerCount: 2
Fore
SplineSet
351 582 m 1
 280 582 l 1
 196 720 l 1
 314 720 l 1
 351 582 l 1
EndSplineSet
Validated: 1
EndChar

StartChar: a
Encoding: 97 97 66
Width: 556
VWidth: 2048
Flags: W
HStem: -12 72<166.968 318.716> 0 21G<420.5 513> 458 72<275.711 451.397>
VStem: 60 91<76.9719 176.969> 418 86<0.750732 63.5709> 475 92<329.109 434.562>
DStem2: 393.986 -12 483.918 -12 0.207912 0.978148<137.668 277.14 340.729 402.798>
LayerCount: 2
Fore
SplineSet
370 458 m 0xb4
 281 458 246 427 212 359 c 1
 131 371 l 1
 176 477 265 530 398 530 c 0
 510 530 567 506 567 413 c 0xb4
 567 391 564 365 557 334 c 2
 509 106 l 2
 506 90 504 75 504 60 c 0xb8
 504 39 507 20 513 0 c 1
 422 0 l 1
 419 12 418 27 418 42 c 0x78
 418 49 418 56 419 64 c 1
 348 14 278 -12 210 -12 c 0
 122 -12 60 29 60 103 c 0
 60 144 77 213 166 264 c 0
 233 302 362 297 467 331 c 1
 472 353 l 2
 474 364 475 374 475 383 c 0
 475 433 440 458 370 458 c 0xb4
452 259 m 1
 345 218 151 239 151 120 c 0
 151 78 187 60 248 60 c 0
 378 60 426 142 445 228 c 2
 452 259 l 1
EndSplineSet
Validated: 1
EndChar

StartChar: b
Encoding: 98 98 67
Width: 556
VWidth: 2048
Flags: W
HStem: -12 72<233.246 371.749> 0 21G<64 157.375> 458 72<316.691 452.446> 696 20G<211.754 305>
VStem: 490 91<221.632 419.202>
DStem2: 61.4493 -12 150.449 -12 0.207912 0.978148<30.7722 96.2844 502.074 744.224>
LayerCount: 2
Fore
SplineSet
581 348 m 0x78
 581 201 482 -12 288 -12 c 0xb8
 227 -12 190 14 167 64 c 1
 153 0 l 1
 64 0 l 1
 216 716 l 1
 305 716 l 1
 251 461 l 1
 298 507 351 530 409 530 c 0
 520 530 581 461 581 348 c 0x78
297 60 m 0
 424 60 490 222 490 335 c 0
 490 405 462 458 385 458 c 0
 249 458 199 278 199 179 c 0
 199 81 253 60 297 60 c 0
EndSplineSet
Validated: 1
EndChar

StartChar: c
Encoding: 99 99 68
Width: 499
VWidth: 2048
Flags: W
HStem: -12 72<212.57 365.021> 458 72<295.359 441.273>
VStem: 84 89<101.689 303.02> 472 89<366 426.503>
LayerCount: 2
Fore
SplineSet
84 176 m 0
 84 281 145 530 389 530 c 0
 507 530 561 477 561 366 c 1
 472 353 l 1
 472 423 439 458 376 458 c 0
 206 458 173 255 173 182 c 0
 173 101 212 60 287 60 c 0
 362 60 414 104 445 190 c 1
 528 179 l 1
 486 66 394 -12 273 -12 c 0
 147 -12 84 61 84 176 c 0
EndSplineSet
Validated: 1
EndChar

StartChar: d
Encoding: 100 100 69
Width: 556
VWidth: 2048
Flags: W
HStem: -12 72<213.463 344.382> 0 21G<397 490.246> 458 72<280.331 425.364> 696 20G<544.781 638>
VStem: 80 90<105.142 306.356>
DStem2: 394.449 -12 483.449 -12 0.207912 0.978148<30.7722 77.7803 482.591 744.224>
LayerCount: 2
Fore
SplineSet
80 180 m 0xb8
 80 316 166 530 367 530 c 0
 427 530 470 507 495 460 c 1
 549 716 l 1
 638 716 l 1
 486 0 l 1
 397 0 l 1x78
 411 64 l 1
 366 14 319 -12 255 -12 c 0
 140 -12 80 67 80 180 c 0xb8
278 60 m 0xb8
 424 60 460 261 460 337 c 0
 460 401 438 458 359 458 c 0
 206 458 170 262 170 188 c 0
 170 88 231 60 278 60 c 0xb8
EndSplineSet
Validated: 1
EndChar

StartChar: e
Encoding: 101 101 70
Width: 556
VWidth: 2048
Flags: W
HStem: -12 72<223.373 376.106> 238 72<198 489.881> 458 72<294.221 452.404>
VStem: 82 92<110.051 237.528> 490 89<310.943 421.843>
LayerCount: 2
Fore
SplineSet
82 173 m 0
 82 297 158 530 392 530 c 0
 516 530 579 459 579 344 c 0
 579 302 575 290 564 238 c 1
 178 238 l 1
 176 222 174 208 174 194 c 0
 174 114 214 60 298 60 c 0
 364 60 415 97 457 167 c 1
 545 156 l 1
 490 44 403 -12 281 -12 c 0
 152 -12 82 53 82 173 c 0
198 310 m 1
 488 310 l 1
 490 323 490 334 490 345 c 0
 490 420 452 458 378 458 c 0
 289 458 222 393 198 310 c 1
EndSplineSet
Validated: 1
EndChar

StartChar: f
Encoding: 102 102 71
Width: 277
VWidth: 2048
Flags: W
HStem: 0 21G<87 180.257> 451 67<119 183 286 372> 656 72<327.236 442.009>
DStem2: 87 0 176 0 0.207912 0.978148<18.5041 461.104 548.055 676.624>
LayerCount: 2
Fore
SplineSet
387 656 m 0
 329 656 310 626 297 567 c 2
 286 518 l 1
 386 518 l 1
 372 451 l 1
 272 451 l 1
 176 0 l 1
 87 0 l 1
 183 451 l 1
 105 451 l 1
 119 518 l 1
 197 518 l 1
 209 575 l 2
 228 663 271 728 385 728 c 0
 411 728 438 725 466 720 c 1
 437 650 l 1
 421 655 403 656 387 656 c 0
EndSplineSet
Validated: 1
EndChar

StartChar: g
Encoding: 103 103 72
Width: 556
VWidth: 2048
Flags: W
HStem: -210 72<146.248 318.116> 0 72<206.221 347.685> 458 72<285.376 427.172> 498 20G<505.738 599>
VStem: 36 87<-114.629 -55> 79 90<110.161 308.202>
DStem2: 355.122 -210 444.272 -210 0.207912 0.978148<142.656 283.188 681.923 744.292>
LayerCount: 2
Fore
SplineSet
79 187 m 0xd4
 79 326 173 530 369 530 c 0xe4
 432 530 467 506 497 457 c 1
 510 518 l 1
 599 518 l 1
 504 71 l 2
 466 -106 397 -210 211 -210 c 0
 105 -210 36 -172 36 -89 c 0
 36 -75 38 -60 42 -43 c 1
 123 -55 l 1
 123 -63 l 2xd8
 123 -113 157 -138 225 -138 c 0
 359 -138 387 -59 414 67 c 1
 367 23 314 0 256 0 c 0
 142 0 79 75 79 187 c 0xd4
280 72 m 0
 427 72 464 268 464 336 c 0
 464 408 433 458 361 458 c 0
 233 458 169 307 169 191 c 0
 169 112 206 72 280 72 c 0
EndSplineSet
Validated: 1
EndChar

StartChar: h
Encoding: 104 104 73
Width: 556
VWidth: 2048
Flags: W
HStem: 0 21G<66 159.225 400 493.268> 458 72<325.335 451.941> 696 20G<213.754 307>
VStem: 475 94<276.75 434.633>
DStem2: 66 0 155 0 0.207912 0.978148<18.5041 431.708 488.827 731.956> 400 0 489 0 0.207912 0.978148<18.5041 379.8>
LayerCount: 2
Fore
SplineSet
388 458 m 0
 279 458 236 385 215 284 c 2
 155 0 l 1
 66 0 l 1
 218 716 l 1
 307 716 l 1
 253 460 l 1
 303 507 360 530 423 530 c 0
 527 530 569 489 569 408 c 0
 569 385 565 358 559 328 c 2
 489 0 l 1
 400 0 l 1
 470 328 l 2
 474 345 475 359 475 373 c 0
 475 428 446 458 388 458 c 0
EndSplineSet
Validated: 1
EndChar

StartChar: i
Encoding: 105 105 74
Width: 222
VWidth: 2048
Flags: W
HStem: 0 21G<66 159.247> 498 20G<171.753 265> 615 101<218 286>
VStem: 66 241
DStem2: 66 0 155 0 0.207912 0.978148<18.5041 529.551 647.301 731.956>
LayerCount: 2
Fore
SplineSet
197 615 m 1
 218 716 l 1
 307 716 l 1
 286 615 l 1
 197 615 l 1
66 0 m 1
 176 518 l 1
 265 518 l 1
 155 0 l 1
 66 0 l 1
EndSplineSet
Validated: 1
EndChar

StartChar: j
Encoding: 106 106 75
Width: 222
VWidth: 2048
Flags: W
HStem: -210 72<-62.8158 23.9744> 498 20G<169.735 263> 615 101<216 284>
DStem2: 18.8896 -210 108.527 -210 0.207912 0.978148<82.3172 744.341 862.091 946.746>
LayerCount: 2
Fore
SplineSet
195 615 m 1
 216 716 l 1
 305 716 l 1
 284 615 l 1
 195 615 l 1
147 -29 m 2
 116 -177 56 -210 -22 -210 c 0
 -45 -210 -67 -207 -89 -201 c 1
 -57 -132 l 1
 -41 -135 -27 -138 -17 -138 c 0
 33 -138 48 -72 58 -26 c 2
 174 518 l 1
 263 518 l 1
 147 -29 l 2
EndSplineSet
Validated: 1
EndChar

StartChar: k
Encoding: 107 107 76
Width: 499
VWidth: 2048
Flags: W
HStem: 0 21G<66 159.293 379.245 497> 498 20G<448 587> 696 20G<213.754 307>
DStem2: 66 0 155 0 0.207912 0.978148<18.5041 228.173 333.288 731.956> 220 308 272 265 0.778318 0.62787<0 13.4741 109.37 327.989> 346 326 272 265 0.420293 -0.907388<24.249 313.461>
LayerCount: 2
Fore
SplineSet
66 0 m 1
 218 716 l 1
 307 716 l 1
 220 308 l 1
 472 518 l 1
 587 518 l 1
 346 326 l 1
 497 0 l 1
 388 0 l 1
 272 265 l 1
 199 205 l 1
 155 0 l 1
 66 0 l 1
EndSplineSet
Validated: 1
EndChar

StartChar: l
Encoding: 108 108 77
Width: 222
VWidth: 2048
Flags: W
HStem: 0 21G<64 157.246> 696 20G<211.754 305>
VStem: 64 241
DStem2: 64 0 153 0 0.207912 0.978148<18.5041 731.956>
LayerCount: 2
Fore
SplineSet
64 0 m 1
 216 716 l 1
 305 716 l 1
 153 0 l 1
 64 0 l 1
EndSplineSet
Validated: 1
EndChar

StartChar: m
Encoding: 109 109 78
Width: 832
VWidth: 2048
Flags: W
HStem: 0 21G<66 159.222 374 467.238 680 773.27> 458 72<320.034 433.249 630.912 739.266> 498 20G<171.753 265>
VStem: 756 96<289.797 441.92>
DStem2: 66 0 155 0 0.207912 0.978148<18.5041 430.42 474.51 529.551> 374 0 463 0 0.207912 0.978148<18.5041 389.064> 680 0 769 0 0.207912 0.978148<18.5041 387.74>
LayerCount: 2
Fore
SplineSet
379 458 m 0xd0
 272 458 233 371 212 270 c 2
 155 0 l 1
 66 0 l 1
 176 518 l 1
 265 518 l 1xb0
 250 446 l 1
 288 503 346 530 415 530 c 0
 492 530 533 500 542 440 c 1
 596 500 656 530 722 530 c 0
 809 530 852 491 852 415 c 0
 852 397 850 378 845 356 c 2
 769 0 l 1
 680 0 l 1
 749 326 l 2
 753 347 756 365 756 381 c 0
 756 432 733 458 686 458 c 0
 601 458 548 403 527 302 c 2
 463 0 l 1
 374 0 l 1
 446 337 l 2
 450 354 451 369 451 382 c 0
 451 431 427 458 379 458 c 0xd0
EndSplineSet
Validated: 1
EndChar

StartChar: n
Encoding: 110 110 79
Width: 556
VWidth: 2048
Flags: W
HStem: 0 21G<66 159.225 398 491.269> 458 72<321.946 449.573> 498 20G<171.753 264>
VStem: 472 95<274.516 435.038>
DStem2: 66 0 155 0 0.207912 0.978148<18.5041 427.337 474.302 529.551> 398 0 487 0 0.207912 0.978148<18.5041 377.542>
LayerCount: 2
Fore
SplineSet
66 0 m 1xd0
 176 518 l 1
 264 518 l 1xb0
 249 446 l 1
 288 503 351 530 424 530 c 0
 519 530 567 488 567 405 c 0
 567 386 565 365 560 342 c 2
 487 0 l 1
 398 0 l 1
 465 316 l 2
 469 336 472 355 472 371 c 0
 472 428 444 458 388 458 c 0
 298 458 239 397 215 284 c 2
 155 0 l 1
 66 0 l 1xd0
EndSplineSet
Validated: 1
EndChar

StartChar: o
Encoding: 111 111 80
Width: 556
VWidth: 2048
Flags: W
HStem: -12 72<214.075 371.278> 458 72<290.209 445.862>
VStem: 79 90<106.664 306.018> 494 90<213.588 409.144>
LayerCount: 2
Fore
SplineSet
584 338 m 0
 584 204 497 -12 273 -12 c 0
 121 -12 79 85 79 181 c 0
 79 331 177 530 389 530 c 0
 518 530 584 455 584 338 c 0
289 60 m 0
 453 60 494 253 494 325 c 0
 494 405 454 458 373 458 c 0
 230 458 169 297 169 192 c 0
 169 123 197 60 289 60 c 0
EndSplineSet
Validated: 1
EndChar

StartChar: p
Encoding: 112 112 81
Width: 556
VWidth: 2048
Flags: W
HStem: -199 21G<24 117.19> -12 72<230.8 369.96> 458 72<319.03 450.788> 498 20G<171.76 265>
VStem: 490 91<223.213 418.018>
DStem2: 24 -199 113 -199 0.207912 0.978148<18.5041 276.995 682.992 732.934>
LayerCount: 2
Fore
SplineSet
581 348 m 0xe8
 581 189 473 -12 287 -12 c 0
 232 -12 191 11 166 54 c 1
 113 -199 l 1
 24 -199 l 1
 176 518 l 1
 265 518 l 1xd8
 251 451 l 1
 291 504 348 530 409 530 c 0
 525 530 581 458 581 348 c 0xe8
298 60 m 0
 435 60 490 237 490 334 c 0
 490 408 457 458 385 458 c 0xe8
 252 458 199 271 199 173 c 0
 199 109 224 60 298 60 c 0
EndSplineSet
Validated: 1
EndChar

StartChar: q
Encoding: 113 113 82
Width: 556
VWidth: 2048
Flags: W
HStem: -199 21G<354 447.24> -12 72<216.485 347.115> 458 72<289.249 423.944> 498 20G<501.652 595>
VStem: 84 89<103.856 303.868>
DStem2: 354 -199 443 -199 0.207912 0.978148<18.5041 259.677 662.324 732.934>
LayerCount: 2
Fore
SplineSet
84 184 m 0xd8
 84 320 169 530 367 530 c 0xe8
 432 530 475 504 491 449 c 1
 506 518 l 1
 595 518 l 1
 443 -199 l 1
 354 -199 l 1
 408 55 l 1
 367 11 316 -12 258 -12 c 0
 143 -12 84 70 84 184 c 0xd8
281 60 m 0
 424 60 459 261 459 334 c 0
 459 406 431 458 359 458 c 0
 228 458 173 286 173 187 c 0
 173 86 234 60 281 60 c 0
EndSplineSet
Validated: 1
EndChar

StartChar: r
Encoding: 114 114 83
Width: 332
VWidth: 2048
Flags: W
HStem: 0 21G<64 157.28> 458 72<308.913 423.081> 498 20G<169.753 263>
DStem2: 64 0 153 0 0.207912 0.978148<18.5041 430.064 468.433 529.551>
LayerCount: 2
Fore
SplineSet
64 0 m 1xc0
 174 518 l 1
 263 518 l 1xa0
 247 440 l 1
 285 500 328 530 369 530 c 0
 400 530 427 521 453 503 c 1
 410 438 l 1
 392 452 371 458 350 458 c 0
 295 458 239 402 211 271 c 2
 153 0 l 1
 64 0 l 1xc0
EndSplineSet
Validated: 1
EndChar

StartChar: s
Encoding: 115 115 84
Width: 499
VWidth: 2048
Flags: W
HStem: -12 72<185.919 359.909> 458 72<249.085 412.362>
VStem: 64 89<91.6995 155> 123 94<343.98 428.467> 404 93<103.394 191.423> 436 89<385 435.268>
LayerCount: 2
Fore
SplineSet
266 60 m 0xe8
 387 60 404 129 404 157 c 0xe8
 404 199 354 206 291 222 c 0
 198 246 123 270 123 349 c 0
 123 425 185 530 349 530 c 0
 498 530 525 467 525 397 c 0
 525 393 525 389 525 385 c 1
 435 374 l 1
 435 377 436 379 436 382 c 0
 436 432 403 458 339 458 c 0
 235 458 217 410 217 378 c 0xd4
 217 346 248 334 311 316 c 0
 407 289 497 273 497 186 c 0
 497 67 380 -12 250 -12 c 0
 125 -12 64 40 64 145 c 2
 64 155 l 1
 154 169 l 1
 154 164 153 159 153 154 c 0
 153 92 192 60 266 60 c 0xe8
EndSplineSet
Validated: 1
EndChar

StartChar: t
Encoding: 116 116 85
Width: 277
VWidth: 2048
Flags: W
HStem: -6 72<199.199 271> 451 67<128 178 281 354>
VStem: 102 95<43.8718 194.273>
DStem2: 80.4161 -6 169.479 -6 0.207912 0.978148<132.387 467.302 554.253 667.752>
LayerCount: 2
Fore
SplineSet
202 147 m 2
 198 130 197 116 197 104 c 0
 197 78 207 66 233 66 c 0
 244 66 257 68 273 69 c 1
 271 0 l 1
 244 -5 223 -6 203 -6 c 0
 126 -6 102 20 102 69 c 0
 102 92 107 120 114 152 c 2
 178 451 l 1
 114 451 l 1
 128 518 l 1
 192 518 l 1
 220 647 l 1
 320 700 l 1
 281 518 l 1
 368 518 l 1
 354 451 l 1
 267 451 l 1
 202 147 l 2
EndSplineSet
Validated: 1
EndChar

StartChar: u
Encoding: 117 117 86
Width: 556
VWidth: 2048
Flags: W
HStem: -12 72<206.857 333.532> 0 21G<395 488.247> 498 20G<169.75 263 500.74 594>
VStem: 95 95<78.0781 248.469>
DStem2: 61.3631 -12 150.349 -12 0.207912 0.978148<176.529 541.837> 392.449 -12 481.449 -12 0.207912 0.978148<30.7722 90.912 129.755 541.819>
LayerCount: 2
Fore
SplineSet
272 60 m 0xb0
 382 60 423 133 446 241 c 2
 505 518 l 1
 594 518 l 1
 484 0 l 1
 395 0 l 1x70
 411 77 l 1
 369 17 308 -12 238 -12 c 0
 138 -12 95 28 95 112 c 0
 95 137 99 165 106 198 c 2
 174 518 l 1
 263 518 l 1
 202 231 l 2
 194 194 190 164 190 140 c 0
 190 85 213 60 272 60 c 0xb0
EndSplineSet
Validated: 1
EndChar

StartChar: v
Encoding: 118 118 87
Width: 499
VWidth: 2048
Flags: W
HStem: 0 21G<206.602 302.892> 498 20G<122 218.95 497.3 599>
DStem2: 216 518 122 518 0.167485 -0.985875<0 404.231> 275 118 291 0 0.511075 0.859536<0 463.406>
LayerCount: 2
Fore
SplineSet
210 0 m 1
 122 518 l 1
 216 518 l 1
 275 118 l 1
 509 518 l 1
 599 518 l 1
 291 0 l 1
 210 0 l 1
EndSplineSet
Validated: 1
EndChar

StartChar: w
Encoding: 119 119 88
Width: 721
VWidth: 2048
Flags: W
HStem: 0 21G<159.147 263.524 460.148 562.502> 498 20G<113 205.265 417.414 518.905 729.749 824>
VStem: 444 74<363.222 399> 461 75<120 164.294>
DStem2: 204 518 113 518 0.0922688 -0.995734<0 411.646> 230 107 254 0 0.432232 0.901763<0 355.812> 536 120 552 0 0.464901 0.885363<0 447.214>
LayerCount: 2
Fore
SplineSet
161 0 m 1xe0
 113 518 l 1
 204 518 l 1
 230 107 l 1
 427 518 l 1
 518 518 l 1xe0
 536 120 l 1
 740 518 l 1
 824 518 l 1
 552 0 l 1
 461 0 l 1xd0
 444 399 l 1
 254 0 l 1
 161 0 l 1xe0
EndSplineSet
Validated: 1
EndChar

StartChar: x
Encoding: 120 120 89
Width: 499
VWidth: 2048
Flags: W
HStem: 0 21G<8 131.342 375.155 494> 498 20G<131 251.767 465.628 588>
DStem2: 8 0 113 0 0.676625 0.736328<71.0457 332.92 469.936 703.491> 242 518 131 518 0.440267 -0.897867<0 191.416 312.94 528.053>
LayerCount: 2
Fore
SplineSet
8 0 m 1
 254 268 l 1
 131 518 l 1
 242 518 l 1
 326 346 l 1
 484 518 l 1
 588 518 l 1
 362 271 l 1
 494 0 l 1
 385 0 l 1
 290 193 l 1
 113 0 l 1
 8 0 l 1
EndSplineSet
Validated: 1
EndChar

StartChar: y
Encoding: 121 121 90
Width: 499
VWidth: 2048
Flags: W
HStem: -210 72<24.2126 133.294> 498 20G<127 223.077 501.477 602>
DStem2: 220 518 127 518 0.163781 -0.986497<0 421.943> 164 -83 292 -9 0.50702 0.861934<-67.8437 96.3845 215.393 694.972>
LayerCount: 2
Fore
SplineSet
21 -199 m 1
 24 -130 l 1
 43 -135 58 -138 74 -138 c 0
 114 -138 147 -112 164 -83 c 2
 164 -83 210 -7 213 0 c 1
 127 518 l 1
 220 518 l 1
 266 219 l 2
 273 175 276 135 277 98 c 1
 297 138 315 176 339 216 c 2
 513 518 l 1
 602 518 l 1
 292 -9 l 2
 234 -107 177 -210 75 -210 c 0
 58 -210 39 -207 21 -199 c 1
EndSplineSet
Validated: 1
EndChar

StartChar: z
Encoding: 122 122 91
Width: 499
VWidth: 2048
Flags: W
HStem: 0 72<139.921 478> 446 72<148 442>
DStem2: 35 71 138 68 0.732608 0.68065<73.4167 555.457>
LayerCount: 2
Fore
SplineSet
20 0 m 1
 35 71 l 1
 442 449 l 1
 406 447 374 446 346 446 c 2
 133 446 l 1
 148 518 l 1
 573 518 l 1
 561 461 l 1
 138 68 l 1
 179 71 219 72 254 72 c 2
 493 72 l 1
 478 0 l 1
 20 0 l 1
EndSplineSet
Validated: 1
EndChar

StartChar: braceleft
Encoding: 123 123 92
Width: 334
VWidth: 2048
Flags: W
HStem: -210 77<202.23 266> 219 80<92 126.831> 651 77<358.712 449>
VStem: 112 86<-126.42 11.9219> 149 82<-14.9697 198.058>
CounterMasks: 1 e0
LayerCount: 2
Fore
SplineSet
198 -96 m 0xf0
 198 -118 212 -133 268 -133 c 2
 283 -133 l 1
 266 -210 l 1
 239 -210 l 2
 191 -210 159 -202 140 -184 c 0
 123 -168 112 -145 112 -119 c 0xf0
 112 -114 112 -109 113 -103 c 2
 142 58 l 2
 147 83 149 105 149 124 c 0
 149 186 125 218 75 219 c 1
 92 299 l 1
 158 300 202 354 228 460 c 2
 267 621 l 2
 275 654 300 682 328 702 c 0
 354 721 391 728 439 728 c 2
 466 728 l 1
 449 651 l 1
 434 651 l 2
 394 651 370 644 355 625 c 0
 345 612 331 562 314 480 c 0
 288 359 239 287 164 259 c 1
 209 239 231 197 231 131 c 0xe8
 231 57 198 -39 198 -96 c 0xf0
EndSplineSet
Validated: 1
EndChar

StartChar: bar
Encoding: 124 124 93
Width: 259
VWidth: 2048
Flags: W
HStem: -210 21G<47 128.264> 708 20G<242.736 324>
VStem: 47 277
DStem2: 47 -210 124 -210 0.207912 0.978148<16.0092 959.085>
LayerCount: 2
Fore
SplineSet
47 -210 m 1
 247 728 l 1
 324 728 l 1
 124 -210 l 1
 47 -210 l 1
EndSplineSet
Validated: 1
EndChar

StartChar: braceright
Encoding: 125 125 94
Width: 334
VWidth: 2048
Flags: W
HStem: -210 77<-4 86.2881> 219 80<319.077 354> 651 77<179 242.77>
VStem: 214 82<320.631 532.97> 247 86<506.078 644.42>
CounterMasks: 1 e0
LayerCount: 2
Fore
SplineSet
247 614 m 0xe8
 247 636 233 651 177 651 c 2
 162 651 l 1
 179 728 l 1
 206 728 l 2
 254 728 286 720 305 702 c 0
 322 686 333 663 333 637 c 0xe8
 333 632 333 627 332 621 c 2
 303 460 l 2
 298 435 296 413 296 394 c 0
 296 332 321 300 371 299 c 1
 354 219 l 1
 288 218 243 164 217 58 c 2
 178 -103 l 2
 170 -136 145 -164 117 -184 c 0
 91 -203 54 -210 6 -210 c 2
 -21 -210 l 1
 -4 -133 l 1
 11 -133 l 2
 51 -133 75 -126 90 -107 c 0
 100 -94 114 -44 131 38 c 0
 157 159 206 231 281 259 c 1
 236 279 214 321 214 387 c 0xf0
 214 461 247 557 247 614 c 0xe8
EndSplineSet
Validated: 1
EndChar

StartChar: asciitilde
Encoding: 126 126 95
Width: 583
VWidth: 2048
Flags: W
HStem: 281 84<418.783 559.722> 347 84<177.118 324.407>
LayerCount: 2
Fore
SplineSet
468 281 m 0x80
 385 281 314 347 244 347 c 0x40
 204 347 158 324 103 281 c 1x80
 122 372 l 1
 164 411 215 431 270 431 c 0x40
 356 431 433 365 493 365 c 0
 538 365 584 388 635 432 c 1
 614 336 l 1
 566 299 518 281 468 281 c 0x80
EndSplineSet
Validated: 1
EndChar

StartChar: ellipsis
Encoding: 8230 8230 100
Width: 570
VWidth: 2048
Flags: W
HStem: 0 118<85.4504 166.784 272.45 353.784 460.372 542.395>
VStem: 67 120<19.4336 99.5569> 254 120<19.4336 99.5569> 443 119<20.1554 100.011>
LayerCount: 2
Fore
SplineSet
562 77 m 0
 562 51 549 0 489 0 c 0
 459 0 443 16 443 47 c 0
 443 73 457 118 514 118 c 0
 545 118 562 104 562 77 c 0
374 77 m 0
 374 53 363 0 300 0 c 0
 270 0 254 17 254 49 c 0
 254 71 268 118 325 118 c 0
 357 118 374 104 374 77 c 0
187 77 m 0
 187 53 176 0 113 0 c 0
 83 0 67 17 67 49 c 0
 67 71 81 118 138 118 c 0
 170 118 187 104 187 77 c 0
EndSplineSet
Validated: 1
EndChar

StartChar: uni0E48.low_left
Encoding: 63237 63237 101
Width: 0
Flags: W
HStem: 665 222<-99 -78>
VStem: -147 117
DStem2: -147 665 -78 665 0.207912 0.978148<14.3459 227.129>
LayerCount: 2
Back
SplineSet
-106 665 m 1
 -175 665 l 1
 -127 887 l 1
 -58 887 l 1
 -106 665 l 1
EndSplineSet
Fore
Refer: 106 63242 N 1 0 0 1 -99 0 2
Validated: 1
EndChar

StartChar: uni0E49.low_left
Encoding: 63238 63238 102
Width: 0
Flags: W
HStem: 798 42<-346.608 -302.383> 932 43<-335.953 -259.128>
VStem: -399 49<843.568 919.036> -256 48<851.683 929.583>
LayerCount: 2
Back
SplineSet
-15 796 m 1
 -15 796 l 0
 -51 757 -86 727 -161 696 c 0
 -213 674 -259 667 -297 667 c 0
 -317 667 -334 668 -351 671 c 1
 -336 679 -320 693 -308 707 c 0
 -299 717 -284 733 -282 740 c 1
 -288 740 -293 739 -297 739 c 0
 -325 739 -340 750 -354 766 c 0
 -360 774 -363 785 -363 797 c 0
 -363 838 -331 892 -274 900 c 0
 -267 901 -261 901 -254 901 c 0
 -205 901 -190 868 -190 835 c 0
 -190 831 -190 828 -190 823 c 0
 -196 768 -244 717 -247 717 c 0
 -199 727 -169 740 -127 768 c 0
 -69 803 -38 832 5 891 c 1
 -15 796 l 1
-285 777 m 0
 -253 777 -235 805 -235 829 c 0
 -235 846 -245 861 -268 861 c 0
 -300 861 -320 834 -320 811 c 0
 -320 792 -310 777 -285 777 c 0
EndSplineSet
Fore
Refer: 107 63243 N 1 0 0 1 -199 0 2
Validated: 1
EndChar

StartChar: uni0E4C.low_left
Encoding: 63241 63241 105
Width: 0
Flags: W
HStem: 667 43<-169.748 -92.9526> 802 41<-160.244 -84.696>
VStem: -238 65<713.4 813.162> -81 48<720.289 799.46>
LayerCount: 2
Back
SplineSet
67 972 m 1
 67 972 l 0
 61 960 54 917 -3 889 c 0
 -71 855 -143 877 -201 851 c 0
 -231 837 -238 812 -241 809 c 1
 -224 820 -213 826 -185 826 c 0
 -150 826 -124 802 -124 766 c 0
 -124 760 -124 756 -126 750 c 0
 -136 699 -179 670 -224 668 c 0
 -228 668 l 0
 -281 668 -308 707 -308 754 c 0
 -308 773 -303 792 -294 812 c 0
 -258 891 -192 912 -90 912 c 0
 -11 912 -8 969 -2 972 c 1
 67 972 l 1
-218 707 m 0
 -187 707 -167 733 -167 756 c 0
 -167 774 -178 789 -202 789 c 0
 -233 789 -251 762 -251 739 c 0
 -251 722 -241 707 -218 707 c 0
EndSplineSet
Fore
Refer: 110 63246 S 1 0 0 1 -99 0 2
Validated: 1
EndChar

StartChar: uni0E48.low
Encoding: 63242 63242 106
Width: 0
Flags: W
HStem: 665 222<0 21>
VStem: -48 117
DStem2: -48 665 21 665 0.207912 0.978148<14.3459 227.129>
AnchorPoint: "AboveMark" 56 988 basemark 0
AnchorPoint: "AboveBase" 27 659 mark 0
LayerCount: 2
Fore
SplineSet
21 665 m 1
 -48 665 l 1
 -0 887 l 1
 69 887 l 1
 21 665 l 1
EndSplineSet
Validated: 1
Substitution2: "Thai Phinthu Mai Ek Reordering" uni0E3A
EndChar

StartChar: uni0E49.low
Encoding: 63243 63243 107
Width: 0
Flags: W
HStem: 798 42<-147.608 -103.383> 932 43<-136.953 -60.1278>
VStem: -200 49<843.568 919.036> -57 48<851.683 929.583>
AnchorPoint: "AboveMark" 19 988 basemark 0
AnchorPoint: "AboveBase" 127 659 mark 0
LayerCount: 2
Fore
SplineSet
-9 902 m 0
 -9 838 -64 774 -93 742 c 1
 71 756 166 872 200 926 c 1
 177 820 l 1
 173 810 66 686 -116 686 c 0
 -155 686 -190 692 -215 705 c 1
 -165 730 -116 788 -114 799 c 1
 -119 798 -124 798 -129 798 c 0
 -165 798 -200 821 -200 865 c 0
 -200 913 -161 975 -80 975 c 0
 -24 975 -9 936 -9 902 c 0
-93 932 m 0
 -129 932 -151 902 -151 876 c 0
 -151 857 -138 840 -112 840 c 0
 -78 840 -57 870 -57 897 c 0
 -57 916 -68 932 -93 932 c 0
EndSplineSet
Validated: 1
Substitution2: "Thai Phinthu Mai Tho Reordering" uni0E3A
EndChar

StartChar: uni0E4A.low
Encoding: 63244 63244 108
Width: 0
Flags: W
HStem: 661 32<-182.565 -130.451> 753 32<-176.042 -123.477> 832 49<-164.763 -71.6798 -48.4631 21.0696>
VStem: -236 52<693.237 780.534> -122 34<700.739 751.678> 24 56<738.56 832.187>
AnchorPoint: "AboveMark" -33 988 basemark 0
AnchorPoint: "AboveBase" 127 659 mark 0
LayerCount: 2
Fore
SplineSet
-236 739 m 0
 -236 802 -191 881 -119 881 c 0
 -93 881 -72 867 -64 845 c 1
 -43 868 -15 881 15 881 c 0
 57 881 80 848 80 810 c 0
 80 789 73 752 35 705 c 1
 129 750 154 842 161 874 c 1
 202 831 l 1
 173 756 88 665 -32 665 c 2
 -48 665 l 1
 -30 675 24 729 24 791 c 0
 24 813 15 835 -13 835 c 0
 -40 835 -65 816 -70 809 c 1
 -72 816 -95 832 -119 832 c 0
 -143 832 -177 813 -184 771 c 1
 -168 780 -156 785 -133 785 c 0
 -104 785 -88 764 -88 739 c 0
 -88 702 -121 661 -170 661 c 0
 -214 661 -236 695 -236 739 c 0
-161 693 m 0
 -138 693 -122 713 -122 730 c 0
 -122 742 -130 753 -147 753 c 0
 -169 753 -184 732 -184 715 c 0
 -184 703 -178 693 -161 693 c 0
EndSplineSet
Validated: 1
Substitution2: "Thai Phinthu Mai Tri Reordering" uni0E3A
EndChar

StartChar: uni0E4B.low
Encoding: 63245 63245 109
Width: 0
Flags: W
HStem: 752 66<-93 -25 58 126>
VStem: -107 247
DStem2: -43 668 26 668 0.207912 0.978148<14.3459 85.9068 167.721 239.282>
AnchorPoint: "AboveMark" 60 988 basemark 0
AnchorPoint: "AboveBase" 127 659 mark 0
LayerCount: 2
Fore
SplineSet
140 818 m 1
 126 752 l 1
 44 752 l 1
 26 668 l 1
 -43 668 l 1
 -25 752 l 1
 -107 752 l 1
 -93 818 l 1
 -11 818 l 1
 7 902 l 1
 76 902 l 1
 58 818 l 1
 140 818 l 1
EndSplineSet
Validated: 1
Substitution2: "Thai Phinthu Mai Chattawa Reordering" uni0E3A
EndChar

StartChar: uni0E4C.low
Encoding: 63246 63246 110
Width: 0
Flags: W
HStem: 667 43<-70.7483 6.04736> 802 41<-61.2438 14.304>
VStem: -139 65<713.4 813.162> 18 48<720.289 799.46>
AnchorPoint: "AboveMark" 23 988 basemark 0
AnchorPoint: "AboveBase" 27 659 mark 0
LayerCount: 2
Fore
SplineSet
66 777 m 0
 66 717 11 667 -47 667 c 0
 -106 667 -139 711 -139 763 c 0
 -139 782 -133 809 -123 828 c 0
 -80 915 -7 938 105 940 c 0
 194 941 198 1002 203 1006 c 1
 278 1006 l 1
 272 992 264 946 202 914 c 0
 128 875 48 901 -19 871 c 0
 -52 856 -60 829 -63 825 c 1
 -43 837 -34 843 -2 843 c 0
 37 843 66 817 66 777 c 0
-19 802 m 0
 -54 802 -74 772 -74 747 c 0
 -74 731 -66 710 -34 710 c 0
 -2 710 18 738 18 765 c 0
 18 785 6 802 -19 802 c 0
EndSplineSet
Validated: 1
Substitution2: "Thai Phinthu Thanthakhat Reordering" uni0E3A
EndChar

StartChar: uni0E0D.descless
Encoding: 63247 63247 111
Width: 800
Flags: W
HStem: -3 50<163.616 241.915> 0 61<366 408 477 640.483> 138 50<191.521 252.258> 532 61<264.167 468.991>
VStem: 101 59<49.9034 125.034> 255 52<60.4162 135.206> 492 70<362.172 509.006>
DStem2: 82.1067 -3 151.677 -3 0.207912 0.978148<203.598 405.637> 394.396 -3 463.396 -3 0.207912 0.978148<79.7757 477.79> 626.682 -3 694.933 -3 0.207912 0.978148<65.6685 606.097>
LayerCount: 2
Fore
SplineSet
307 119 m 0x7e
 307 59 257 -3 183 -3 c 0xbe
 123 -3 101 31 101 72 c 0
 101 81 102 90 104 100 c 2
 151 322 l 2
 165 390 232 426 232 426 c 1
 203 460 136 483 110 487 c 1
 136 513 248 593 400 593 c 0
 513 593 562 541 562 477 c 0
 562 468 561 458 559 448 c 2
 477 61 l 1
 603 61 l 2
 623 61 643 72 649 102 c 2
 752 590 l 1
 821 590 l 1
 713 82 l 2
 698 12 640 0 615 0 c 2
 353 0 l 1
 366 61 l 1
 408 61 l 1
 490 445 l 2
 491 452 492 459 492 465 c 0
 492 506 459 532 363 532 c 0
 284 532 235 501 235 501 c 1
 263 501 344 423 344 423 c 1
 331 423 237 400 217 308 c 2
 191 182 l 1
 191 182 207 188 229 188 c 0
 258 188 307 173 307 119 c 0x7e
217 138 m 0
 182 138 160 109 160 83 c 0
 160 64 172 47 198 47 c 0
 232 47 255 76 255 103 c 0
 255 121 243 138 217 138 c 0
EndSplineSet
Validated: 1
EndChar

StartChar: quoteleft
Encoding: 8216 8216 112
Width: 268
Flags: W
HStem: 571 20G<238 256> 679 40<277.516 313>
VStem: 142 155<479.183 577.603>
LayerCount: 2
Fore
SplineSet
297 538 m 0
 297 513 278 446 203 446 c 0
 175 446 142 459 142 508 c 0
 142 566 194 694 322 719 c 1
 313 679 l 1
 276 671 230 627 222 589 c 1
 228 591 235 591 241 591 c 0
 271 591 297 573 297 538 c 0
EndSplineSet
Validated: 1
EndChar

StartChar: quoteright
Encoding: 8217 8217 113
Width: 278
Flags: W
HStem: 455 40<180 217.145> 708 20G<263.5 305>
VStem: 197 157<593.59 694.507>
LayerCount: 2
Fore
SplineSet
197 637 m 0
 197 685 235 728 292 728 c 0
 318 728 354 717 354 667 c 0
 354 609 302 482 172 455 c 1
 180 495 l 1
 215 502 263 545 272 586 c 1
 266 584 258 583 252 583 c 0
 223 583 197 602 197 637 c 0
EndSplineSet
Validated: 1
EndChar

StartChar: quotedblleft
Encoding: 8220 8220 114
Width: 484
Flags: W
HStem: 444 144<238.283 280.647 468.327 510.091> 676 40<286.496 329 520.504 559>
VStem: 159 155<477.435 580.463> 386 158<478.159 574.973>
LayerCount: 2
Fore
SplineSet
544 537 m 0
 544 509 525 444 447 444 c 0
 421 444 386 456 386 505 c 0
 386 572 449 693 567 716 c 1
 559 676 l 1
 523 668 476 622 468 586 c 1
 475 588 481 588 487 588 c 0
 509 588 544 577 544 537 c 0
314 537 m 0
 314 509 295 446 220 446 c 0
 194 446 159 458 159 508 c 0
 159 572 218 695 338 719 c 1
 329 679 l 1
 293 671 246 625 238 589 c 1
 244 591 252 591 258 591 c 0
 288 591 314 573 314 537 c 0
EndSplineSet
Validated: 1
EndChar

StartChar: quotedblright
Encoding: 8221 8221 115
Width: 531
Flags: W
HStem: 452 40<191 221.329 421 456.154> 580 145<235.117 282.672 467.933 511.717>
VStem: 206 159<595.392 694.507> 435 156<591.944 691.368>
LayerCount: 2
Fore
SplineSet
435 634 m 0
 435 676 468 725 531 725 c 0
 556 725 591 712 591 662 c 0
 591 602 539 478 412 452 c 1
 421 492 l 1
 455 499 504 544 512 582 c 1
 506 580 498 580 492 580 c 0
 462 580 435 598 435 634 c 0
206 636 m 0
 206 680 239 728 302 728 c 0
 329 728 365 717 365 667 c 0
 365 605 307 480 183 455 c 1
 191 495 l 1
 229 504 275 550 283 586 c 1
 276 584 269 583 263 583 c 0
 243 583 206 595 206 636 c 0
EndSplineSet
Validated: 1
EndChar

StartChar: bullet
Encoding: 8226 8226 116
Width: 528
Flags: W
HStem: 98 336<273.653 381.347>
VStem: 156 343<217.361 314.639>
LayerCount: 2
Fore
SplineSet
499 305 m 0
 499 205 416 98 292 98 c 0
 198 98 156 158 156 227 c 0
 156 327 239 434 363 434 c 0
 457 434 499 374 499 305 c 0
EndSplineSet
Validated: 1
EndChar

StartChar: endash
Encoding: 8211 8211 117
Width: 548
Flags: W
HStem: 258 68<110 578>
LayerCount: 2
Fore
SplineSet
578 258 m 1
 96 258 l 1
 110 326 l 1
 592 326 l 1
 578 258 l 1
EndSplineSet
Validated: 1
EndChar

StartChar: emdash
Encoding: 8212 8212 118
Width: 709
Flags: W
HStem: 258 68<110 737>
LayerCount: 2
Fore
SplineSet
737 258 m 1
 96 258 l 1
 110 326 l 1
 751 326 l 1
 737 258 l 1
EndSplineSet
Validated: 1
EndChar

StartChar: uni0E4C.left
Encoding: 63255 63255 126
Width: 0
Flags: W
HStem: 891 39<-79.8381 -10.1921> 1012 36<-70.0729 -2.85172>
VStem: -140 58<932.203 1026.8> 1 43<938.986 1010.19>
LayerCount: 2
Back
SplineSet
153 1194 m 1
 153 1194 l 0
 149 1185 141 1143 90 1119 c 0
 31 1090 -35 1108 -89 1085 c 0
 -112 1074 -121 1052 -124 1048 c 1
 -107 1058 -100 1064 -74 1064 c 0
 -40 1064 -18 1042 -18 1009 c 0
 -18 1004 -18 998 -20 993 c 0
 -29 949 -67 921 -107 920 c 0
 -156 920 -184 956 -184 1001 c 0
 -184 1018 -179 1035 -172 1052 c 0
 -139 1119 -80 1142 12 1142 c 0
 84 1142 87 1193 92 1194 c 2
 153 1194 l 1
-103 955 m 0
 -75 955 -57 979 -57 1001 c 0
 -57 1016 -66 1030 -87 1030 c 0
 -115 1030 -133 1006 -133 984 c 0
 -133 969 -124 955 -103 955 c 0
EndSplineSet
Fore
Refer: 200 3660 N 1 0 0 1 -56 0 2
Validated: 1
EndChar

StartChar: uni0E01
Encoding: 3585 3585 128
Width: 626
Flags: W
HStem: 0 21G<100 173.221 451 524.265> 532 61<293.591 508.281>
VStem: 543 71<341.25 499.73>
DStem2: 100 0 169 0 0.207912 0.978148<14.3459 402.517> 451 0 520 0 0.207912 0.978148<14.3459 455.013>
LayerCount: 2
Fore
SplineSet
249 426 m 1
 219 461 150 484 127 487 c 1
 152 512 281 593 417 593 c 0
 539 593 614 544 614 458 c 0
 614 447 613 435 610 422 c 2
 520 0 l 1
 451 0 l 1
 540 418 l 2
 542 428 543 438 543 446 c 0
 543 508 489 532 411 532 c 0
 328 532 264 498 264 498 c 1
 281 493 348 441 361 423 c 1
 348 423 254 400 234 308 c 2
 169 0 l 1
 100 0 l 1
 168 322 l 2
 182 390 249 426 249 426 c 1
EndSplineSet
Validated: 1
EndChar

StartChar: uni0E02
Encoding: 3586 3586 129
Width: 648
Flags: W
HStem: 0 61<195 269 338 469.563> 352 50<180.653 260.837> 532 61<293.569 381.7>
VStem: 128 50<405.254 481.696> 276 51<416.534 492.805> 399 69<401.227 514.751>
DStem2: 256.034 0 325.034 0 0.207912 0.978148<76.7087 385.046> 460.556 0 529.981 0 0.207912 0.978148<66.4452 603.188>
LayerCount: 2
Fore
SplineSet
128 429 m 0
 128 493 191 593 319 593 c 0
 436 593 468 529 468 476 c 0
 468 398 399 352 387 293 c 2
 338 61 l 1
 422 61 l 2
 448 61 476 72 485 115 c 2
 586 590 l 1
 655 590 l 1
 554 113 l 2
 534 19 478 0 425 0 c 2
 182 0 l 1
 195 61 l 1
 269 61 l 1
 316 280 l 2
 338 383 399 392 399 469 c 0
 399 519 355 532 319 532 c 0
 309 532 299 531 291 529 c 1
 314 520 327 500 327 472 c 0
 327 416 284 352 204 352 c 0
 155 352 128 385 128 429 c 0
217 402 m 0
 253 402 276 434 276 460 c 0
 276 479 263 496 237 496 c 0
 201 496 178 464 178 438 c 0
 178 419 190 402 217 402 c 0
EndSplineSet
Validated: 1
EndChar

StartChar: uni0E03
Encoding: 3587 3587 130
Width: 677
Flags: W
HStem: 0 61<252 323 392 506.466> 260 50<182.51 261.865> 407 50<200.378 274.286> 573 20G<224.5 311.435 402.435 470 617.756 691>
VStem: 120 60<312.799 392.268> 277 50<324.467 403.751> 452 65<450.473 493>
DStem2: 310.034 0 379.034 0 0.207912 0.978148<76.7087 461.704> 351 547 340 492 0.892457 0.451132<0 61.053> 496.769 0 565.981 0 0.207912 0.978148<64.336 603.144>
LayerCount: 2
Fore
SplineSet
327 379 m 0
 327 314 267 260 207 260 c 0
 168 260 120 284 120 356 c 0
 120 425 168 545 281 593 c 1
 351 547 l 1
 442 593 l 1
 498 556 524 495 524 493 c 2
 517 460 l 2
 517 458 489 429 468 417 c 1
 392 61 l 1
 459 61 l 2
 500 61 515 88 521 114 c 2
 622 590 l 1
 691 590 l 1
 590 113 l 2
 569 15 501 0 460 0 c 2
 239 0 l 1
 252 61 l 1
 323 61 l 1
 400 424 l 2
 401 429 452 459 452 482 c 0
 452 504 423 529 420 529 c 1
 340 492 l 1
 279 529 l 1
 223 505 202 453 200 443 c 1
 215 450 231 457 245 457 c 0
 308 457 327 415 327 379 c 0
239 407 m 0
 203 407 180 376 180 347 c 0
 180 327 191 310 218 310 c 0
 255 310 277 343 277 371 c 0
 277 391 266 407 239 407 c 0
EndSplineSet
Validated: 1
EndChar

StartChar: uni0E04
Encoding: 3588 3588 131
Width: 613
Flags: W
HStem: 0 21G<123 196.255 432 505.232> 227 50<252.234 331.592> 371 50<263.691 342.561> 532 61<282.039 472.911>
VStem: 101 67<253.183 417.905> 345 51<291.144 368.346> 519 71<321.344 489.691>
DStem2: 123 0 192 0 0.207912 0.978148<14.3459 122.979> 432 0 501 0 0.207912 0.978148<14.3459 435.298>
LayerCount: 2
Fore
SplineSet
101 329 m 0
 101 444 195 593 408 593 c 0
 526 593 590 531 590 442 c 0
 590 428 588 413 585 397 c 2
 501 0 l 1
 432 0 l 1
 516 394 l 2
 518 406 519 417 519 427 c 0
 519 491 473 532 380 532 c 0
 231 532 168 418 168 320 c 0
 168 281 178 255 180 253 c 1
 193 317 l 2
 201 353 239 421 313 421 c 0
 361 421 396 393 396 346 c 0
 396 274 331 227 278 227 c 0
 256 227 242 235 242 235 c 1
 192 0 l 1
 123 0 l 1
 144 98 l 2
 146 106 147 113 147 121 c 0
 147 164 101 239 101 329 c 0
307 371 m 0
 271 371 250 339 250 312 c 0
 250 293 261 277 287 277 c 0
 322 277 345 307 345 335 c 0
 345 355 333 371 307 371 c 0
EndSplineSet
Validated: 1
EndChar

StartChar: uni0E05
Encoding: 3589 3589 132
Width: 591
Flags: W
HStem: 0 21G<101 180 406 479.251> 226 50<272.956 357.872> 377 50<287.28 370.376> 573 20G<258 342.538 429.923 488>
VStem: 79 73<199.33 407.851> 101 72<0 61.5564> 374 51<292.341 373.025> 498 70<382.839 519.51>
DStem2: 406 0 475 0 0.207912 0.978148<14.3459 463.587>
LayerCount: 2
Fore
SplineSet
106 63 m 0xf7
 106 152 79 203 79 287 c 0
 79 471 195 550 321 593 c 1
 377 541 l 1
 463 593 l 1
 513 582 568 542 568 460 c 0
 568 446 567 431 563 414 c 2
 475 0 l 1
 406 0 l 1
 493 409 l 2
 497 426 498 442 498 455 c 0
 498 496 483 521 457 535 c 1
 364 472 l 1
 295 535 l 1
 242 511 152 446 152 312 c 0xfb
 152 257 164 203 165 199 c 1
 165 204 193 427 338 427 c 0
 386 427 425 402 425 350 c 0
 425 309 398 226 292 226 c 0
 255 226 237 248 237 248 c 1
 203 160 187 76 173 0 c 1
 101 0 l 1
 102 14 106 32 106 63 c 0xf7
333 377 m 0
 292 377 269 342 269 315 c 0
 269 294 283 276 312 276 c 0
 350 276 374 309 374 339 c 0
 374 360 361 377 333 377 c 0
EndSplineSet
Validated: 1
EndChar

StartChar: uni0E06
Encoding: 3590 3590 133
Width: 770
Flags: W
HStem: -3 61<247.009 303.499 532.676 600.703> 190 61<271.772 328> 260 50<162.861 242.937> 406 50<180.609 254.038> 573 20G<204.5 291.435 382.435 452 709.769 783>
VStem: 100 60<312.935 391.317> 184 61<58.7023 162.382> 257 51<323.482 402.945>
DStem2: 286.977 -3 356.72 -3 0.207912 0.978148<58.999 164.792 256.775 461.88> 331 547 320 492 0.892457 0.451132<0 61.9014> 407 234 388 144 0.628337 -0.777941<58.0763 240.389> 587.954 -3 656.954 -3 0.207912 0.978148<60.0182 606.248>
LayerCount: 2
Fore
SplineSet
308 378 m 0
 308 317 250 260 186 260 c 0
 147 260 100 285 100 356 c 0
 100 432 148 541 261 593 c 1
 331 547 l 1
 422 593 l 1
 482 553 505 492 505 492 c 1
 498 460 l 2
 497 457 470 436 445 415 c 1
 407 234 l 1
 512 104 l 2
 530 83 545 58 573 58 c 0
 598 58 610 98 615 122 c 2
 714 590 l 1
 783 590 l 1
 686 134 l 2
 671 65 645 -3 563 -3 c 0
 536 -3 508 -3 488 21 c 2
 388 144 l 1
 375 83 l 2
 365 37 318 -3 270 -3 c 0
 212 -3 184 36 184 86 c 0
 184 141 226 251 341 251 c 1
 378 425 l 2
 379 429 433 457 433 483 c 0
 433 507 402 529 400 529 c 2
 320 492 l 1
 259 529 l 1
 210 508 183 458 180 443 c 1
 195 449 212 456 227 456 c 0
 291 456 308 412 308 378 c 0
218 406 m 0
 182 406 160 375 160 346 c 0
 160 326 171 310 198 310 c 0
 235 310 257 342 257 369 c 0
 257 389 245 406 218 406 c 0
270 58 m 0
 299 58 304 76 308 95 c 2
 328 190 l 1
 291 190 261 177 248 118 c 0
 246 110 245 102 245 95 c 0
 245 74 253 58 270 58 c 0
EndSplineSet
Validated: 1
EndChar

StartChar: uni0E07
Encoding: 3591 3591 134
Width: 496
Flags: W
HStem: -6 61<266.011 329.259> 228 63<99 153.994> 401 50<343.058 403.693> 543 50<352.795 432.234>
VStem: 288 52<454.219 530.407> 435 58<465.405 539.754>
DStem2: 315.981 -6 385.218 -6 0.207912 0.978148<61.2519 423.253>
LayerCount: 2
Fore
SplineSet
288 473 m 0
 288 534 339 593 411 593 c 0
 471 593 493 560 493 519 c 0
 493 510 492 500 490 490 c 2
 412 120 l 2
 402 75 390 34 348 12 c 0
 325 0 304 -6 284 -6 c 0
 256 -6 231 7 214 32 c 0
 186 74 197 164 154 207 c 0
 134 227 114 227 85 228 c 1
 99 291 l 1
 124 291 167 291 199 264 c 0
 267 207 236 55 295 55 c 0
 326 55 336 87 340 107 c 2
 404 408 l 1
 404 408 386 401 364 401 c 0
 323 401 288 426 288 473 c 0
397 543 m 0
 361 543 340 513 340 487 c 0
 340 468 352 451 378 451 c 0
 414 451 435 482 435 508 c 0
 435 527 423 543 397 543 c 0
EndSplineSet
Validated: 1
EndChar

StartChar: uni0E08
Encoding: 3592 3592 135
Width: 551
Flags: W
HStem: -3 61<317.257 388.166> 212 50<211.135 271.899> 356 50<223.268 299.86> 532 61<250.401 433.276>
VStem: 157 51<265.073 341.307> 242 73<59.8282 180.266> 303 59<276.313 352.848> 468 72<344.414 498.943>
DStem2: 224.445 -3 293.619 -3 0.207912 0.978148<112.958 227.036> 375.194 -3 444.169 -3 0.207912 0.978148<62.3068 456.16>
LayerCount: 2
Fore
SplineSet
157 285 m 0xfd
 157 347 208 406 278 406 c 0
 339 406 362 373 362 332 c 0xfb
 362 322 360 312 358 302 c 2
 317 107 l 2
 316 102 315 98 315 93 c 0xfd
 315 75 324 58 349 58 c 0
 383 58 394 86 399 109 c 2
 465 418 l 2
 467 427 468 436 468 444 c 0
 468 501 422 532 350 532 c 0
 296 532 215 517 163 432 c 1
 110 460 l 1
 171 550 255 593 362 593 c 0xfb
 473 593 540 543 540 462 c 0
 540 450 539 439 536 426 c 2
 465 95 l 2
 453 37 396 -3 330 -3 c 0
 276 -3 242 26 242 70 c 0
 242 76 243 82 244 89 c 2
 272 219 l 1
 272 219 255 212 234 212 c 0
 188 212 157 240 157 285 c 0xfd
266 356 m 0
 232 356 208 325 208 298 c 0
 208 279 220 262 246 262 c 0
 280 262 303 293 303 320 c 0
 303 339 292 356 266 356 c 0
EndSplineSet
Validated: 1
EndChar

StartChar: uni0E09
Encoding: 3593 3593 136
Width: 596
Flags: W
HStem: -3 61<220.5 292.876 490.742 544.796> 182 58<523 552.428> 199 50<134.593 195.681> 341 50<144.412 224.009> 532 61<267.189 456.377>
VStem: 80 52<252.133 328.738> 168 71<58.6825 118.75> 227 58<262.07 338.097> 423 67<59.273 109.647> 494 73<344.766 495.758> 559 63<70.1502 178.353>
DStem2: 151.232 -3 220.469 -3 0.207912 0.978148<96.8683 212.762> 407.358 -3 471.169 -3 0.207912 0.978148<95.6641 158.4 261.733 451.99>
AnchorPoint: "AboveBase" 618 654 basechar 0
LayerCount: 2
Fore
SplineSet
622 147 m 0xdca0
 622 101 596 -3 496 -3 c 0
 447 -3 423 24 423 61 c 0
 423 67 424 73 425 80 c 2
 440 152 l 1
 440 152 424 149 369 84 c 0
 324 30 282 -3 237 -3 c 0
 204 -3 168 11 168 61 c 0xdea0
 168 70 169 79 171 90 c 2
 196 205 l 1
 196 205 178 199 157 199 c 0
 112 199 80 225 80 271 c 0
 80 338 136 391 203 391 c 0
 263 391 285 357 285 316 c 0xbd80
 285 307 284 297 282 288 c 2
 243 103 l 2
 241 95 239 85 239 77 c 0
 239 66 242 58 254 58 c 0
 305 58 376 205 451 228 c 1
 492 418 l 2
 494 426 494 434 494 441 c 0
 494 498 444 532 372 532 c 0
 292 532 228 505 179 437 c 1
 133 466 l 1
 172 519 248 593 380 593 c 0
 493 593 567 545 567 462 c 0xbec0
 567 451 565 440 563 428 c 2
 523 240 l 1
 561 240 622 221 622 147 c 0xdca0
512 58 m 0
 539 58 559 94 559 131 c 0
 559 155 552 182 521 182 c 0
 515 182 511 179 510 179 c 2
 492 95 l 2
 490 88 490 82 490 77 c 0
 490 62 497 58 512 58 c 0
189 341 m 0
 152 341 132 310 132 284 c 0
 132 265 143 249 170 249 c 0
 203 249 227 278 227 305 c 0xbd80
 227 324 214 341 189 341 c 0
EndSplineSet
Validated: 1
EndChar

StartChar: uni0E0A
Encoding: 3594 3594 137
Width: 602
Flags: W
HStem: 0 61<160 234 303 434.302> 352 50<146.304 226.163> 532 61<257.91 346.845>
VStem: 93 51<405.203 482.523> 240 51<416.788 492.816> 504 71<335.807 431.843>
DStem2: 221.034 0 290.034 0 0.207912 0.978148<76.7087 385.524> 424.556 0 493.981 0 0.207912 0.978148<65.5097 393.577>
LayerCount: 2
Fore
SplineSet
182 402 m 0
 217 402 240 433 240 461 c 0
 240 480 228 496 202 496 c 0
 167 496 144 466 144 438 c 0
 144 418 156 402 182 402 c 0
93 424 m 0
 93 492 153 593 283 593 c 0
 375 593 415 552 428 511 c 1
 441 513 509 538 561 564 c 0
 618 592 665 636 665 638 c 2
 676 569 l 1
 673 567 645 543 597 524 c 0
 559 509 505 486 500 486 c 1
 508 486 575 459 575 391 c 0
 575 383 574 376 572 367 c 2
 518 113 l 2
 499 23 449 0 389 0 c 2
 147 0 l 1
 160 61 l 1
 234 61 l 1
 281 280 l 2
 303 383 364 393 364 469 c 0
 364 519 319 532 284 532 c 0
 274 532 264 531 256 529 c 1
 275 520 291 504 291 473 c 0
 291 434 267 352 169 352 c 0
 116 352 93 383 93 424 c 0
433 459 m 2
 430 448 l 2
 412 383 364 348 352 293 c 2
 303 61 l 1
 387 61 l 2
 417 61 441 77 449 115 c 2
 499 349 l 2
 502 363 504 375 504 386 c 0
 504 441 434 459 433 459 c 2
EndSplineSet
Validated: 1
EndChar

StartChar: uni0E0B
Encoding: 3595 3595 138
Width: 648
Flags: W
HStem: 0 61<215 289 358 489.254> 276 50<148.44 227.95> 420 50<188.395 239.596> 581 20G<252.5 290 370.5 428>
VStem: 90 56<329.497 404.816> 242 51<340.252 417.062> 561 71<282.328 435.849>
DStem2: 276.034 0 345.034 0 0.207912 0.978148<76.7087 435.632> 480.556 0 549.981 0 0.207912 0.978148<65.2615 394.764>
LayerCount: 2
Fore
SplineSet
183 326 m 0
 219 326 242 358 242 385 c 0
 242 404 230 420 205 420 c 0
 168 420 146 388 146 361 c 0
 146 342 157 326 183 326 c 0
444 61 m 2
 484 61 499 87 505 115 c 2
 556 353 l 2
 559 365 561 376 561 387 c 0
 561 448 490 462 489 463 c 1
 433 412 l 1
 358 61 l 1
 444 61 l 2
293 399 m 0
 293 348 257 276 175 276 c 0
 140 276 90 286 90 357 c 0
 90 370 92 386 96 403 c 0
 126 543 251 601 254 601 c 1
 326 561 l 1
 415 601 l 1
 441 591 471 562 486 510 c 1
 660 568 720 635 720 638 c 2
 731 569 l 1
 728 567 701 543 652 524 c 0
 614 509 561 490 556 490 c 1
 561 490 632 466 632 396 c 0
 632 388 631 380 629 371 c 2
 574 113 l 2
 561 50 527 0 445 0 c 2
 202 0 l 1
 215 61 l 1
 289 61 l 1
 367 428 l 1
 423 475 l 1
 421 500 404 526 387 532 c 1
 314 500 l 1
 256 532 l 1
 218 524 189 473 188 467 c 1
 188 467 200 470 216 470 c 0
 278 470 293 433 293 399 c 0
EndSplineSet
Validated: 1
EndChar

StartChar: uni0E0C
Encoding: 3596 3596 139
Width: 792
Flags: W
HStem: -3 61<358.458 401.219 583.222 620.239> -3 50<150.522 229.718> 139 50<179.558 240.206> 178 61<378.309 423> 532 61<255.241 455.97>
VStem: 89 59<49.6616 125.173> 243 52<60.0772 136.591> 304 54<58.3569 156.804> 482 71<365.633 506.938>
DStem2: 70.1067 -3 139.464 -3 0.207912 0.978148<204.576 405.769> 384.783 -3 453.696 -3 0.207912 0.978148<59.3301 169.723 244.471 476.732> 603.954 -3 673.595 -3 0.207912 0.978148<61.1201 606.248>
LayerCount: 2
Fore
SplineSet
295 119 m 0x2f80
 295 56 242 -3 172 -3 c 0x6f80
 111 -3 89 31 89 72 c 0
 89 81 90 91 92 100 c 2
 139 322 l 2
 153 390 220 426 220 426 c 1
 190 462 119 484 98 487 c 1
 124 513 230 593 371 593 c 0
 492 593 553 548 553 478 c 0
 553 469 551 459 549 449 c 2
 502 228 l 1
 502 228 534 224 556 167 c 0
 570 130 580 58 602 58 c 0
 616 58 623 87 626 101 c 2
 730 590 l 1
 799 590 l 1
 694 93 l 2
 685 51 659 -3 603 -3 c 0
 571 -3 550 14 535 52 c 0
 513 107 486 149 486 149 c 1
 469 69 l 2
 462 36 423 -3 378 -3 c 0
 328 -3 304 34 304 82 c 0
 304 93 305 104 307 115 c 0
 329 217 395 233 436 239 c 1x9f80
 480 446 l 2
 481 452 482 458 482 464 c 0
 482 509 438 532 356 532 c 0
 272 532 236 498 236 498 c 1
 254 498 333 423 333 423 c 1
 322 423 225 400 205 308 c 2
 179 183 l 1
 190 187 202 189 214 189 c 0
 253 189 295 170 295 119 c 0x2f80
361 112 m 0
 359 104 358 96 358 88 c 0
 358 71 363 58 379 58 c 0
 388 58 400 69 402 78 c 2
 423 178 l 1x9f80
 402 178 375 176 361 112 c 0
205 139 m 0x6f80
 169 139 148 108 148 82 c 0
 148 63 159 47 185 47 c 0
 222 47 243 78 243 104 c 0
 243 123 232 139 205 139 c 0x6f80
EndSplineSet
Validated: 1
EndChar

StartChar: uni0E0D
Encoding: 3597 3597 140
Width: 800
Flags: W
HStem: -278 61<422.994 519.302> -104 47<351.624 425.226> -3 50<163.616 241.915> 0 61<366 408 477 640.483> 138 50<191.521 252.258> 532 61<264.167 468.991>
VStem: 101 59<49.9034 125.034> 255 52<60.4162 135.206> 288 52<-187.981 -115.419> 427 51<-178.653 -105.777> 492 70<362.172 509.006> 598 69<-130.981 -55>
DStem2: 23.6536 -278 93.224 -278 0.207912 0.978148<484.741 686.781> 335.943 -278 404.943 -278 0.207912 0.978148<360.919 758.934> 568.229 -278 636.48 -278 0.207912 0.978148<346.812 887.24>
LayerCount: 2
Fore
SplineSet
307 119 m 0xdf70
 307 59 257 -3 183 -3 c 0xef70
 123 -3 101 31 101 72 c 0
 101 81 102 90 104 100 c 2
 151 322 l 2
 165 390 232 426 232 426 c 1
 203 460 136 483 110 487 c 1
 136 513 248 593 400 593 c 0
 513 593 562 541 562 477 c 0
 562 468 561 458 559 448 c 2
 477 61 l 1
 603 61 l 2
 623 61 643 72 649 102 c 2
 752 590 l 1
 821 590 l 1
 713 82 l 2
 698 12 640 0 615 0 c 2
 353 0 l 1
 366 61 l 1
 408 61 l 1
 490 445 l 2
 491 452 492 459 492 465 c 0
 492 506 459 532 363 532 c 0
 284 532 235 501 235 501 c 1
 263 501 344 423 344 423 c 1
 331 423 237 400 217 308 c 2
 191 182 l 1
 191 182 207 188 229 188 c 0
 258 188 307 173 307 119 c 0xdf70
217 138 m 0
 182 138 160 109 160 83 c 0
 160 64 172 47 198 47 c 0
 232 47 255 76 255 103 c 0
 255 121 243 138 217 138 c 0
478 -127 m 0
 478 -182 436 -212 420 -212 c 1
 421 -212 431 -217 449 -217 c 0
 524 -217 582 -156 598 -66 c 2
 600 -55 l 1
 669 -55 l 1
 667 -66 l 2
 645 -189 544 -278 430 -278 c 0
 355 -278 288 -249 288 -178 c 0xcef0
 288 -123 326 -58 401 -57 c 0
 451 -57 478 -88 478 -127 c 0
374 -190 m 0
 407 -190 427 -160 427 -136 c 0
 427 -119 417 -104 393 -104 c 0
 362 -104 340 -132 340 -158 c 0
 340 -175 351 -190 374 -190 c 0
EndSplineSet
Validated: 1
Substitution2: "'ccmp' Pali-Sanskrit Descender Removal" uni0E0D.descless
Substitution2: "Thai Descender Removal Single Substitution" uni0E0D.descless
EndChar

StartChar: uni0E0E
Encoding: 3598 3598 141
Width: 668
Flags: W
HStem: -303 61<82.0498 173.253> -163 61<92.157 212.75> -28 20G<315 387> -3 50<105.554 186.24> 139 50<116.644 196.231> 532 61<353.092 552.771>
VStem: 9 72<-239.711 -176.24> 51 52<50.2067 126.134> 318 69<-64.3968 -8> 579 71<386.281 506.47>
DStem2: 98.7217 -317 167.364 -317 0.207912 0.978148<511.17 729.082> 360 -225 338 -317 0.764803 0.644264<0 118.279> 419.141 -317 489.054 -317 0.207912 0.978148<172.999 783.949>
AnchorPoint: "BelowBase" 488 -311 basechar 0
LayerCount: 2
Fore
SplineSet
51 71 m 0xfdc0
 51 133 103 189 169 189 c 0
 190 189 205 183 205 183 c 1
 234 322 l 2
 249 394 312 425 313 426 c 1
 286 463 211 484 193 487 c 1
 217 513 338 593 474 593 c 0
 592 593 650 542 650 461 c 0
 650 447 648 433 645 418 c 2
 522 -162 l 1
 338 -317 l 1
 317 -280 286 -236 261 -218 c 1
 236 -242 172 -303 96 -303 c 0
 62 -303 9 -288 9 -234 c 0xfec0
 9 -175 66 -102 166 -102 c 0
 220 -102 255 -130 257 -132 c 1
 285 -98 312 -36 318 -8 c 1
 387 -8 l 1
 373 -76 301 -164 301 -164 c 1
 360 -225 l 1
 454 -153 l 1
 575 415 l 2
 578 428 579 440 579 451 c 0
 579 508 541 532 468 532 c 0
 376 532 331 499 328 498 c 1
 349 498 426 423 426 423 c 1
 420 423 321 405 300 308 c 2
 256 100 l 2
 245 48 206 -3 132 -3 c 0
 86 -3 51 24 51 71 c 0xfdc0
161 139 m 0
 125 139 103 109 103 83 c 0xfdc0
 103 64 115 47 141 47 c 0
 177 47 199 77 199 103 c 0
 199 122 187 139 161 139 c 0
145 -163 m 0
 99 -163 81 -193 81 -214 c 0xfec0
 81 -231 94 -242 115 -242 c 0
 163 -242 212 -191 213 -179 c 0
 213 -178 180 -163 145 -163 c 0
EndSplineSet
Validated: 1
EndChar

StartChar: uni0E0F
Encoding: 3599 3599 142
Width: 663
Flags: W
HStem: -312 61<71.1957 130.919> -159 61<84.938 164.142> -29 20G<258 323> -3 50<106.668 185.855> 139 50<117.347 196.851> 532 61<354.208 558.114>
VStem: 13 57<-250.391 -173.572> 53 51<50.6739 125.312> 582 71<411.076 508.972>
DStem2: 100.785 -312 169.427 -312 0.207912 0.978148<506.059 721.46> 419.479 -312 488.479 -312 0.207912 0.978148<114.881 791.533>
AnchorPoint: "BelowBase" 484 -311 basechar 0
LayerCount: 2
Fore
SplineSet
53 72 m 0xfd80
 53 140 108 189 170 189 c 0
 192 189 206 183 206 183 c 1
 235 322 l 2
 250 391 315 426 315 426 c 1
 284 465 211 484 194 487 c 1
 219 513 339 593 475 593 c 0
 594 593 653 550 653 477 c 0
 653 466 652 455 649 443 c 2
 521 -159 l 1
 495 -210 443 -274 371 -310 c 1
 323 -216 l 1
 233 -311 l 1
 196 -238 l 1
 165 -281 121 -312 82 -312 c 0
 28 -312 13 -275 13 -240 c 0xfe80
 13 -166 74 -98 129 -98 c 0
 172 -98 202 -133 204 -138 c 1
 212 -126 254 -48 262 -9 c 1
 323 -9 l 1
 319 -29 275 -137 238 -178 c 1
 251 -213 l 1
 346 -106 l 1
 398 -222 l 1
 423 -209 446 -176 452 -159 c 1
 580 440 l 2
 582 448 582 456 582 463 c 0
 582 508 546 532 466 532 c 0
 380 532 330 498 330 498 c 1
 351 498 427 423 427 423 c 1
 415 423 321 400 301 308 c 2
 257 100 l 2
 246 48 207 -3 134 -3 c 0
 86 -3 53 25 53 72 c 0xfd80
162 139 m 0
 126 139 104 109 104 83 c 0xfd80
 104 64 116 47 142 47 c 0
 178 47 199 78 199 104 c 0
 199 123 188 139 162 139 c 0
121 -159 m 0
 90 -159 70 -198 70 -227 c 0xfe80
 70 -244 80 -251 94 -251 c 0
 125 -251 168 -184 168 -184 c 1
 168 -184 144 -159 121 -159 c 0
EndSplineSet
Validated: 1
EndChar

StartChar: uni0E10
Encoding: 3600 3600 143
Width: 530
Flags: W
HStem: -290 52<6.1834 57.2386> -180 43<296.739 335.653> -174 52<10.3448 67.7063> -76 42<299.684 356.523> -3 61<300.356 371.166> 157 50<184.402 242.875> 299 50<194.768 274.016> 504 61<424.746 592.378> 519 60<535.312 591> 532 61<270.172 477.227>
VStem: -46 52<-237.917 -175.922> 128 54<209.664 285.181> 225 73<59.8282 163.352> 249 47<-136.876 -79.6311> 277 56<220.342 295.918> 357 47<-156.233 -76.9637> 428 72<236.938 388.252>
DStem2: 272 -230 258 -296 0.862483 0.506085<0 67.0813> 295.915 -296 364.89 -296 0.207912 0.978148<361.853 645.376>
LayerCount: 2
Fore
SplineSet
128 230 m 0x9e7980
 128 296 184 349 250 349 c 0
 310 349 333 316 333 275 c 0x9e7380
 333 266 332 257 330 247 c 2
 300 107 l 2
 299 102 298 98 298 93 c 0
 298 75 307 58 332 58 c 0
 366 58 377 86 382 109 c 2
 426 317 l 2
 427 324 428 330 428 336 c 0
 428 383 387 413 327 430 c 0
 246 453 178 459 138 459 c 1
 183 520 247 593 371 593 c 0x9e7980
 430 593 483 565 534 565 c 0x9f3980
 562 565 589 579 591 579 c 1
 596 519 l 1x9eb980
 594 519 561 504 533 504 c 0x9f3980
 464 504 430 532 360 532 c 0
 290 532 256 501 256 501 c 1
 256 501 389 493 463 433 c 0
 486 414 500 387 500 353 c 0
 500 344 499 334 497 324 c 2
 448 95 l 2
 436 37 379 -3 313 -3 c 0
 260 -3 225 26 225 70 c 0
 225 76 226 83 227 89 c 2
 243 164 l 1
 243 164 226 157 204 157 c 0
 161 157 128 184 128 230 c 0x9e7980
240 299 m 0
 203 299 182 268 182 242 c 0
 182 223 193 207 220 207 c 0
 256 207 277 238 277 264 c 0
 277 283 266 299 240 299 c 0
249 -122 m 0xbe3580
 249 -73 292 -34 340 -34 c 0
 364 -34 404 -42 404 -96 c 0
 404 -105 403 -115 400 -127 c 2
 379 -225 l 1
 258 -296 l 1
 200 -250 l 1
 111 -296 l 1
 106 -274 101 -264 92 -247 c 1
 81 -259 47 -290 20 -290 c 0
 -24 -290 -46 -260 -46 -225 c 0
 -46 -165 10 -122 52 -122 c 0xbe3580
 76 -122 99 -132 108 -143 c 1
 126 -113 141 -74 152 -38 c 1
 210 -38 l 1
 198 -84 168 -152 138 -190 c 1
 148 -221 l 1
 215 -189 l 1
 272 -230 l 1
 331 -198 l 1
 336 -176 l 1
 326 -179 318 -180 309 -180 c 0xde3580
 272 -180 249 -155 249 -122 c 0xbe3580
320 -137 m 0xde3580
 338 -137 357 -123 357 -99 c 0
 357 -81 343 -76 333 -76 c 0xde3380
 316 -76 296 -89 296 -113 c 0
 296 -127 305 -137 320 -137 c 0xde3580
34 -174 m 0xbe3180
 17 -174 6 -199 6 -215 c 0
 6 -227 11 -238 24 -238 c 0
 54 -238 67 -197 68 -195 c 1
 67 -190 51 -174 34 -174 c 0xbe3180
EndSplineSet
Validated: 1
Substitution2: "'ccmp' Pali-Sanskrit Descender Removal" uni0E10.descless
Substitution2: "Thai Descender Removal Single Substitution" uni0E10.descless
EndChar

StartChar: uni0E11
Encoding: 3601 3601 144
Width: 815
Flags: W
HStem: 0 21G<296 372.5 633 706.238> 264 46<168.655 248.904> 406 46<186.632 260.008> 532 61<685.162 737.931>
VStem: 106 60<312.657 392.238> 263 46<323.352 402.646> 439 65<450.227 492> 739 72<416.664 531.067>
DStem2: 296 0 369 0 0.207912 0.978148<15.1776 162.763 254.606 460.676> 337 547 326 492 0.892457 0.451132<0 61.9014> 633 0 702 0 0.207912 0.978148<14.3459 514.842>
LayerCount: 2
Fore
SplineSet
309 382 m 0
 309 317 257 264 194 264 c 0
 149 264 106 291 106 358 c 0
 106 434 155 540 267 593 c 1
 337 547 l 1
 428 593 l 1
 488 553 511 492 511 492 c 1
 504 460 l 2
 504 458 472 429 453 415 c 1
 415 235 l 1
 439 282 494 359 545 426 c 0
 592 489 672 593 734 593 c 0
 770 593 811 567 811 522 c 0
 811 517 810 511 809 505 c 2
 702 0 l 1
 633 0 l 1
 738 492 l 2
 739 496 739 500 739 504 c 0
 739 520 730 532 715 532 c 0
 700 532 680 504 670 492 c 0
 659 480 423 174 392 84 c 0
 381 52 376 32 369 0 c 1
 296 0 l 1
 386 425 l 2
 387 430 439 457 439 483 c 0
 439 507 408 529 406 529 c 2
 326 492 l 1
 265 529 l 1
 246 521 195 486 186 443 c 1
 202 449 218 452 232 452 c 0
 293 452 309 415 309 382 c 0
224 406 m 0
 188 406 166 375 166 346 c 0
 166 326 177 310 204 310 c 0
 241 310 263 342 263 369 c 0
 263 389 251 406 224 406 c 0
EndSplineSet
Validated: 1
EndChar

StartChar: uni0E12
Encoding: 3602 3602 145
Width: 820
Flags: W
HStem: -3 61<398.851 444.929 610.233 649.104> 236 45<254.834 280> 379 45<265.427 347.354> 575 15G<275 349 455 499.5 753.783 827>
VStem: 90 70<191.819 411.529> 135 73<0 37.9285> 201 50<285.768 365.029> 341 56<58.0945 164.973> 351 50<293.131 374.811> 522 69<397.78 513.611>
DStem2: 393 535 378 468 0.845079 0.534642<0 78.5184> 427.064 -3 494.058 -3 0.207912 0.978148<58.3696 171.413 252.768 467.362> 631.954 -3 701.807 -3 0.207912 0.978148<59.7885 606.248>
LayerCount: 2
Fore
SplineSet
137 39 m 0xf4c0
 137 167 90 213 90 303 c 0
 90 319 91 336 95 355 c 0
 126 503 223 556 327 595 c 1
 393 535 l 1
 486 595 l 1
 513 583 591 539 591 457 c 0
 591 448 590 438 588 428 c 2
 546 230 l 2
 546 228 567 216 579 182 c 0
 603 113 605 58 632 58 c 0
 643 58 647 66 653 92 c 2
 758 590 l 1
 827 590 l 1
 722 92 l 2
 711 38 689 -3 627 -3 c 0
 580 -3 564 48 551 89 c 0
 535 140 533 132 527 151 c 1
 510 72 l 2
 504 46 478 -3 416 -3 c 0
 368 -3 341 36 341 88 c 0
 341 179 409 247 481 251 c 1
 519 428 l 2
 521 438 522 447 522 455 c 0
 522 502 493 525 476 530 c 1
 378 468 l 1
 305 530 l 1
 183 477 160 371 160 307 c 0
 160 274 167 240 176 205 c 0
 189 155 194 113 195 110 c 1
 201 125 260 209 280 236 c 1
 271 236 l 2
 231 236 201 262 201 305 c 0xfb40
 201 360 249 424 320 424 c 0
 373 424 401 389 401 349 c 0
 401 271 292 189 234 72 c 0
 218 38 217 32 208 0 c 1
 135 0 l 1
 135 2 137 16 137 39 c 0xf4c0
293 281 m 0
 331 281 351 312 351 340 c 0xf2c0
 351 363 336 379 311 379 c 0
 278 379 251 353 251 320 c 0
 251 297 268 281 293 281 c 0
470 199 m 1
 414 184 397 133 397 97 c 0xf140
 397 75 404 58 420 58 c 0
 437 58 443 68 445 79 c 2
 470 199 l 1
EndSplineSet
Validated: 1
EndChar

StartChar: uni0E13
Encoding: 3603 3603 146
Width: 818
Flags: W
HStem: -3 61<713.423 771.717> -3 50<165.188 245.037> 139 50<194.306 255.11> 195 61<748 784.344> 532 61<273.447 477.454>
VStem: 104 59<49.6616 125.173> 258 52<60.5632 135.715> 501 71<359.008 508.539> 644 69<58.1789 176.125> 791 60<75.9127 188.269>
DStem2: 85.1067 -3 154.464 -3 0.207912 0.978148<204.576 405.686> 404.362 -3 472.918 -3 0.207912 0.978148<134.89 475.633> 627.082 -3 693.169 -3 0.207912 0.978148<104.078 189.257 278.48 605.598>
AnchorPoint: "AboveBase" 841 659 basechar 0
LayerCount: 2
Fore
SplineSet
310 119 m 0xbfc0
 310 59 260 -3 186 -3 c 0x7fc0
 126 -3 104 31 104 72 c 0
 104 81 105 90 107 100 c 2
 154 322 l 2
 168 389 235 426 235 426 c 1
 206 460 139 483 113 487 c 1
 139 513 258 593 394 593 c 0
 517 593 572 547 572 478 c 0
 572 468 571 457 569 446 c 2
 498 115 l 1
 500 118 543 169 590 202 c 0
 634 233 675 250 678 250 c 1
 750 590 l 1
 819 590 l 1
 748 256 l 1
 796 256 851 236 851 162 c 0
 851 87 804 -3 716 -3 c 1
 662 -2 644 29 644 63 c 0
 644 71 644 78 646 86 c 2
 667 182 l 1
 540 111 479 0 472 0 c 2
 405 0 l 1
 499 443 l 2
 500 450 501 457 501 463 c 0
 501 505 467 532 384 532 c 0
 298 532 250 498 250 498 c 1
 269 498 348 423 348 423 c 1
 335 423 240 400 220 308 c 2
 194 183 l 1
 194 183 210 189 232 189 c 0
 261 189 310 173 310 119 c 0xbfc0
737 58 m 0xbfc0
 774 58 791 110 791 146 c 0
 791 193 757 195 735 195 c 1
 714 95 l 2
 713 91 713 88 713 85 c 0
 713 68 723 58 737 58 c 0xbfc0
220 139 m 0
 184 139 163 108 163 82 c 0
 163 63 174 47 200 47 c 0x7fc0
 236 47 258 77 258 103 c 0
 258 122 246 139 220 139 c 0
EndSplineSet
Validated: 1
EndChar

StartChar: uni0E14
Encoding: 3604 3604 147
Width: 614
Flags: W
HStem: 0 21G<152 217.5 433 506.234> 381 50<292.258 376.695> 532 61<297.75 477.107>
VStem: 109 67<203.959 406.884> 225 51<284.265 365.001> 380 51<295.508 377.385> 522 71<379.385 489.764>
DStem2: 433 0 502 0 0.207912 0.978148<14.3459 439.718>
LayerCount: 2
Fore
SplineSet
109 307 m 0
 109 485 270 593 397 593 c 0
 526 593 593 529 593 446 c 0
 593 435 592 423 589 411 c 2
 502 0 l 1
 433 0 l 1
 519 405 l 2
 521 414 522 423 522 431 c 0
 522 492 471 532 387 532 c 0
 252 531 176 416 176 307 c 0
 176 277 183 249 194 216 c 0
 212 160 216 123 219 123 c 0
 222 123 263 185 302 230 c 1
 266 232 225 261 225 310 c 0
 225 364 276 431 349 431 c 0
 397 431 431 399 431 353 c 0
 431 312 403 268 368 225 c 2
 256 87 l 2
 234 61 223 34 212 0 c 1
 152 0 l 1
 159 31 165 37 165 62 c 0
 165 126 109 203 109 307 c 0
339 381 m 0
 301 381 276 349 276 319 c 0
 276 298 289 280 318 280 c 0
 358 280 380 314 380 343 c 0
 380 363 368 381 339 381 c 0
EndSplineSet
Validated: 1
EndChar

StartChar: uni0E15
Encoding: 3605 3605 148
Width: 645
Flags: W
HStem: 0 21G<176 254.5 464 537.241> 230 50<301.067 333> 381 50<311.871 397.683> 575 20G<291 400.538 487.923 542>
VStem: 128 65<212.97 409.628> 246 50<283.969 364.402> 401 52<295.514 376.704> 557 70<384.096 518.422>
DStem2: 435 543 423 474 0.845926 0.533301<0 71.866> 464 0 533 0 0.207912 0.978148<14.3459 466.684>
LayerCount: 2
Fore
SplineSet
246 312 m 0
 246 372 302 431 372 431 c 0
 421 431 453 401 453 356 c 0
 453 280 356 184 295 84 c 0
 278 57 259 40 250 0 c 1
 176 0 l 1
 179 26 181 41 181 62 c 0
 181 182 128 220 128 321 c 0
 128 430 203 551 379 595 c 1
 435 543 l 1
 521 595 l 1
 563 586 627 551 627 462 c 0
 627 448 625 432 621 415 c 2
 533 0 l 1
 464 0 l 1
 551 409 l 2
 555 428 557 444 557 458 c 0
 557 500 540 521 515 532 c 1
 423 474 l 1
 352 532 l 1
 244 495 213 424 199 357 c 0
 195 338 193 321 193 305 c 0
 193 275 200 247 212 216 c 0
 234 162 238 107 241 107 c 0
 242 107 308 203 333 230 c 1
 262 233 246 279 246 312 c 0
360 381 m 0
 320 381 296 348 296 319 c 0
 296 298 309 280 339 280 c 0
 377 280 401 312 401 342 c 0
 401 363 389 381 360 381 c 0
EndSplineSet
Validated: 1
EndChar

StartChar: uni0E16
Encoding: 3606 3606 149
Width: 628
Flags: W
HStem: -3 50<181.607 259.985> 139 50<209.319 270.884> 532 61<294.949 509.742>
VStem: 119 59<49.7311 125.062> 273 52<60.3699 136.184> 544 71<341.25 499.73>
DStem2: 100.107 -3 169.464 -3 0.207912 0.978148<204.576 403.596> 451.362 -3 520.362 -3 0.207912 0.978148<17.4129 458.08>
LayerCount: 2
Fore
SplineSet
325 118 m 0
 325 58 274 -3 201 -3 c 0
 141 -3 119 31 119 72 c 0
 119 81 120 91 122 100 c 2
 169 322 l 2
 183 387 250 426 250 426 c 1
 218 465 146 484 129 487 c 1
 153 512 282 593 419 593 c 0
 541 593 615 544 615 458 c 0
 615 447 614 435 611 422 c 2
 521 0 l 1
 452 0 l 1
 541 418 l 2
 543 428 544 438 544 446 c 0
 544 508 490 532 413 532 c 0
 330 532 265 498 265 498 c 1
 274 498 363 430 363 423 c 1
 351 423 255 400 235 308 c 2
 209 183 l 1
 209 183 225 189 247 189 c 0
 292 189 325 163 325 118 c 0
235 139 m 0
 202 139 178 110 178 83 c 0
 178 64 190 47 215 47 c 0
 252 47 273 78 273 104 c 0
 273 123 262 139 235 139 c 0
EndSplineSet
Validated: 1
EndChar

StartChar: uni0E17
Encoding: 3607 3607 150
Width: 691
Flags: W
HStem: 0 21G<176 258 512 585.267> 401 50<200.749 262.681> 532 61<544.156 614.342> 543 50<210.568 291.009>
VStem: 146 52<454.207 530.145> 294 58<465.203 540.097> 616 69<387 530.962>
DStem2: 176 0 245 0 0.207912 0.978148<14.3459 206.865 321.097 416.194> 512 0 581 0 0.207912 0.978148<14.3459 513.033>
LayerCount: 2
Fore
SplineSet
146 471 m 0xee
 146 535 201 593 270 593 c 0xde
 330 593 352 559 352 518 c 0
 352 509 351 500 349 490 c 2
 309 300 l 1
 444 495 521 593 601 593 c 0
 669 593 685 552 685 511 c 0
 685 489 680 466 677 450 c 2
 581 0 l 1
 512 0 l 1
 610 459 l 2
 613 475 616 490 616 503 c 0
 616 520 610 532 591 532 c 0
 576 532 556 524 539 505 c 0
 292 221 271 120 245 0 c 1
 176 0 l 1
 263 407 l 1
 263 407 246 401 224 401 c 0
 195 401 146 417 146 471 c 0xee
256 543 m 0
 219 543 198 512 198 486 c 0
 198 467 210 451 237 451 c 0
 270 451 294 480 294 507 c 0
 294 526 281 543 256 543 c 0
EndSplineSet
Validated: 1
EndChar

StartChar: uni0E18
Encoding: 3608 3608 151
Width: 548
Flags: W
HStem: 0 61<99 166 235 382.673> 501 61<412.892 614.732> 532 61<225.461 459.544>
DStem2: 153.034 0 222.034 0 0.207912 0.978148<76.7087 439.544> 368.382 0 437.145 0 0.207912 0.978148<61.7272 356.708>
LayerCount: 2
Fore
SplineSet
206 494 m 1xa0
 310 488 397 462 438 432 c 0
 484 398 498 377 508 335 c 1
 455 84 l 2
 445 39 398 0 349 0 c 2
 86 0 l 1
 99 61 l 1
 166 61 l 1
 245 433 l 1
 211 439 175 443 134 443 c 0
 126 443 123 447 123 453 c 0
 123 473 153 515 164 527 c 0
 211 574 258 593 337 593 c 0xa0
 420 593 448 563 537 562 c 0
 571 562 606 573 629 594 c 1
 647 537 l 1
 617 520 585 501 532 501 c 0xc0
 472 501 386 532 329 532 c 0
 263 532 238 527 206 494 c 1xa0
389 97 m 2
 435 317 l 1
 428 349 420 364 387 386 c 1
 364 400 337 412 310 416 c 1
 235 61 l 1
 345 61 l 2
 367 61 385 77 389 97 c 2
EndSplineSet
Validated: 1
EndChar

StartChar: uni0E19
Encoding: 3609 3609 152
Width: 668
Flags: W
HStem: -3 61<511.002 589.662> 210 61<437.362 496 577 608.23> 399 50<172.646 232.351> 543 50<182.238 262.086>
VStem: 118 51<452.151 528.661> 265 58<464.868 539.676> 470 69<58.2013 140.577> 613 65<82.239 206.115>
DStem2: 146.362 -3 215.068 -3 0.207912 0.978148<17.4129 66.6018 139.01 417.097> 449.918 -3 519.706 -3 0.207912 0.978148<98.1671 217.926 293.456 606.255>
AnchorPoint: "AboveBase" 667 659 basechar 0
LayerCount: 2
Fore
SplineSet
678 170 m 0
 678 89 622 -3 538 -3 c 0
 483 -3 470 34 470 70 c 0
 470 86 472 102 475 115 c 2
 496 210 l 1
 447 210 288 121 216 0 c 1
 147 0 l 1
 233 405 l 1
 233 405 217 399 195 399 c 0
 151 399 118 427 118 472 c 0
 118 529 167 593 241 593 c 0
 301 593 323 560 323 519 c 0
 323 510 322 500 320 490 c 2
 241 119 l 1
 241 119 290 173 368 218 c 0
 431 254 504 271 509 271 c 1
 576 590 l 1
 645 590 l 1
 577 270 l 1
 636 270 678 235 678 170 c 0
557 58 m 0
 598 58 613 132 613 164 c 0
 613 204 592 210 565 210 c 1
 545 116 l 2
 542 100 539 87 539 78 c 0
 539 64 544 58 557 58 c 0
227 543 m 0
 192 543 169 513 169 486 c 0
 169 467 181 449 207 449 c 0
 241 449 265 480 265 507 c 0
 265 526 253 543 227 543 c 0
EndSplineSet
Validated: 1
EndChar

StartChar: uni0E1A
Encoding: 3610 3610 153
Width: 636
Flags: W
HStem: 0 61<87 160 229 475.75> 401 50<179.183 233.894> 543 50<190.469 265.553>
VStem: 125 52<453.583 530.272> 268 55<463.414 539.885>
DStem2: 147.034 0 216.034 0 0.207912 0.978148<76.7087 416.187> 462.957 0 532.145 0 0.207912 0.978148<64.7573 603.105>
LayerCount: 2
Fore
SplineSet
125 470 m 0
 125 528 171 593 243 593 c 0
 301 593 323 558 323 517 c 0
 323 508 322 499 320 490 c 2
 229 61 l 1
 431 61 l 2
 446 61 478 69 484 99 c 2
 588 590 l 1
 657 590 l 1
 550 84 l 2
 538 26 487 0 441 0 c 2
 74 0 l 1
 87 61 l 1
 160 61 l 1
 234 407 l 1
 234 407 218 401 198 401 c 0
 157 401 125 426 125 470 c 0
231 543 m 0
 199 543 177 513 177 485 c 0
 177 466 188 451 212 451 c 0
 246 451 268 481 268 508 c 0
 268 527 256 543 231 543 c 0
EndSplineSet
Validated: 1
EndChar

StartChar: uni0E1B
Encoding: 3611 3611 154
Width: 636
Flags: W
HStem: 0 61<87 160 229 475.75> 401 50<179.183 233.894> 543 50<190.469 265.553>
VStem: 125 52<453.583 530.272> 268 55<463.414 539.885>
DStem2: 147.034 0 216.034 0 0.207912 0.978148<76.7087 416.187> 462.957 0 532.145 0 0.207912 0.978148<64.7573 905.735>
AnchorPoint: "AboveBase" 564 659 basechar 0
LayerCount: 2
Fore
SplineSet
125 470 m 0
 125 528 171 593 243 593 c 0
 301 593 323 558 323 517 c 0
 323 508 322 499 320 490 c 2
 229 61 l 1
 431 61 l 2
 446 61 478 69 484 99 c 2
 651 886 l 1
 720 886 l 1
 550 84 l 2
 538 26 487 0 441 0 c 2
 74 0 l 1
 87 61 l 1
 160 61 l 1
 234 407 l 1
 234 407 218 401 198 401 c 0
 157 401 125 426 125 470 c 0
231 543 m 0
 199 543 177 513 177 485 c 0
 177 466 188 451 212 451 c 0
 246 451 268 481 268 508 c 0
 268 527 256 543 231 543 c 0
EndSplineSet
Validated: 1
EndChar

StartChar: uni0E1C
Encoding: 3612 3612 155
Width: 639
Flags: W
HStem: 0 21G<451.5 527.237> 401 50<243.942 317.558> 543 50<255.425 328.687>
VStem: 331 51<463.152 540.847>
DStem2: 80.5749 0 150.368 0 0.207912 0.978148<16.3906 77.8129 147.415 430.629> 454.368 0 523 0 0.207912 0.978148<132.904 603.02>
LayerCount: 2
Fore
SplineSet
382 521 m 0
 382 454 332 401 271 401 c 0
 250 401 237 407 237 407 c 1
 178 130 l 1
 187 145 276 249 366 303 c 1
 433 250 482 136 482 130 c 1
 579 590 l 1
 648 590 l 1
 523 0 l 1
 454 0 l 1
 449 56 404 179 350 227 c 1
 306 198 212 115 150 2 c 1
 81 2 l 1
 185 490 l 2
 195 536 241 593 307 593 c 0
 337 593 382 578 382 521 c 0
296 543 m 0
 264 543 242 513 242 485 c 0
 242 466 253 451 277 451 c 0
 309 451 331 481 331 509 c 0
 331 528 320 543 296 543 c 0
EndSplineSet
Validated: 1
EndChar

StartChar: uni0E1D
Encoding: 3613 3613 156
Width: 639
Flags: W
HStem: 0 21G<463.5 539.244> 401 50<255.942 329.558> 543 50<267.207 341.088>
VStem: 343 51<463.152 540.56>
DStem2: 92.5749 0 162.368 0 0.207912 0.978148<16.3906 77.8129 147.415 430.629> 466.368 0 535 0 0.207912 0.978148<132.904 905.65>
AnchorPoint: "AboveBase" 567 659 basechar 0
LayerCount: 2
Fore
SplineSet
394 521 m 0
 394 454 344 401 283 401 c 0
 262 401 249 407 249 407 c 1
 190 130 l 1
 199 144 291 251 378 303 c 1
 446 249 494 136 494 130 c 1
 654 886 l 1
 723 886 l 1
 535 0 l 1
 466 0 l 1
 461 56 416 179 362 227 c 1
 318 198 224 115 162 2 c 1
 93 2 l 1
 197 490 l 2
 207 536 252 593 319 593 c 0
 351 593 394 576 394 521 c 0
308 543 m 0
 276 543 254 513 254 485 c 0
 254 466 265 451 289 451 c 0
 321 451 343 481 343 509 c 0
 343 528 332 543 308 543 c 0
EndSplineSet
Validated: 1
EndChar

StartChar: uni0E1E
Encoding: 3614 3614 157
Width: 698
Flags: W
HStem: 0 21G<143 214 518 590.237> 401 50<174.495 229.894> 543 50<185.516 261.08>
VStem: 120 52<453.535 530.308> 264 55<465.336 539.885> 452 69<521.762 590> 460 53<314.805 463>
DStem2: 143 0 212.339 0 0.207912 0.978148<214.795 416.194> 517.339 0 586 0 0.207912 0.978148<200.379 603.026>
LayerCount: 2
Fore
SplineSet
120 470 m 0xfa
 120 530 166 593 238 593 c 0
 296 593 319 558 319 517 c 0
 319 508 318 499 316 490 c 2
 254 196 l 1
 323 292 429 482 452 590 c 1
 521 590 l 1xfc
 515 561 513 531 513 500 c 0
 513 376 553 245 559 196 c 1
 642 590 l 1
 711 590 l 1
 586 0 l 1
 518 0 l 1
 518 18 l 2
 518 179 460 264 460 435 c 2
 460 463 l 1
 459 460 433 366 351 247 c 0
 243 90 214 2 214 0 c 1
 143 0 l 1
 230 407 l 1
 230 407 213 401 193 401 c 0
 166 401 120 417 120 470 c 0xfa
227 543 m 0
 194 543 172 513 172 486 c 0
 172 467 184 451 208 451 c 0
 242 451 264 481 264 508 c 0
 264 527 252 543 227 543 c 0
EndSplineSet
Validated: 1
EndChar

StartChar: uni0E1F
Encoding: 3615 3615 158
Width: 698
Flags: W
HStem: 0 21G<143 214 518 590.244> 401 50<174.495 229.894> 543 50<185.516 261.08>
VStem: 120 52<453.535 530.308> 264 55<465.336 539.885> 452 69<521.762 590> 460 53<314.805 463>
DStem2: 143 0 212.339 0 0.207912 0.978148<214.795 416.194> 517.339 0 586 0 0.207912 0.978148<200.379 905.656>
AnchorPoint: "AboveBase" 627 659 basechar 0
LayerCount: 2
Fore
SplineSet
120 470 m 0xfa
 120 530 166 593 238 593 c 0
 296 593 319 558 319 517 c 0
 319 508 318 499 316 490 c 2
 254 196 l 1
 323 292 429 482 452 590 c 1
 521 590 l 1xfc
 515 561 513 531 513 500 c 0
 513 376 553 245 559 196 c 1
 705 886 l 1
 774 886 l 1
 586 0 l 1
 518 0 l 1
 518 18 l 2
 518 179 460 264 460 435 c 2
 460 463 l 1
 459 460 433 366 351 247 c 0
 243 90 214 2 214 0 c 1
 143 0 l 1
 230 407 l 1
 230 407 213 401 193 401 c 0
 166 401 120 417 120 470 c 0xfa
227 543 m 0
 194 543 172 513 172 486 c 0
 172 467 184 451 208 451 c 0
 242 451 264 481 264 508 c 0
 264 527 252 543 227 543 c 0
EndSplineSet
Validated: 1
EndChar

StartChar: uni0E20
Encoding: 3616 3616 159
Width: 712
Flags: W
HStem: -3 50<117.449 196.35> 139 50<128.619 207.453> 532 61<369.105 585.882>
VStem: 64 51<49.4823 125.35> 621 71<390.574 499.004>
DStem2: 177.464 -3 246.107 -3 0.207912 0.978148<190.155 405.515> 528.362 -3 597.362 -3 0.207912 0.978148<17.4129 457.103>
LayerCount: 2
Fore
SplineSet
64 72 m 0
 64 141 121 189 181 189 c 0
 202 189 217 183 217 183 c 1
 246 322 l 2
 261 392 326 426 326 426 c 1
 298 461 230 483 205 487 c 1
 229 512 357 593 495 593 c 0
 616 593 692 544 692 458 c 0
 692 447 691 435 688 422 c 2
 598 0 l 1
 529 0 l 1
 618 418 l 2
 620 428 621 437 621 445 c 0
 621 507 566 532 489 532 c 0
 407 532 359 508 341 498 c 1
 362 498 438 423 438 423 c 1
 425 423 332 400 312 308 c 2
 268 100 l 2
 257 48 218 -3 145 -3 c 0
 97 -3 64 25 64 72 c 0
173 139 m 0
 136 139 115 108 115 82 c 0
 115 63 126 47 153 47 c 0
 186 47 210 76 210 103 c 0
 210 122 198 139 173 139 c 0
EndSplineSet
Validated: 1
EndChar

StartChar: uni0E21
Encoding: 3617 3617 160
Width: 665
Flags: W
HStem: -3 61<150.845 207.744 428.109 487.825> 190 61<176.016 233> 401 50<218.811 279.694> 543 50<228.575 308.234>
VStem: 87 62<58.5547 163.017> 164 52<454.058 529.811> 311 58<463.624 540.175>
DStem2: 191.977 -3 261.72 -3 0.207912 0.978148<58.9089 176.945 268.929 419.342> 314 246 295 156 0.572182 -0.820127<62.94 237.553> 474.954 -3 543.954 -3 0.207912 0.978148<60.0975 606.248>
LayerCount: 2
Fore
SplineSet
164 472 m 0
 164 532 214 593 287 593 c 0
 347 593 369 559 369 518 c 0
 369 509 368 500 366 490 c 2
 314 246 l 1
 404 117 l 2
 419 95 434 58 461 58 c 0
 486 58 495 91 500 115 c 2
 601 590 l 1
 670 590 l 1
 572 127 l 2
 562 80 541 -3 448 -3 c 0
 421 -3 396 9 379 34 c 2
 295 156 l 1
 280 83 l 2
 270 37 221 -3 174 -3 c 0
 115 -3 87 38 87 88 c 0
 87 155 139 251 246 251 c 1
 280 407 l 1
 280 407 263 401 241 401 c 0
 196 401 164 427 164 472 c 0
273 543 m 0
 237 543 216 513 216 487 c 0
 216 468 228 451 254 451 c 0
 290 451 311 482 311 508 c 0
 311 527 299 543 273 543 c 0
233 190 m 1
 166 190 149 138 149 96 c 0
 149 75 156 58 174 58 c 0
 204 58 210 80 214 98 c 2
 233 190 l 1
EndSplineSet
Validated: 1
EndChar

StartChar: uni0E22
Encoding: 3618 3618 161
Width: 622
Flags: W
HStem: 0 61<168 443.633> 401 50<250.446 331.313> 543 50<261.497 340.605>
VStem: 163 70<321.104 406.859> 344 51<463.866 539.793>
DStem2: 86 0 155.034 0 0.207912 0.978148<76.7158 244.009 382.88 431.518> 435.406 0 504.044 0 0.207912 0.978148<67.7813 603.012>
LayerCount: 2
Fore
SplineSet
395 519 m 0
 395 457 343 401 278 401 c 0
 256 401 242 408 242 408 c 1
 234 372 l 2
 233 368 233 364 233 360 c 0
 233 302 330 299 336 297 c 1
 328 258 l 1
 210 258 195 189 178 107 c 2
 168 61 l 1
 401 61 l 2
 415 61 451 72 459 111 c 2
 560 590 l 1
 629 590 l 1
 527 108 l 2
 511 33 457 0 392 0 c 2
 86 0 l 1
 116 141 l 2
 138 244 186 263 236 281 c 1
 220 284 163 297 163 354 c 0
 163 361 164 368 166 376 c 2
 190 490 l 2
 200 536 242 593 313 593 c 0
 360 593 395 566 395 519 c 0
305 543 m 0
 269 543 248 512 248 486 c 0
 248 467 260 451 286 451 c 0
 322 451 344 481 344 507 c 0
 344 526 331 543 305 543 c 0
EndSplineSet
Validated: 1
EndChar

StartChar: uni0E23
Encoding: 3619 3619 162
Width: 501
Flags: W
HStem: -3 50<275.605 355.024> 139 50<286.824 365.844> 502 61<414.729 582.14> 532 61<261.198 449.817>
VStem: 221 52<50.0343 125.925> 405 71<231.062 380.165>
DStem2: 335.464 -3 404.107 -3 0.207912 0.978148<190.155 342.885>
LayerCount: 2
Fore
SplineSet
221 71 m 0xdc
 221 145 284 189 339 189 c 0
 361 189 375 183 375 183 c 1
 403 316 l 2
 404 322 405 328 405 333 c 0
 405 433 194 445 130 463 c 1
 168 517 236 593 355 593 c 0xdc
 421 593 459 563 511 563 c 0
 545 563 573 583 575 583 c 1
 596 526 l 1
 573 517 545 502 504 502 c 0xec
 449 502 405 532 346 532 c 0
 299 532 255 513 244 497 c 1
 278 493 476 457 476 352 c 0
 476 338 474 323 470 305 c 2
 426 100 l 2
 415 48 377 -3 303 -3 c 0
 255 -3 221 24 221 71 c 0xdc
330 139 m 0
 297 139 273 110 273 83 c 0
 273 64 285 47 310 47 c 0
 347 47 368 78 368 104 c 0
 368 123 357 139 330 139 c 0
EndSplineSet
Validated: 1
EndChar

StartChar: uni0E24
Encoding: 3620 3620 163
Width: 610
Flags: W
HStem: -3 50<170.607 248.985> 139 50<198.319 259.884> 532 61<283.949 498.742>
VStem: 108 59<49.7311 125.062> 262 52<60.3699 136.184> 533 71<340.625 499.73>
DStem2: 44.0447 -215 113.402 -215 0.207912 0.978148<421.312 620.332> 395 -215 464 -215 0.207912 0.978148<14.3459 674.879>
LayerCount: 2
Fore
SplineSet
314 118 m 0
 314 58 263 -3 190 -3 c 0
 130 -3 108 31 108 72 c 0
 108 81 109 91 111 100 c 2
 158 322 l 2
 172 387 239 426 239 426 c 1
 207 465 135 484 118 487 c 1
 142 512 271 593 408 593 c 0
 530 593 604 544 604 458 c 0
 604 447 603 435 600 422 c 2
 464 -215 l 1
 395 -215 l 1
 530 418 l 2
 532 428 533 438 533 446 c 0
 533 508 479 532 402 532 c 0
 319 532 254 498 254 498 c 1
 274 498 352 423 352 423 c 1
 340 423 244 400 224 308 c 2
 198 183 l 1
 198 183 214 189 236 189 c 0
 281 189 314 163 314 118 c 0
224 139 m 0
 191 139 167 110 167 83 c 0
 167 64 179 47 204 47 c 0
 241 47 262 78 262 104 c 0
 262 123 251 139 224 139 c 0
EndSplineSet
Validated: 1
EndChar

StartChar: uni0E25
Encoding: 3621 3621 164
Width: 593
Flags: W
HStem: -3 50<166.865 244.773> 139 50<195.504 255.914> 358 61<238.387 318.089> 532 61<282.558 473.866>
VStem: 105 59<49.6616 125.845> 259 52<60.0394 135.642> 504 70<335.406 503.552>
DStem2: 86.1067 -3 155.464 -3 0.207912 0.978148<204.576 380.117> 411.362 -3 480.362 -3 0.207912 0.978148<17.4129 74.3111 222.933 459.899>
LayerCount: 2
Fore
SplineSet
311 117 m 0
 311 51 255 -3 189 -3 c 0
 127 -3 105 31 105 72 c 0
 105 81 106 91 108 100 c 2
 152 305 l 2
 161 345 198 419 288 419 c 0
 407 419 458 215 458 215 c 1
 499 411 l 2
 502 424 504 437 504 448 c 0
 504 500 472 532 381 532 c 0
 278 532 215 473 196 439 c 1
 153 474 l 1
 204 537 273 593 397 593 c 0
 502 593 574 548 574 457 c 0
 574 444 572 429 569 414 c 2
 481 0 l 1
 412 0 l 1
 425 63 l 2
 425 65 426 67 426 70 c 0
 426 123 354 358 278 358 c 0
 248 358 226 328 220 302 c 2
 195 183 l 1
 195 183 212 189 233 189 c 0
 279 189 311 162 311 117 c 0
222 139 m 0
 185 139 164 108 164 82 c 0
 164 63 175 47 202 47 c 0
 235 47 259 76 259 103 c 0
 259 122 247 139 222 139 c 0
EndSplineSet
Validated: 1
EndChar

StartChar: uni0E26
Encoding: 3622 3622 165
Width: 666
Flags: W
HStem: -3 50<77.4491 156.35> 139 50<88.6194 167.453> 532 61<329.105 545.882>
VStem: 24 51<49.4823 125.35> 581 71<390.15 499.004>
DStem2: 92.4025 -215 161.045 -215 0.207912 0.978148<406.892 622.251> 443 -215 512 -215 0.207912 0.978148<14.3459 673.902>
LayerCount: 2
Fore
SplineSet
24 72 m 0
 24 141 81 189 141 189 c 0
 162 189 177 183 177 183 c 1
 206 322 l 2
 221 392 286 426 286 426 c 1
 258 461 190 483 165 487 c 1
 189 512 317 593 455 593 c 0
 576 593 652 544 652 458 c 0
 652 447 651 435 648 422 c 2
 512 -215 l 1
 443 -215 l 1
 578 418 l 2
 580 428 581 437 581 445 c 0
 581 507 526 532 449 532 c 0
 367 532 319 508 301 498 c 1
 322 498 398 423 398 423 c 1
 385 423 292 400 272 308 c 2
 228 100 l 2
 217 48 178 -3 105 -3 c 0
 57 -3 24 25 24 72 c 0
133 139 m 0
 96 139 75 108 75 82 c 0
 75 63 86 47 113 47 c 0
 146 47 170 76 170 103 c 0
 170 122 158 139 133 139 c 0
EndSplineSet
Validated: 1
EndChar

StartChar: uni0E27
Encoding: 3623 3623 166
Width: 545
Flags: W
HStem: -3 50<307.449 386.35> 139 50<318.179 397.346> 533 60<248.107 429.667>
VStem: 254 51<49.4823 125.132> 460 71<342.094 503.516>
DStem2: 367.464 -3 436.107 -3 0.207912 0.978148<190.155 458.901>
LayerCount: 2
Fore
SplineSet
254 72 m 0
 254 140 309 189 371 189 c 0
 393 189 407 183 407 183 c 1
 456 412 l 2
 459 425 460 436 460 447 c 0
 460 512 409 533 334 533 c 0
 247 533 184 476 160 429 c 1
 112 454 l 1
 148 513 227 593 355 593 c 0
 468 593 531 536 531 458 c 0
 531 447 529 436 527 425 c 2
 458 100 l 2
 447 48 408 -3 335 -3 c 0
 287 -3 254 25 254 72 c 0
363 139 m 0
 326 139 305 108 305 82 c 0
 305 63 316 47 343 47 c 0
 376 47 400 76 400 103 c 0
 400 122 388 139 363 139 c 0
EndSplineSet
Validated: 1
EndChar

StartChar: uni0E28
Encoding: 3624 3624 167
Width: 610
Flags: W
HStem: 0 21G<121 194.255 431 504.232> 227 50<248.172 326.478> 371 50<259.496 337.382> 532 61<281.631 478.347>
VStem: 100 67<254.466 418.774> 340 50<290.682 360.401> 515 74<365.775 439.763>
DStem2: 121 0 190 0 0.207912 0.978148<14.3459 122.979> 431 0 500 0 0.207912 0.978148<14.3459 423.499>
LayerCount: 2
Fore
SplineSet
100 327 m 0
 100 433 182 593 400 593 c 0
 508 593 544 546 552 535 c 1
 563 542 600 588 615 619 c 1
 673 598 l 1
 637 526 580 487 578 486 c 1
 585 476 589 458 589 438 c 0
 589 425 587 410 584 397 c 2
 500 0 l 1
 431 0 l 1
 509 366 l 2
 511 373 515 397 515 416 c 0
 515 426 514 435 511 440 c 1
 473 405 394 354 388 354 c 1
 389 348 390 343 390 337 c 0
 390 287 342 227 274 227 c 0
 252 227 240 235 240 235 c 1
 190 0 l 1
 121 0 l 1
 142 98 l 2
 144 106 145 113 145 121 c 0
 145 164 100 238 100 327 c 0
380 532 m 0
 233 532 167 423 167 318 c 0
 167 280 176 255 178 253 c 1
 191 317 l 2
 199 354 232 421 317 421 c 0
 358 421 369 400 370 399 c 1
 394 411 445 442 498 490 c 1
 485 501 481 532 380 532 c 0
303 371 m 0
 267 371 246 339 246 312 c 0
 246 293 257 277 283 277 c 0
 317 277 340 307 340 335 c 0
 340 355 328 371 303 371 c 0
EndSplineSet
Validated: 1
EndChar

StartChar: uni0E29
Encoding: 3625 3625 168
Width: 666
Flags: W
HStem: 0 61<94 168 237 496.728> 217 56<472 529.813> 374 43<395.668 464.671> 401 50<183.777 241.677> 543 50<193.89 270.434>
VStem: 130 51<453.628 529.893> 273 58<463.414 539.885> 338 47<289.908 364.157> 467 47<297.382 372.2>
DStem2: 155.034 0 224.034 0 0.207912 0.978148<76.7087 416.187> 483.382 0 552.145 0 0.207912 0.978148<62.502 226.841 320.039 603.017>
AnchorPoint: "AboveBase" 699 659 basechar 0
LayerCount: 2
Fore
SplineSet
338 306 m 0xdf80
 338 358 380 417 451 417 c 0xef80
 493 417 514 388 514 353 c 0
 514 340 511 302 472 273 c 1
 475 273 490 271 507 271 c 0
 529 271 542 281 543 281 c 2
 608 590 l 1
 677 590 l 1
 616 299 l 1
 645 311 689 363 699 394 c 1
 744 362 l 1
 731 333 680 267 602 236 c 1
 570 84 l 2
 554 9 488 0 460 0 c 2
 81 0 l 1
 94 61 l 1
 168 61 l 1
 242 407 l 1
 242 407 226 401 206 401 c 0
 179 401 130 415 130 471 c 0
 130 539 187 593 250 593 c 0
 308 593 331 558 331 517 c 0
 331 508 330 499 328 490 c 2
 237 61 l 1
 453 61 l 2
 469 61 498 68 504 97 c 2
 530 222 l 2
 529 222 511 217 481 217 c 0
 425 217 338 235 338 306 c 0xdf80
434 374 m 0
 405 374 385 345 385 321 c 0
 385 303 395 288 418 288 c 0
 445 288 467 313 467 341 c 0
 467 359 457 374 434 374 c 0
236 543 m 0
 203 543 181 513 181 486 c 0
 181 467 193 451 217 451 c 0xdf80
 251 451 273 481 273 508 c 0
 273 527 261 543 236 543 c 0
EndSplineSet
Validated: 1
EndChar

StartChar: uni0E2A
Encoding: 3626 3626 169
Width: 579
Flags: W
HStem: -3 50<151.084 230.983> 139 50<179.069 241.397> 359 61<218.933 300.23> 533 60<263.314 452.365> 581 20G<619 645.535>
VStem: 89 59<49.9034 126.026> 244 52<59.7481 135.469>
DStem2: 70.1067 -3 139.464 -3 0.207912 0.978148<204.576 381.494> 394.362 -3 463.362 -3 0.207912 0.978148<17.4129 74.3111 222.933 424.36>
LayerCount: 2
Fore
SplineSet
296 117 m 0xee
 296 51 239 -3 173 -3 c 0
 111 -3 89 31 89 72 c 0
 89 81 90 91 92 100 c 2
 136 305 l 2
 145 347 183 420 275 420 c 0
 326 420 351 397 354 394 c 1
 441 428 479 467 484 467 c 1
 481 483 468 533 359 533 c 0
 258 533 202 472 180 440 c 1
 136 475 l 1
 179 527 247 593 375 593 c 0xf6
 502 593 542 523 544 512 c 1
 586 542 612 578 626 601 c 1
 668 558 l 1
 610 479 567 461 559 451 c 1
 559 451 557 438 556 432 c 2
 464 0 l 1
 395 0 l 1
 408 63 l 2
 408 65 409 67 409 70 c 0
 409 124 337 359 261 359 c 0
 231 359 211 334 205 308 c 2
 179 183 l 1
 179 183 196 189 217 189 c 0
 263 189 296 162 296 117 c 0xee
483 412 m 1
 458 396 416 370 376 356 c 1
 399 322 428 264 441 215 c 1
 483 412 l 1
206 139 m 0
 170 139 148 109 148 83 c 0
 148 64 160 47 186 47 c 0
 222 47 244 77 244 103 c 0
 244 122 232 139 206 139 c 0
EndSplineSet
Validated: 1
EndChar

StartChar: uni0E2B
Encoding: 3627 3627 170
Width: 651
Flags: W
HStem: 0 21G<149 238 469 542.222> 401 50<174.703 235.693> 543 50<184.534 263.899 504.294 590.888>
VStem: 121 51<453.98 529.687> 267 58<464.819 540.175> 438 55<449.699 532.108> 537 66<218.859 376.136> 594 54<468.885 539.358>
DStem2: 149 0 217.952 0 0.207912 0.978148<14.3459 96.3217 197.335 416.194> 469 0 538 0 0.207912 0.978148<14.3459 342.149>
LayerCount: 2
Fore
SplineSet
531 438 m 1xfd
 544 444 594 475 594 510 c 0
 594 526 583 543 553 543 c 0
 505 543 493 508 493 490 c 0
 493 457 531 438 531 438 c 1xfd
648 515 m 0
 648 450 580 416 568 407 c 1
 593 375 603 354 603 325 c 0
 603 310 600 293 595 270 c 2
 538 0 l 1
 469 0 l 1
 527 274 l 2
 533 303 537 322 537 336 c 0xfe
 537 354 531 364 518 377 c 1
 518 377 451 327 364 225 c 0
 297 146 258 89 218 0 c 1
 149 0 l 1
 236 407 l 1
 236 407 218 401 197 401 c 0
 152 401 121 427 121 472 c 0
 121 538 176 593 242 593 c 0
 303 593 325 559 325 518 c 0
 325 509 324 499 322 490 c 2
 256 179 l 1
 334 282 434 369 486 407 c 1
 460 424 438 441 438 479 c 0
 438 551 498 593 563 593 c 0
 634 593 648 546 648 515 c 0
229 543 m 0
 193 543 172 512 172 486 c 0
 172 467 184 451 210 451 c 0
 246 451 267 482 267 508 c 0
 267 527 255 543 229 543 c 0
EndSplineSet
Validated: 1
EndChar

StartChar: uni0E2C
Encoding: 3628 3628 171
Width: 706
Flags: W
HStem: 0 21G<139 236.994 512.449 609.254> 400 50<178.823 224.723> 455 56<498.569 634.511> 543 50<189.301 265.639> 588 56<503.489 640.757>
VStem: 124 52<452.399 529.609> 268 48<464.833 540.196> 417 66<528.762 566.766>
DStem2: 139 0 208.343 0 0.207912 0.978148<133.009 415.008> 233 116 224 0 0.544812 0.838558<0 296.127> 487 435 441 334 0.221873 -0.975075<88.2764 338.503> 535.894 0 605 0 0.207912 0.978148<106.323 478.378>
LayerCount: 2
Fore
SplineSet
581 588 m 0xef
 534 588 483 558 483 550 c 0
 483 546 510 511 564 511 c 0
 600 511 661 520 661 540 c 0
 661 551 628 588 581 588 c 0xef
124 470 m 0
 124 527 169 593 242 593 c 0xf7
 298 593 316 563 316 524 c 0
 316 513 314 502 312 491 c 2
 233 116 l 1
 437 435 l 1
 487 435 l 1
 558 104 l 1
 635 468 l 1
 617 460 569 455 542 455 c 0
 472 455 417 502 417 538 c 0
 417 566 487 644 589 644 c 0
 689 644 706 583 717 566 c 1
 750 588 800 650 806 658 c 1
 833 616 l 1
 812 582 744 518 712 503 c 1
 605 0 l 1
 517 0 l 1
 441 334 l 1
 224 0 l 1
 139 0 l 1
 225 406 l 1
 225 406 213 400 194 400 c 0
 164 400 124 420 124 470 c 0
231 543 m 0
 198 543 176 513 176 485 c 0
 176 466 188 450 212 450 c 0
 247 450 268 481 268 508 c 0
 268 527 256 543 231 543 c 0
EndSplineSet
Validated: 1
EndChar

StartChar: uni0E2D
Encoding: 3629 3629 172
Width: 567
Flags: W
HStem: 0 61<181.525 407.569> 215 50<209.219 284.438> 359 50<220.083 296.635> 532 61<277.911 456.754>
VStem: 104 75<38.0876 182.156> 299 51<278.099 356.649> 486 71<343.5 505.08>
DStem2: 87.2322 0 155.556 0 0.207912 0.978148<115.168 241.218> 393.619 0 462.508 0 0.207912 0.978148<60.608 456.025>
LayerCount: 2
Fore
SplineSet
350 337 m 0
 350 268 295 215 236 215 c 0
 217 215 203 222 203 222 c 1
 180 115 l 2
 179 109 179 103 179 98 c 0
 179 65 206 61 211 61 c 2
 367 61 l 2
 407 61 412 87 417 110 c 2
 483 417 l 2
 485 427 486 438 486 447 c 0
 486 500 450 532 380 532 c 0
 297 532 235 497 204 445 c 1
 158 477 l 1
 234 584 343 593 398 593 c 0
 494 593 557 541 557 459 c 0
 557 447 555 434 552 420 c 2
 481 87 l 2
 465 13 409 0 380 0 c 2
 175 0 l 2
 144 0 104 13 104 65 c 0
 104 73 105 83 107 93 c 2
 152 305 l 2
 162 353 206 409 274 409 c 0
 303 409 350 394 350 337 c 0
263 359 m 0
 228 359 207 327 207 300 c 0
 207 281 218 265 243 265 c 0
 276 265 299 296 299 324 c 0
 299 343 287 359 263 359 c 0
EndSplineSet
Validated: 1
EndChar

StartChar: uni0E2E
Encoding: 3630 3630 173
Width: 547
Flags: W
HStem: 0 61<146.416 385.843> 148 50<160.836 235.628> 291 50<172.786 246.074> 397 56<226.002 418.252> 537 56<243.468 433.337>
VStem: 68 75<64.2733 154.273> 129 73<476.479 509.77> 249 51<210.815 288.886>
DStem2: 371.619 0 440.508 0 0.207912 0.978148<60.0216 442.306>
LayerCount: 2
Fore
SplineSet
129 488 m 0xfb
 129 530 254 593 361 593 c 0
 480 593 495 549 517 529 c 1
 521 530 554 560 578 599 c 1
 620 566 l 1
 607 546 575 502 535 474 c 1
 536 468 538 458 536 448 c 2
 459 87 l 2
 442 5 383 0 359 0 c 2
 139 0 l 2
 97 0 68 23 68 67 c 0
 68 75 69 84 71 93 c 2
 102 238 l 2
 112 286 156 341 227 341 c 0
 273 341 300 311 300 268 c 0
 300 202 246 148 188 148 c 0
 167 148 153 155 153 155 c 1
 144 115 l 2
 143 110 143 105 143 101 c 0xfd
 143 75 161 61 176 61 c 2
 346 61 l 2
 385 61 390 86 395 110 c 2
 458 403 l 2
 462 420 463 428 463 433 c 0
 463 436 463 438 462 440 c 1
 451 434 395 397 297 397 c 0
 192 397 129 451 129 488 c 0xfb
461 495 m 1
 427 523 404 537 359 537 c 0
 269 537 202 505 202 494 c 0xfb
 202 482 261 453 321 453 c 0
 388 453 414 468 461 495 c 1
213 291 m 0
 180 291 159 260 159 232 c 0
 159 213 169 198 193 198 c 0
 227 198 249 228 249 256 c 0
 249 275 238 291 213 291 c 0
EndSplineSet
Validated: 1
EndChar

StartChar: uni0E2F
Encoding: 3631 3631 174
Width: 518
Flags: W
HStem: -2 53<316.623 360.88> 285 54<209.888 354.633> 401 50<207.26 286.8> 543 50<218.673 296.946>
VStem: 128 77<383.553 511.196> 300 52<464.592 539.709> 503 58<519.213 587.325>
DStem2: 376.542 -2 445.967 -2 0.207912 0.978148<80.6933 385.49 471.342 577.081>
LayerCount: 2
Fore
SplineSet
352 522 m 0
 352 463 296 401 233 401 c 0
 219 401 205 405 193 411 c 1
 194 396 188 339 276 339 c 0
 388 339 477 468 500 576 c 0
 502 584 502 590 503 593 c 1
 506 594 510 594 513 594 c 0
 530 594 561 585 561 549 c 0
 561 544 560 539 559 533 c 2
 477 144 l 2
 454 37 368 1 319 -2 c 1
 301 51 l 1
 313 51 390 60 408 146 c 2
 457 375 l 1
 424 331 355 285 269 285 c 0
 168 285 128 348 128 419 c 0
 128 526 201 593 273 593 c 0
 321 593 352 565 352 522 c 0
262 543 m 0
 226 543 205 512 205 486 c 0
 205 467 217 451 243 451 c 0
 279 451 300 482 300 508 c 0
 300 527 288 543 262 543 c 0
EndSplineSet
Validated: 1
EndChar

StartChar: uni0E30
Encoding: 3632 3632 175
Width: 510
Flags: W
HStem: 10 62<141.683 270.214> 169 50<154.37 234.1> 366 62<217.888 346.531> 524 50<229.424 309.517>
VStem: 88 51<75.8923 154.033> 163 52<431.539 510.406> 237 51<86.21 165.797> 312 52<441.15 520.866>
LayerCount: 2
Fore
SplineSet
163 450 m 0
 163 515 219 574 285 574 c 0
 317 574 364 557 364 501 c 0
 364 472 356 452 338 428 c 1
 425 448 510 514 557 572 c 1
 535 472 l 1
 524 459 409 366 282 366 c 0
 217 366 163 392 163 450 c 0
88 95 m 0
 88 162 145 219 210 219 c 0
 241 219 288 202 288 146 c 0
 288 117 280 96 262 72 c 1
 284 78 386 103 481 216 c 1
 460 116 l 1
 448 103 331 10 205 10 c 0
 140 10 88 36 88 95 c 0
274 524 m 0
 237 524 215 492 215 465 c 0
 215 445 227 428 254 428 c 0
 290 428 312 459 312 488 c 0
 312 508 301 524 274 524 c 0
199 169 m 0
 162 169 139 137 139 109 c 0
 139 89 151 72 178 72 c 0
 214 72 237 103 237 132 c 0
 237 152 226 169 199 169 c 0
EndSplineSet
Validated: 1
EndChar

StartChar: uni0E31
Encoding: 3633 3633 176
Width: 0
Flags: W
HStem: 713 76<-152.826 14.9697> 713 62<-48 86.9395> 891 47<-141.107 -57.2198>
VStem: -206 49<793.296 875.299> -53 48<804.595 886.977>
AnchorPoint: "AboveMark" 27 659 mark 0
AnchorPoint: "AboveMark" 97 988 basemark 0
AnchorPoint: "AboveBase" 27 659 mark 0
LayerCount: 2
Fore
SplineSet
-5 863 m 0xb8
 -5 804 -47 777 -48 776 c 1
 -39 776 -31 775 -22 775 c 0x78
 124 775 251 894 274 921 c 1
 251 812 l 1
 187 763 63 713 -57 713 c 0
 -172 713 -206 768 -206 814 c 0
 -206 864 -163 938 -82 938 c 0
 -31 938 -5 904 -5 863 c 0xb8
-95 891 m 0
 -135 891 -157 856 -157 827 c 0
 -157 806 -144 789 -116 789 c 0xb8
 -76 789 -53 823 -53 852 c 0
 -53 873 -66 891 -95 891 c 0
EndSplineSet
Validated: 1
EndChar

StartChar: uni0E32
Encoding: 3634 3634 177
Width: 438
Flags: W
HStem: 0 21G<290 363.258> 531 61<218.109 370.855>
VStem: 384 71<350.797 517.406>
DStem2: 290 0 359 0 0.207912 0.978148<14.3459 473.645>
LayerCount: 2
Fore
SplineSet
305 592 m 0
 423 592 455 542 455 478 c 0
 455 459 452 438 448 418 c 2
 359 0 l 1
 290 0 l 1
 376 406 l 2
 381 429 384 449 384 465 c 0
 384 511 362 531 302 531 c 0
 211 531 175 472 152 441 c 1
 107 477 l 1
 143 530 188 592 305 592 c 0
EndSplineSet
Validated: 1
EndChar

StartChar: uni0E33
Encoding: 3635 3635 178
Width: 438
Flags: W
HStem: 0 21<290 363.258> 531 61<218.109 370.855> 629 50<-65.9231 23.59> 791 50<-50.6585 38.9054>
VStem: -122 51<684.46 771.426> 44 51<698.995 785.292> 384 71<350.797 517.406>
DStem2: 290 0 359 0 0.207912 0.978148<14.3459 473.645>
LayerCount: 2
Back
SplineSet
-38 676 m 0
 -38 676 l 0
 -98 676 -124 714 -124 759 c 0
 -124 819 -75 889 6 889 c 0
 66 889 92 851 92 806 c 0
 92 746 43 676 -38 676 c 0
-28 728 m 0
 -28 728 l 0
 15 728 40 765 40 796 c 0
 40 817 26 837 -5 837 c 0
 -46 837 -72 800 -72 769 c 0
 -72 748 -58 728 -28 728 c 0
353 0 m 1
 284 0 l 1
 369 406 l 2
 374 431 377 451 377 468 c 0
 377 512 356 532 296 532 c 0
 205 532 167 472 146 441 c 1
 101 477 l 1
 138 530 182 592 297 592 c 0
 302 592 305 592 310 592 c 0
 418 589 449 538 449 478 c 0
 449 458 446 438 441 418 c 2
 353 0 l 1
EndSplineSet
Fore
Refer: 201 3661 N 1 0 0 1 0 0 2
Refer: 177 3634 N 1 0 0 1 0 0 2
Validated: 1
MultipleSubs2: "Thai Sara Am Decomposition" uni0E4D uni0E32
Substitution2: "Thai Sara Am Lakkhang" uni0E32
EndChar

StartChar: uni0E34
Encoding: 3636 3636 179
Width: 0
Flags: W
HStem: 704 55<-324.379 -43.1512> 828 55<-249.155 -75.4722>
AnchorPoint: "AboveMark" -7 659 mark 0
AnchorPoint: "AboveMark" 63 988 basemark 0
AnchorPoint: "AboveBase" 27 659 mark 0
LayerCount: 2
Fore
SplineSet
27 656 m 1
 -49 690 -94 704 -188 704 c 0
 -275 704 -334 692 -420 662 c 1
 -391 789 -284 883 -147 883 c 0
 -36 883 33 805 33 705 c 0
 33 689 31 673 27 656 c 1
-326 737 m 1
 -281 750 -234 759 -175 759 c 0
 -106 759 -57 743 -21 730 c 1
 -36 794 -86 828 -157 828 c 0
 -229 828 -282 797 -326 737 c 1
EndSplineSet
Validated: 1
EndChar

StartChar: uni0E35
Encoding: 3637 3637 180
Width: 0
Flags: W
HStem: 708 54<-310.388 -25.3994> 834 53<-232.608 -59.948>
DStem2: -6 829 49 760 0.1606 0.98702<0 129.688>
AnchorPoint: "AboveMark" -7 659 mark 0
AnchorPoint: "AboveMark" 63 988 basemark 0
AnchorPoint: "AboveBase" 27 659 mark 0
LayerCount: 2
Fore
SplineSet
42 661 m 1
 -37 696 -83 708 -184 708 c 0
 -265 708 -323 696 -405 667 c 1
 -380 792 -260 887 -136 887 c 0
 -24 887 -8 829 -6 829 c 1
 21 956 l 1
 90 956 l 1
 49 760 l 1
 50 753 50 745 50 737 c 0
 50 704 44 669 42 661 c 1
-311 742 m 1
 -296 746 -248 762 -159 762 c 0
 -91 762 -44 748 -8 734 c 1
 -22 799 -71 834 -143 834 c 0
 -214 834 -270 800 -311 742 c 1
EndSplineSet
Validated: 1
EndChar

StartChar: uni0E36
Encoding: 3638 3638 181
Width: 0
Flags: W
HStem: 688 55<-324.049 -41.3761> 814 59<-250.176 -101> 924 44<-42.2365 35.1497>
VStem: -101 46<868 911.204> 38 47<846.453 921.339>
AnchorPoint: "AboveMark" -7 659 mark 0
AnchorPoint: "AboveMark" 14 988 basemark 0
AnchorPoint: "AboveBase" 27 659 mark 0
LayerCount: 2
Fore
SplineSet
-101 868 m 1
 -101 928 -47 968 9 968 c 0
 59 968 85 938 85 899 c 0
 85 870 70 818 11 796 c 1
 15 795 32 766 32 710 c 0
 32 690 30 668 24 642 c 1
 -49 675 -93 688 -182 688 c 0
 -274 688 -332 680 -421 648 c 1
 -392 784 -273 873 -148 873 c 0
 -120 873 -104 868 -101 868 c 1
0 924 m 0
 -35 924 -55 894 -55 868 c 0
 -55 849 -44 834 -19 834 c 0
 15 834 38 863 38 889 c 0
 38 908 26 924 0 924 c 0
-327 723 m 1
 -275 737 -243 743 -172 743 c 0
 -106 743 -60 727 -24 716 c 1
 -40 779 -89 814 -160 814 c 0
 -230 814 -285 782 -327 723 c 1
EndSplineSet
Validated: 1
EndChar

StartChar: uni0E37
Encoding: 3639 3639 182
Width: 0
Flags: W
HStem: 705 55<-299.962 -16.2093> 831 60<-223.6 -108.016>
DStem2: -39.1104 658 27.9569 658 0.207912 0.978148<188.111 306.774>
AnchorPoint: "AboveMark" -7 659 mark 0
AnchorPoint: "AboveMark" 5 988 basemark 0
AnchorPoint: "AboveBase" 27 659 mark 0
LayerCount: 2
Fore
SplineSet
-394 677 m 1
 -367 805 -257 891 -135 891 c 0
 -125 891 -116 890 -110 889 c 1
 -95 958 l 1
 -27 958 l 1
 -45 877 l 1
 -31 870 -11 859 -0 842 c 1
 25 958 l 1
 92 958 l 1
 49 757 l 1
 50 749 53 728 53 714 c 0
 53 703 51 663 50 658 c 1
 -24 691 -68 705 -158 705 c 0
 -251 705 -308 695 -397 664 c 1
 -394 677 l 1
-303 739 m 1
 -241 757 -199 760 -146 760 c 0
 -80 760 -35 744 1 733 c 1
 -15 796 -64 831 -134 831 c 0
 -205 831 -261 799 -303 739 c 1
EndSplineSet
Validated: 1
EndChar

StartChar: uni0E38
Encoding: 3640 3640 183
Width: 0
Flags: W
HStem: -202 50<-264.345 -223.436> -85 50<-258.262 -194.652>
VStem: -317 52<-150.62 -91.0969> -194 59<-145.378 -85.7058>
DStem2: -248 -313 -179 -313 0.207912 0.978148<14.3459 118.663>
AnchorPoint: "BelowBase" -120 -35 mark 0
AnchorPoint: "BelowMark" -180 -316 basemark 0
AnchorPoint: "BelowMark" -120 -35 mark 0
LayerCount: 2
Fore
SplineSet
-317 -141 m 0
 -317 -109 -295 -35 -210 -35 c 0
 -153 -35 -135 -62 -135 -97 c 0
 -135 -107 -137 -117 -139 -127 c 2
 -179 -313 l 1
 -248 -313 l 1
 -223 -197 l 1
 -223 -197 -234 -202 -249 -202 c 0
 -269 -202 -317 -191 -317 -141 c 0
-222 -85 m 0
 -246 -85 -265 -106 -265 -126 c 0
 -265 -140 -256 -152 -236 -152 c 0
 -211 -152 -194 -130 -194 -111 c 0
 -194 -98 -203 -85 -222 -85 c 0
EndSplineSet
Validated: 1
Substitution2: "Thai Sara U Macron Reordering" macronbelowcmb
Substitution2: "Thai Sara U Phinthu Reordering" uni0E3A
Substitution2: "Thai Sara U Nikhahit Reordering" uni0E4D
Substitution2: "Thai Sara U Thanthakhat Reordering" uni0E4C.low
Substitution2: "Thai Sara U Mai Chattawa Reordering" uni0E4B.low
Substitution2: "Thai Sara U Mai Tri Reordering" uni0E4A.low
Substitution2: "Thai Sara U Mai Tho Reordering" uni0E49.low
Substitution2: "Thai Sara U Mai Ek Reordering" uni0E48.low
EndChar

StartChar: uni0E39
Encoding: 3641 3641 184
Width: 0
Flags: W
HStem: -308 47<-299 -232.719> -208 50<-395.575 -351.161> -90 50<-388.984 -326.754>
VStem: -447 51<-157.341 -95.77> -326 58<-151.699 -91.1686>
DStem2: -247.304 -308 -183.966 -308 0.207912 0.978148<43.4604 269.937>
AnchorPoint: "BelowBase" -120 -35 mark 0
AnchorPoint: "BelowMark" -179 -311 basemark 0
AnchorPoint: "BelowMark" -120 -35 mark 0
LayerCount: 2
Fore
SplineSet
-447 -143 m 0
 -447 -90 -397 -40 -341 -40 c 0
 -289 -40 -268 -68 -268 -103 c 0
 -268 -110 -269 -118 -271 -126 c 2
 -299 -261 l 1
 -254 -261 l 2
 -237 -261 -236 -253 -232 -236 c 2
 -191 -44 l 1
 -127 -44 l 1
 -171 -247 l 2
 -178 -279 -188 -308 -218 -308 c 2
 -373 -308 l 1
 -351 -203 l 1
 -351 -203 -364 -208 -380 -208 c 0
 -418 -208 -447 -182 -447 -143 c 0
-354 -90 m 0
 -379 -90 -396 -113 -396 -132 c 0
 -396 -146 -388 -158 -369 -158 c 0
 -343 -158 -326 -135 -326 -116 c 0
 -326 -102 -335 -90 -354 -90 c 0
EndSplineSet
Validated: 1
Substitution2: "Thai Sara UU Macron Reordering" macronbelowcmb
Substitution2: "Thai Sara UU Phinthu Reordering" uni0E3A
Substitution2: "Thai Sara UU Nikhahit Reordering" uni0E4D
Substitution2: "Thai Sara UU Thanthakhat Reordering" uni0E4C.low
Substitution2: "Thai Sara UU Mai Chattawa Reordering" uni0E4B.low
Substitution2: "Thai Sara UU Mai Tri Reordering" uni0E4A.low
Substitution2: "Thai Sara UU Mai Tho Reordering" uni0E49.low
Substitution2: "Thai Sara UU Mai Ek Reordering" uni0E48.low
EndChar

StartChar: uni0E3A
Encoding: 3642 3642 185
Width: 0
Flags: W
HStem: -196 122<-230.92 -153.337>
VStem: -254 124<-171.625 -96.1855>
AnchorPoint: "BelowBase" -120 -35 mark 0
AnchorPoint: "BelowMark" -179 -311 basemark 0
AnchorPoint: "BelowMark" -120 -35 mark 0
LayerCount: 2
Fore
SplineSet
-130 -121 m 0
 -130 -156 -160 -196 -206 -196 c 0
 -240 -196 -254 -175 -254 -150 c 0
 -254 -115 -227 -74 -180 -74 c 0
 -146 -74 -130 -96 -130 -121 c 0
EndSplineSet
Validated: 1
Substitution2: "Thai Phinthu Macron Reordering" macronbelowcmb
Substitution2: "Thai Sara UU Phinthu Reordering" uni0E39
Substitution2: "Thai Sara U Phinthu Reordering" uni0E38
Substitution2: "Thai Phinthu Nikhahit Reordering" uni0E4D
Substitution2: "Thai Phinthu Thanthakhat Reordering" uni0E4C.low
Substitution2: "Thai Phinthu Mai Chattawa Reordering" uni0E4B.low
Substitution2: "Thai Phinthu Mai Tri Reordering" uni0E4A.low
Substitution2: "Thai Phinthu Mai Tho Reordering" uni0E49.low
Substitution2: "Thai Phinthu Mai Ek Reordering" uni0E48.low
Substitution2: "Thai Phinthu Maitaikhu Reordering" uni0E47
EndChar

StartChar: uni0E4D.high
Encoding: 63262 63262 186
Width: 0
Flags: W
HStem: 959 50<4.07692 93.59> 1121 50<19.3415 108.905>
VStem: -52 51<1014.46 1101.43> 114 51<1029 1115.29>
AnchorPoint: "AboveMark" 91 1228 basemark 0
AnchorPoint: "AboveMark" 40 988 mark 0
LayerCount: 2
Fore
SplineSet
165 1087 m 0
 165 1029 111 959 34 959 c 0
 -24 959 -52 999 -52 1043 c 0
 -52 1101 2 1171 79 1171 c 0
 137 1171 165 1131 165 1087 c 0
68 1121 m 0
 25 1121 -1 1083 -1 1052 c 0
 -1 1029 13 1009 44 1009 c 0
 88 1009 114 1046 114 1078 c 0
 114 1101 100 1121 68 1121 c 0
EndSplineSet
Validated: 1
EndChar

StartChar: uni0E3F
Encoding: 3647 3647 187
Width: 629
Flags: W
HStem: 0 61<166 259 341 473.014> 328 61<236 329 411 511.926> 633 61<288 394 476 546.433>
VStem: 556 69<149.135 292.661> 590 75<475.156 593.38>
DStem2: 64.0197 -94 133.054 -94 0.207912 0.978148<172.816 445.832 508.202 757.681> 239 -94 308 -94 0.207912 0.978148<14.3459 96.1041 172.82 431.49 508.206 743.34 820.055 892.594>
LayerCount: 2
Fore
SplineSet
342 389 m 1xe0
 394 633 l 1
 288 633 l 1
 236 389 l 1
 342 389 l 1xe0
272 61 m 1
 329 328 l 1
 223 328 l 1
 166 61 l 1
 272 61 l 1
398 61 m 2
 508 61 556 166 556 233 c 0xf0
 556 326 457 328 398 328 c 1
 341 61 l 1
 398 61 l 2
411 389 m 1
 554 389 590 478 590 533 c 0xe8
 590 576 567 628 463 633 c 1
 411 389 l 1
665 563 m 0
 665 514 640 415 529 368 c 1
 557 351 625 327 625 238 c 0xf0
 625 89 486 0 414 0 c 2
 328 0 l 1
 308 -94 l 1
 239 -94 l 1
 259 0 l 1
 84 0 l 1
 232 694 l 1
 407 694 l 1
 425 779 l 1
 494 779 l 1
 476 694 l 1
 524 694 l 2
 574 694 665 662 665 563 c 0
EndSplineSet
Validated: 1
EndChar

StartChar: uni0E40
Encoding: 3648 3648 188
Width: 340
Flags: W
HStem: -2 50<171.528 252.146> 140 50<201.219 261.905> 570 20G<213.746 287>
VStem: 111 58<50.9034 125.674> 265 52<60.5266 136.469>
DStem2: 92.1067 -2 161.464 -2 0.207912 0.978148<204.576 605.238>
LayerCount: 2
Fore
SplineSet
317 118 m 0
 317 51 260 -2 195 -2 c 0
 134 -2 111 32 111 73 c 0
 111 82 112 92 114 101 c 2
 218 590 l 1
 287 590 l 1
 201 184 l 1
 201 184 218 190 239 190 c 0
 285 190 317 163 317 118 c 0
227 140 m 0
 191 140 169 110 169 84 c 0
 169 65 181 48 207 48 c 0
 243 48 265 78 265 104 c 0
 265 123 253 140 227 140 c 0
EndSplineSet
Validated: 1
EndChar

StartChar: uni0E41
Encoding: 3649 3649 189
Width: 600
Flags: W
HStem: -2 50<171.528 252.146 440.227 519.599> 140 50<201.219 261.905 468.068 529.938> 570 20G<213.746 287 480.746 554>
VStem: 111 58<50.9034 125.674> 265 52<60.5266 136.469> 378 59<50.9034 125.674> 532 52<61.451 137.571>
DStem2: 92.1067 -2 161.464 -2 0.207912 0.978148<204.576 605.238> 359.107 -2 428.464 -2 0.207912 0.978148<204.576 605.238>
LayerCount: 2
Fore
SplineSet
584 121 m 0
 584 58 534 -2 462 -2 c 0
 401 -2 378 32 378 73 c 0
 378 82 379 92 381 101 c 2
 485 590 l 1
 554 590 l 1
 468 184 l 1
 468 184 484 190 506 190 c 0
 534 190 584 176 584 121 c 0
317 118 m 0
 317 51 260 -2 195 -2 c 0
 134 -2 111 32 111 73 c 0
 111 82 112 92 114 101 c 2
 218 590 l 1
 287 590 l 1
 201 184 l 1
 201 184 218 190 239 190 c 0
 285 190 317 163 317 118 c 0
495 140 m 0
 459 140 437 110 437 84 c 0
 437 65 449 48 475 48 c 0
 511 48 532 79 532 105 c 0
 532 124 521 140 495 140 c 0
227 140 m 0
 191 140 169 110 169 84 c 0
 169 65 181 48 207 48 c 0
 243 48 265 78 265 104 c 0
 265 123 253 140 227 140 c 0
EndSplineSet
Validated: 1
EndChar

StartChar: uni0E42
Encoding: 3650 3650 190
Width: 413
Flags: W
HStem: -2 50<217.528 298.146> 140 50<247.219 307.905> 935 61<404.783 549.03> 969 61<251.139 416.397>
VStem: 157 58<50.9034 124.932> 309 71<711.383 852.659> 311 52<60.5266 136.469>
DStem2: 138.107 -2 207.464 -2 0.207912 0.978148<204.576 828.487>
LayerCount: 2
Fore
SplineSet
363 118 m 0xda
 363 51 306 -2 241 -2 c 0
 180 -2 157 32 157 73 c 0
 157 82 158 92 160 101 c 2
 306 787 l 2
 308 795 309 802 309 809 c 0
 309 841 287 856 244 882 c 1
 199 908 143 925 137 925 c 1
 185 976 254 1030 333 1030 c 0xdc
 402 1030 442 996 485 996 c 0
 515 996 540 1008 545 1013 c 1
 557 960 l 1
 557 960 531 935 483 935 c 0xec
 421 935 383 969 324 969 c 0
 277 969 249 946 243 943 c 1
 246 943 304 920 336 895 c 0
 363 874 380 854 380 822 c 0xdc
 380 814 379 806 377 797 c 2
 247 184 l 1
 247 184 264 190 285 190 c 0
 331 190 363 163 363 118 c 0xda
273 140 m 0
 237 140 215 110 215 84 c 0
 215 65 227 48 253 48 c 0
 289 48 311 78 311 104 c 0xca
 311 123 299 140 273 140 c 0
EndSplineSet
Validated: 1
EndChar

StartChar: uni0E43
Encoding: 3651 3651 191
Width: 400
Flags: W
HStem: -2 50<228.883 307.498> 140 50<257.319 318.329> 752 44<185.144 235.911> 874 44<229 242.638> 964 61<244.658 335.797>
VStem: 140 45<796.5 866.41> 167 59<50.7311 126.484> 243 46<801.077 873.627> 321 52<60.855 136.957> 343 72<831 957.308>
DStem2: 148.107 -2 217.464 -2 0.207912 0.978148<204.576 939.255>
LayerCount: 2
Fore
SplineSet
373 120 m 0xf980
 373 56 319 -2 250 -2 c 0
 190 -2 167 32 167 73 c 0xfb80
 167 82 168 91 170 101 c 2
 341 905 l 2
 342 909 343 913 343 917 c 0
 343 942 325 964 297 964 c 0
 266 964 239 946 229 917 c 1
 231 917 235 918 242 918 c 0
 278 918 289 894 289 867 c 0
 289 817 257 752 199 752 c 0
 173 752 140 764 140 817 c 0
 140 894 203 1025 315 1025 c 0
 382 1025 415 989 415 939 c 0xfd40
 415 930 414 921 412 912 c 2
 257 184 l 1
 257 184 273 190 295 190 c 0
 324 190 373 174 373 120 c 0xf980
223 874 m 0
 200 874 185 842 185 821 c 0xfd
 185 807 191 796 206 796 c 0
 229 796 243 822 243 846 c 0
 243 861 237 874 223 874 c 0
283 140 m 0
 250 140 226 111 226 84 c 0
 226 65 238 48 263 48 c 0
 300 48 321 79 321 105 c 0xfb80
 321 124 310 140 283 140 c 0
EndSplineSet
Validated: 1
EndChar

StartChar: uni0E44
Encoding: 3652 3652 192
Width: 449
Flags: W
HStem: -2 50<264.492 343.827> 140 50<295.17 354.388> 969 61<150 168.697 361.331 415.967>
VStem: 172 66<783.734 968.092> 205 57<50.6616 127.189> 357 52<61.97 137.371>
DStem2: 149 737 209 728 0.127522 0.991836<-1.11897 188.127> 186.107 -2 255.464 -2 0.207912 0.978148<204.576 990.581> 209 728 268 734 0.403364 0.915039<1.4782 289.77>
LayerCount: 2
Fore
SplineSet
409 121 m 0xf4
 409 54 357 -2 288 -2 c 0
 228 -2 205 32 205 73 c 0xec
 205 82 206 92 208 101 c 2
 387 943 l 2
 390 956 392 969 382 969 c 0
 370 969 363 952 358 941 c 2
 268 734 l 2
 244 678 207 674 193 674 c 0
 160 674 148 698 148 725 c 0
 148 729 149 733 149 737 c 2
 171 903 l 2
 172 911 172 918 172 924 c 0
 172 955 161 970 137 970 c 1
 150 1030 l 1
 154 1030 158 1031 162 1031 c 0
 189 1031 238 1019 238 957 c 0
 238 951 237 945 236 938 c 2
 209 728 l 1
 317 973 l 2
 328 997 356 1030 400 1030 c 0
 444 1030 460 1010 460 976 c 0
 460 966 459 954 456 941 c 2
 295 184 l 1
 295 184 311 190 333 190 c 0
 363 190 409 175 409 121 c 0xf4
320 140 m 0
 283 140 262 109 262 83 c 0
 262 64 273 48 300 48 c 0
 333 48 357 77 357 104 c 0
 357 123 345 140 320 140 c 0
EndSplineSet
Validated: 1
EndChar

StartChar: uni0E45
Encoding: 3653 3653 193
Width: 220
Flags: W
HStem: 529 61<34.889 175.215>
VStem: 187 74<370.922 517.594>
DStem2: 47 -218 116 -218 0.207912 0.978148<14.3459 694.491>
LayerCount: 2
Fore
SplineSet
116 -218 m 1
 47 -218 l 1
 180 411 l 2
 184 429 187 447 187 463 c 0
 187 500 173 529 127 529 c 0
 43 529 18 503 -6 455 c 1
 -15 461 -48 481 -48 481 c 1
 -25 533 10 590 137 590 c 0
 236 590 261 546 261 492 c 0
 261 469 256 444 251 420 c 2
 116 -218 l 1
EndSplineSet
Validated: 1
EndChar

StartChar: uni0E46
Encoding: 3654 3654 194
Width: 565
Flags: W
HStem: -244 51<271.118 318.516> 237 50<225.085 308.777> 386 50<237.018 320.358> 529 61<473 520.612>
VStem: 154 68<290.553 414.932> 324 50<301.855 381.992> 531 71<424.812 518.909>
DStem2: 381.464 -244 450.464 -244 0.207912 0.978148<119.224 732.054>
LayerCount: 2
Fore
SplineSet
374 355 m 0
 374 302 322 237 252 237 c 0
 183 237 154 286 154 351 c 0
 154 426 187 553 335 590 c 1
 396 541 l 1
 473 590 l 1
 519 590 602 556 602 481 c 0
 602 474 601 465 599 457 c 2
 490 -58 l 2
 457 -213 285 -243 274 -244 c 1
 253 -193 l 1
 253 -193 397 -172 421 -58 c 2
 528 446 l 2
 530 456 531 465 531 473 c 0
 531 517 500 529 467 529 c 1
 385 491 l 1
 326 529 l 1
 291 529 229 471 229 412 c 1
 229 412 254 436 295 436 c 0
 355 436 374 392 374 355 c 0
283 386 m 0
 245 386 222 353 222 325 c 0
 222 305 234 287 262 287 c 0
 299 287 324 318 324 347 c 0
 324 368 311 386 283 386 c 0
EndSplineSet
Validated: 1
EndChar

StartChar: uni0E47
Encoding: 3655 3655 195
Width: 0
Flags: W
HStem: 668 49<-70.3834 -21.8225> 749 59<-258.557 -162.703> 769 51<-68.5756 -19.4329> 862 55<-171.509 48.2854> 875 54<-253.078 -23.2526>
VStem: -354 68<769 840.084> -19 49<719.747 768.624> 70 74<938.414 979>
AnchorPoint: "AboveMark" -114 988 basemark 0
AnchorPoint: "AboveBase" 27 659 mark 0
LayerCount: 2
Fore
SplineSet
144 979 m 1x97
 131 920 78 862 -31 862 c 0x97
 -85 862 -124 875 -175 875 c 0
 -263 875 -286 823 -286 783 c 2
 -286 769 l 1xaf
 -259 797 -230 808 -202 808 c 0xc7
 -167 808 -134 791 -111 766 c 1
 -96 802 -63 820 -32 820 c 0xa7
 1 820 30 801 30 761 c 0
 30 705 -16 668 -63 668 c 0
 -137 668 -153 749 -208 749 c 0
 -265 749 -278 697 -285 664 c 1
 -320 679 -354 706 -354 761 c 0
 -354 820 -318 929 -173 929 c 0xcf
 -117 929 -95 917 -9 917 c 0
 4 917 57 919 70 979 c 1
 144 979 l 1x97
-52 717 m 0
 -30 717 -19 735 -19 750 c 0
 -19 761 -25 769 -41 769 c 0xa7
 -65 769 -71 746 -71 736 c 0
 -71 726 -66 717 -52 717 c 0
EndSplineSet
Validated: 1
Substitution2: "Thai Maitaikhu Macron Reordering" macronbelowcmb
Substitution2: "Thai Mark High Variant" uni0E47.high
Substitution2: "Thai Phinthu Maitaikhu Reordering" uni0E3A
EndChar

StartChar: uni0E48
Encoding: 3656 3656 196
Width: 0
Flags: W
HStem: 992 187<72 98>
VStem: 32 106
DStem2: 32 992 98 992 0.207912 0.978148<13.7222 191.23>
AnchorPoint: "AboveMark" 63 988 mark 0
AnchorPoint: "AboveMark" 114 1228 basemark 0
LayerCount: 2
Fore
SplineSet
98 992 m 1
 32 992 l 1
 72 1179 l 1
 138 1179 l 1
 98 992 l 1
EndSplineSet
Validated: 1
Substitution2: "Thai Mai Ek Tilde Reordering" tildecomb
Substitution2: "Thai Mai Ek Macron Reordering" macronbelowcmb
Substitution2: "Thai Phinthu Mai Ek Reordering" uni0E3A
Substitution2: "Thai Sara UU Mai Ek Reordering" uni0E39
Substitution2: "Thai Sara U Mai Ek Reordering" uni0E38
MultipleSubs2: "Thai Tone Nikhahit Attachment" uni0E4D uni0E48
Substitution2: "Thai Tone Low Variant" uni0E48.low
EndChar

StartChar: uni0E49
Encoding: 3657 3657 197
Width: 0
Flags: W
HStem: 980 110<-32.5 24.8118> 1051 39<-38.3856 6.5> 1166 38<-28.7781 36.1959>
VStem: -86 46<1091.7 1156.91> 38 44<1097.2 1165.17>
AnchorPoint: "AboveMark" 60 988 mark 0
AnchorPoint: "AboveMark" 111 1228 basemark 0
LayerCount: 2
Fore
SplineSet
-86 1111 m 0x78
 -86 1155 -48 1204 13 1204 c 0
 63 1204 82 1179 82 1146 c 0
 82 1092 33 1031 27 1029 c 1
 130 1052 234 1142 272 1199 c 1
 252 1104 l 1
 179 1031 90 980 -23 980 c 0xb8
 -42 980 -59 982 -76 984 c 1
 -47 1000 -21 1028 -11 1052 c 1
 -15 1051 -20 1051 -24 1051 c 0
 -59 1051 -86 1075 -86 1111 c 0x78
10 1166 m 0
 -20 1166 -40 1142 -40 1119 c 0
 -40 1103 -30 1090 -7 1090 c 0
 20 1090 38 1113 38 1136 c 0
 38 1152 29 1166 10 1166 c 0
EndSplineSet
Validated: 1
Substitution2: "Thai Mai Tho Tilde Reordering" tildecomb
Substitution2: "Thai Mai Tho Macron Reordering" macronbelowcmb
Substitution2: "Thai Phinthu Mai Tho Reordering" uni0E3A
Substitution2: "Thai Sara UU Mai Tho Reordering" uni0E39
Substitution2: "Thai Sara U Mai Tho Reordering" uni0E38
MultipleSubs2: "Thai Tone Nikhahit Attachment" uni0E4D uni0E49
Substitution2: "Thai Tone Low Variant" uni0E49.low
EndChar

StartChar: uni0E4A
Encoding: 3658 3658 198
Width: 0
Flags: W
HStem: 978 32<-47.8891 -0.167631> 1065 34<-44.2719 4.22993> 1144 47<-33.0643 57.746 78.7874 147.053>
VStem: -103 54<1010.24 1095.29> 5 36<1013.88 1064.45> 150 54<1052.46 1143.32>
AnchorPoint: "AboveMark" 56 988 mark 0
AnchorPoint: "AboveMark" 107 1228 basemark 0
LayerCount: 2
Fore
SplineSet
-103 1051 m 0
 -103 1104 -65 1191 13 1191 c 0
 38 1191 56 1178 65 1156 c 1
 84 1179 112 1191 141 1191 c 0
 170 1191 204 1172 204 1125 c 0
 204 1083 178 1040 160 1021 c 1
 205 1040 263 1092 283 1185 c 1
 321 1143 l 1
 293 1069 212 982 100 982 c 0
 93 982 87 983 80 983 c 1
 102 994 150 1050 150 1105 c 0
 150 1127 141 1146 112 1146 c 0
 87 1146 64 1127 59 1122 c 1
 56 1127 34 1144 10 1144 c 0
 -5 1144 -41 1135 -52 1084 c 1
 -38 1094 -27 1099 -4 1099 c 0
 26 1099 41 1078 41 1053 c 0
 41 1012 5 978 -38 978 c 0
 -79 978 -103 1008 -103 1051 c 0
-18 1065 m 0
 -37 1065 -49 1046 -49 1031 c 0
 -49 1020 -42 1010 -27 1010 c 0
 -8 1010 5 1026 5 1043 c 0
 5 1055 -3 1065 -18 1065 c 0
EndSplineSet
Validated: 1
Substitution2: "Thai Mai Tri Tilde Reordering" tildecomb
Substitution2: "Thai Mai Tri Macron Reordering" macronbelowcmb
Substitution2: "Thai Phinthu Mai Tri Reordering" uni0E3A
Substitution2: "Thai Sara UU Mai Tri Reordering" uni0E39
Substitution2: "Thai Sara U Mai Tri Reordering" uni0E38
MultipleSubs2: "Thai Tone Nikhahit Attachment" uni0E4D uni0E4A
Substitution2: "Thai Tone Low Variant" uni0E4A.low
EndChar

StartChar: uni0E4B
Encoding: 3659 3659 199
Width: 0
Flags: W
HStem: 1052 62<-22 49 125 192>
VStem: -35 240
DStem2: 32 975 95 975 0.207912 0.978148<13.0984 78.8519 155.298 225.942>
AnchorPoint: "AboveMark" 62 973 mark 0
AnchorPoint: "AboveMark" 116 1228 basemark 0
LayerCount: 2
Fore
SplineSet
192 1052 m 1
 112 1052 l 1
 95 975 l 1
 32 975 l 1
 49 1052 l 1
 -35 1052 l 1
 -22 1114 l 1
 62 1114 l 1
 79 1196 l 1
 142 1196 l 1
 125 1114 l 1
 205 1114 l 1
 192 1052 l 1
EndSplineSet
Validated: 1
Substitution2: "Thai Mai Chattawa Tilde Reordering" tildecomb
Substitution2: "Thai Mai Chattawa Macron Reordering" macronbelowcmb
Substitution2: "Thai Phinthu Mai Chattawa Reordering" uni0E3A
Substitution2: "Thai Sara UU Mai Chattawa Reordering" uni0E39
Substitution2: "Thai Sara U Mai Chattawa Reordering" uni0E38
MultipleSubs2: "Thai Tone Nikhahit Attachment" uni0E4D uni0E4B
Substitution2: "Thai Tone Low Variant" uni0E4B.low
EndChar

StartChar: uni0E4C
Encoding: 3660 3660 200
Width: 0
Flags: W
HStem: 891 39<-23.8381 45.8079> 1012 36<-14.0729 53.1483>
VStem: -84 58<932.203 1026.8> 57 43<938.986 1010.19>
AnchorPoint: "AboveMark" 71 1228 basemark 0
AnchorPoint: "AboveMark" -1 889 mark 0
LayerCount: 2
Fore
SplineSet
100 990 m 0
 100 932 43 891 -3 891 c 0
 -56 891 -84 930 -84 978 c 0
 -84 1001 -77 1023 -71 1036 c 0
 -33 1114 33 1136 134 1136 c 0
 213 1136 218 1193 223 1196 c 1
 289 1196 l 1
 283 1183 278 1140 222 1113 c 0
 153 1079 82 1101 23 1074 c 0
 -6 1061 -12 1038 -15 1033 c 1
 1 1044 10 1048 38 1048 c 0
 74 1048 100 1026 100 990 c 0
23 1012 m 0
 -14 1012 -26 978 -26 962 c 0
 -26 945 -16 930 8 930 c 0
 38 930 57 956 57 979 c 0
 57 997 46 1012 23 1012 c 0
EndSplineSet
Validated: 1
Substitution2: "Thai Thanthakhat Macron Reordering" macronbelowcmb
Substitution2: "Thai Phinthu Thanthakhat Reordering" uni0E3A
Substitution2: "Thai Sara UU Thanthakhat Reordering" uni0E39
Substitution2: "Thai Sara U Thanthakhat Reordering" uni0E38
MultipleSubs2: "Thai Tone Nikhahit Attachment" uni0E4D uni0E4C
Substitution2: "Thai Tone Low Variant" uni0E4C.low
EndChar

StartChar: uni0E4D
Encoding: 3661 3661 201
Width: 0
Flags: W
HStem: 629 50<-65.9231 23.59> 791 50<-50.6585 38.9054>
VStem: -122 51<684.46 771.426> 44 51<698.995 785.292>
AnchorPoint: "AboveMark" 40 988 basemark 0
AnchorPoint: "AboveBase" 73 659 mark 0
LayerCount: 2
Fore
SplineSet
95 757 m 0
 95 699 41 629 -36 629 c 0
 -94 629 -122 669 -122 713 c 0
 -122 771 -68 841 9 841 c 0
 67 841 95 801 95 757 c 0
-2 791 m 0
 -45 791 -71 753 -71 722 c 0
 -71 699 -57 679 -26 679 c 0
 18 679 44 716 44 748 c 0
 44 771 30 791 -2 791 c 0
EndSplineSet
Validated: 1
Substitution2: "Thai Mark High Variant" uni0E4D.high
Substitution2: "Thai Sara U Nikhahit Reordering" uni0E38
Substitution2: "Thai Sara UU Nikhahit Reordering" uni0E39
Substitution2: "Thai Phinthu Nikhahit Reordering" uni0E3A
EndChar

StartChar: uni0E4E
Encoding: 3662 3662 202
Width: 0
Flags: W
HStem: 731 42<-32.7656 105.053> 892 26<65.2256 85> 1032 33<141.559 256.39>
VStem: -91 88<777.111 850.92> 26 76<936.339 1004.35>
AnchorPoint: "AboveMark" 78 1097 basemark 0
AnchorPoint: "AboveBase" 108 659 mark 0
LayerCount: 2
Fore
SplineSet
142 892 m 1
 37 892 -3 838 -3 806 c 0
 -3 785 15 773 40 773 c 0
 66 773 86 779 105 794 c 1
 131 766 l 1
 98 743 54 731 0 731 c 0
 -65 731 -91 754 -91 791 c 0
 -91 854 -23 918 85 918 c 1
 52 922 26 938 26 969 c 0
 26 1026 116 1065 225 1065 c 0
 250 1065 270 1061 282 1053 c 1
 238 1024 l 1
 231 1027 208 1032 199 1032 c 0
 170 1032 102 1011 102 965 c 0
 102 937 133 931 165 927 c 1
 142 892 l 1
EndSplineSet
Validated: 1
Substitution2: "Thai Mark High Variant" uni0E4E.high
EndChar

StartChar: uni0E4F
Encoding: 3663 3663 203
Width: 599
Flags: W
HStem: -1 32<238.919 401.252> 100 32<286.08 396.555> 328 32<321.339 431.739> 429 32<316.748 479.081>
VStem: 123 34<108.658 267.704> 226 33<157.772 264.758> 458 34<192.277 302.897> 561 34<192.296 351.342>
LayerCount: 2
Fore
SplineSet
595 283 m 0
 595 147 481 -1 310 -1 c 0
 181 -1 123 82 123 177 c 0
 123 313 237 461 408 461 c 0
 537 461 595 378 595 283 c 0
401 429 m 0
 247 429 157 296 157 183 c 0
 157 101 206 31 317 31 c 0
 471 31 561 164 561 277 c 0
 561 359 512 429 401 429 c 0
492 260 m 0
 492 184 428 100 331 100 c 0
 258 100 226 147 226 200 c 0
 226 276 290 360 387 360 c 0
 460 360 492 313 492 260 c 0
380 328 m 0
 306 328 259 265 259 206 c 0
 259 166 283 132 338 132 c 0
 412 132 458 195 458 254 c 0
 458 294 435 328 380 328 c 0
EndSplineSet
Validated: 1
EndChar

StartChar: uni0E50
Encoding: 3664 3664 204
Width: 611
Flags: W
HStem: -3 61<238.82 423.543> 360 61<295.668 481.114>
VStem: 120 70<104.576 255.814> 530 70<161.439 315.857>
LayerCount: 2
Fore
SplineSet
600 257 m 0
 600 146 512 -3 315 -3 c 0
 186 -3 120 64 120 159 c 0
 120 280 218 421 405 421 c 0
 531 421 600 353 600 257 c 0
328 58 m 0
 462 58 530 156 530 247 c 0
 530 313 487 360 393 360 c 0
 250 360 190 252 190 172 c 0
 190 105 235 58 328 58 c 0
EndSplineSet
Validated: 1
EndChar

StartChar: uni0E51
Encoding: 3665 3665 205
Width: 611
Flags: W
HStem: -3 61<217.92 334.648> 79 52<306.598 357> 219 52<315.688 393> 360 61<306.474 486.689>
VStem: 116 71<88.8361 246.741> 243 61<134.084 206.887> 395 60<141.756 216.698> 545 70<128.18 303.18>
LayerCount: 2
Fore
SplineSet
116 139 m 0
 116 289 233 421 408 421 c 0
 542 421 615 351 615 241 c 0
 615 128 543 -18 411 -80 c 1
 382 -31 l 1
 520 28 545 183 545 226 c 0
 545 312 484 360 403 360 c 0
 282 360 187 274 187 157 c 0
 187 84 236 58 274 58 c 0
 308 58 334 78 336 80 c 1
 332 79 327 79 323 79 c 0
 279 79 243 105 243 151 c 0
 243 196 282 271 370 271 c 0
 429 271 455 231 455 186 c 0
 455 114 380 -3 263 -3 c 0
 157 -3 116 59 116 139 c 0
360 219 m 0
 327 219 304 192 304 166 c 0
 304 147 316 131 341 131 c 0
 373 131 395 158 395 184 c 0
 395 202 385 219 360 219 c 0
EndSplineSet
Validated: 1
EndChar

StartChar: uni0E52
Encoding: 3666 3666 206
Width: 611
Flags: W
HStem: 0 61<148.929 540.492> 135 50<273.573 342.486> 267 50<318.749 351.875> 360 61<332.88 428.596 517.399 594.286> 553 61<113 163.377>
VStem: 74 74<62.5455 131.538> 166 71<420.016 547.777> 215 57<186.71 255.888> 353 55<194.761 265.25> 442 49<290 332.5> 596 71<275.76 357.106>
DStem2: 56.7443 0 125.556 0 0.207912 0.978148<109.284 530.237> 528.918 0 597.87 0 0.207912 0.978148<65.182 330.545>
LayerCount: 2
Fore
SplineSet
408 248 m 0xfee0
 408 188 360 135 293 135 c 0
 246 135 215 167 215 222 c 0xfde0
 215 304 284 421 389 421 c 0
 473 421 482 369 483 366 c 1
 485 371 511 421 581 421 c 0
 640 421 667 385 667 338 c 0
 667 328 665 317 663 306 c 2
 617 90 l 2
 602 20 554 0 513 0 c 2
 138 0 l 2
 86 0 74 33 74 64 c 0
 74 77 76 90 78 100 c 2
 165 510 l 2
 166 513 166 516 166 519 c 0
 166 547 134 553 112 553 c 0
 106 553 101 553 100 552 c 2
 113 613 l 1
 116 613 120 614 124 614 c 0
 170 614 237 596 237 534 c 0
 237 527 237 521 235 513 c 2
 150 115 l 2
 148 107 148 99 148 92 c 0
 148 74 156 61 185 61 c 2
 485 61 l 2
 542 61 548 89 554 118 c 2
 593 302 l 2
 595 309 596 317 596 324 c 0
 596 344 588 360 561 360 c 0
 511 360 491 291 491 290 c 1
 442 290 l 1
 442 310 435 360 387 360 c 0
 339 360 325 332 318 316 c 1
 324 317 330 317 336 317 c 0
 380 317 408 289 408 248 c 0xfee0
322 267 m 0
 292 267 272 239 272 216 c 0
 272 199 281 185 304 185 c 0
 333 185 353 213 353 236 c 0
 353 253 344 267 322 267 c 0
EndSplineSet
Validated: 1
EndChar

StartChar: uni0E53
Encoding: 3667 3667 207
Width: 611
Flags: W
HStem: -3 53<135.423 212.215> 137 53<152.652 220.871> 360 61<223.504 344.688 477.992 579.494>
VStem: 71 62<53.2326 166.358> 223 54<61.4371 134.59> 588 72<252.047 352.908>
DStem2: 308.362 -3 377.362 -3 0.207912 0.978148<17.4129 292.898> 526.362 -3 595.362 -3 0.207912 0.978148<17.4129 309.758>
LayerCount: 2
Fore
SplineSet
71 104 m 0
 71 200 113 421 304 421 c 0
 405 421 417 346 417 345 c 1
 420 349 453 421 547 421 c 0
 621 421 660 376 660 316 c 0
 660 305 658 294 656 283 c 2
 596 0 l 1
 527 0 l 1
 584 270 l 2
 586 281 588 292 588 301 c 0
 588 339 570 362 536 362 c 0
 486 362 445 314 435 267 c 2
 378 0 l 1
 309 0 l 1
 366 268 l 2
 367 273 368 279 368 284 c 0
 368 319 345 360 280 360 c 0
 197 360 152 241 152 183 c 0
 152 181 152 179 152 177 c 1
 169 185 182 190 200 190 c 0
 252 190 277 157 277 115 c 0
 277 41 212 -3 159 -3 c 0
 92 -3 71 42 71 104 c 0
188 137 m 0
 154 137 133 108 133 84 c 0
 133 66 144 50 170 50 c 0
 203 50 223 78 223 104 c 0
 223 122 212 137 188 137 c 0
EndSplineSet
Validated: 1
EndChar

StartChar: uni0E54
Encoding: 3668 3668 208
Width: 611
Flags: W
HStem: -3 61<186.803 373.627> 28 42<317.254 377> 70 102<331.362 376.712> 256 52<338.669 412.17> 360 61<284.207 635.415>
VStem: 85 70<90.7828 247.305> 268 61<175.076 246.789> 415 56<181.662 253.299> 773 61<586.52 623.754>
LayerCount: 2
Fore
SplineSet
471 232 m 0x5f80
 471 202 458 158 402 133 c 1
 404 133 415 110 455 101 c 0
 497 92 524 94 561 81 c 0
 595 69 603 61 625 48 c 1
 578 -6 l 1
 571 -4 525 28 451 28 c 0x5f80
 384 28 301 -3 231 -3 c 0
 128 -3 85 72 85 151 c 0
 85 279 196 421 397 421 c 0
 439 421 481 417 519 417 c 0
 579 417 634 427 681 478 c 0
 731 532 756 586 773 645 c 1
 834 621 l 1
 820 563 754 446 681 399 c 0
 627 364 573 357 518 357 c 0
 481 357 445 360 408 360 c 0
 193 360 155 225 155 159 c 0
 155 95 194 58 251 58 c 0x9f80
 281 58 298 70 377 70 c 1
 368 70 268 109 268 187 c 0
 268 241 316 308 390 308 c 0
 444 308 471 273 471 232 c 0x5f80
380 256 m 0
 349 256 329 232 329 206 c 0
 329 188 340 172 364 172 c 0x3f80
 396 172 415 199 415 222 c 0
 415 240 404 256 380 256 c 0
EndSplineSet
Validated: 1
EndChar

StartChar: uni0E55
Encoding: 3669 3669 209
Width: 611
Flags: W
HStem: -3 61<183.9 368.173> 28 42<312.027 371> 70 102<325.707 370.758> 256 52<331.904 406.144> 349 61<385.937 629.68> 360 61<273.767 533.701> 441 61<519.567 620.071> 556 61<521.329 628.435>
VStem: 79 70<91.9221 241.834> 264 59<174.335 246.895> 408 57<181.449 253.76> 448 71<504.344 549.775> 644 73<427.287 475> 732 60<632.182 666.8>
LayerCount: 2
Fore
SplineSet
526 410 m 0x1bec
 623 410 644 438 644 457 c 2
 644 475 l 1
 641 472 596 441 542 441 c 0
 488 441 448 469 448 511 c 0
 448 556 494 617 583 617 c 0
 641 617 674 586 674 584 c 1
 678 589 719 626 732 688 c 1
 792 664 l 1
 767 585 708 530 708 530 c 1
 708 530 717 511 717 483 c 0
 717 453 707 422 683 397 c 0
 647 358 599 349 546 349 c 0x1bdc
 494 349 439 360 385 360 c 0
 213 360 149 240 149 160 c 0
 149 96 189 58 247 58 c 0x97dc
 277 58 295 70 371 70 c 1
 361 70 264 107 264 186 c 0
 264 241 310 308 385 308 c 0
 439 308 465 274 465 233 c 0
 465 205 453 158 396 133 c 1
 397 133 411 110 449 101 c 0
 491 92 520 94 557 81 c 0
 590 69 597 61 619 48 c 1
 572 -6 l 1
 565 -4 519 28 446 28 c 0x53ec
 379 28 296 -3 225 -3 c 0
 121 -3 79 75 79 152 c 0
 79 252 161 421 382 421 c 0x97ec
 432 421 480 410 526 410 c 0x1bec
575 556 m 0
 530 556 519 537 519 524 c 0
 519 509 535 502 556 502 c 0
 602 502 625 528 630 533 c 1
 624 543 599 556 575 556 c 0
373 256 m 0
 345 256 323 234 323 205 c 0
 323 187 333 172 356 172 c 0
 390 172 408 199 408 222 c 0x33ec
 408 240 397 256 373 256 c 0
EndSplineSet
Validated: 1
EndChar

StartChar: uni0E56
Encoding: 3670 3670 210
Width: 611
Flags: W
HStem: 0 61<332.532 437.342> 182 53<255.142 332.735> 360 61<332.696 494.38>
VStem: 188 55<98.7216 170.386> 223 20<262 273.357> 242 66<386.159 549.48> 335 54<106.77 178.873> 540 70<166.349 315.156>
LayerCount: 2
Fore
SplineSet
256 651 m 1xe7
 270 628 308 568 308 443 c 0xe7
 308 425 306 406 303 385 c 1
 351 412 399 421 443 421 c 0
 574 421 610 336 610 261 c 0
 610 123 502 0 348 0 c 0
 266 0 188 38 188 110 c 0xf3
 188 169 238 235 310 235 c 0
 361 235 389 203 389 161 c 0
 389 121 366 77 332 62 c 1
 340 61 347 61 355 61 c 0
 466 61 540 159 540 247 c 0
 540 313 495 360 422 360 c 0
 379 360 296 346 243 262 c 1
 223 262 l 1xeb
 227 282 l 2
 237 331 242 374 242 412 c 0
 242 533 200 597 189 615 c 1
 256 651 l 1xe7
279 95 m 0
 314 95 335 124 335 149 c 0
 335 167 323 182 298 182 c 0
 264 182 243 152 243 128 c 0xf3
 243 108 258 95 279 95 c 0
EndSplineSet
Validated: 1
EndChar

StartChar: uni0E57
Encoding: 3671 3671 211
Width: 611
Flags: W
HStem: -3 53<127.614 200.407> 135 53<134.93 208.733> 360 61<200.745 299.012 412.496 500.282> 582 20G<761 841>
VStem: 46 79<51.8342 189.687> 46 72<160 247.685> 211 54<59.8676 133.113> 311 56<251 281.299> 506 68<211.854 354.506>
LayerCount: 2
Fore
SplineSet
46 131 m 0xfb80
 46 272 143 421 268 421 c 0
 316 421 346 395 359 355 c 1
 392 399 435 421 484 421 c 0
 545 421 574 373 574 310 c 0
 574 217 516 117 472 67 c 1
 495 84 602 113 647 334 c 2
 655 373 l 2
 690 545 753 583 769 602 c 1
 841 602 l 1
 837 595 765 543 740 452 c 0
 695 291 691 178 590 83 c 0
 519 17 448 -2 360 -2 c 1
 408 48 506 210 506 308 c 0
 506 338 495 360 461 360 c 0
 393 360 368 256 367 251 c 1
 311 251 l 1
 312 255 314 267 314 282 c 0
 314 314 305 360 252 360 c 0
 172 360 118 225 118 160 c 1xf780
 122 165 140 188 193 188 c 0
 235 188 265 154 265 112 c 0
 265 60 217 -3 146 -3 c 0
 67 -3 46 66 46 131 c 0xfb80
178 135 m 0
 144 135 125 107 125 83 c 0xfb80
 125 66 135 50 159 50 c 0
 191 50 211 77 211 102 c 0
 211 119 201 135 178 135 c 0
EndSplineSet
Validated: 1
EndChar

StartChar: uni0E58
Encoding: 3672 3672 212
Width: 611
Flags: W
HStem: -3 61<429.014 516.187> 83 53<483.736 518.877> 129 70<252.454 302.712> 219 53<492.42 565.739> 347 61<373.881 635.873> 360 61<271.326 542.011>
VStem: 99 70<112.235 255.244> 422 60<137.614 208.633> 568 58<146.105 217.315> 703 69<496.362 610>
LayerCount: 2
Fore
SplineSet
99 160 m 0xb3c0
 99 258 176 421 384 421 c 0xb7c0
 442 421 497 408 544 408 c 0
 626 408 671 430 693 533 c 0
 702 574 703 609 703 610 c 1
 772 610 l 1
 772 609 770 573 761 529 c 0
 730 381 650 347 545 347 c 0x9bc0
 486 347 423 360 358 360 c 0
 229 360 169 250 169 170 c 0
 169 124 192 112 192 110 c 1
 194 120 218 199 278 199 c 0xb7c0
 355 199 399 58 481 58 c 0
 508 58 517 73 519 84 c 1
 517 84 513 83 507 83 c 0xd3c0
 454 83 422 112 422 155 c 0
 422 208 467 272 544 272 c 0
 604 272 626 235 626 188 c 0
 626 112 569 -3 472 -3 c 0
 364 -3 306 129 274 129 c 0
 248 129 242 67 242 47 c 0
 242 31 244 16 250 -3 c 1
 155 5 99 72 99 160 c 0xb3c0
534 219 m 0
 503 219 482 192 482 168 c 0
 482 151 492 136 516 136 c 0xd3c0
 547 136 568 164 568 187 c 0
 568 204 558 219 534 219 c 0
EndSplineSet
Validated: 1
EndChar

StartChar: uni0E59
Encoding: 3673 3673 213
Width: 611
Flags: W
HStem: -3 61<195.395 295.692> 84 53<271.057 303.742> 216 53<279.022 338.242> 307 68<536.922 600.124> 346 75<481.266 530.129> 360 61<257.803 364.186>
VStem: 105 68<79.4683 251.607> 216 54<137.925 208.537> 339 55<144.975 215.173> 637 72<460.81 618>
DStem2: 513 199 446 176 0.374115 -0.927383<-117.851 180.866>
LayerCount: 2
Fore
SplineSet
105 146 m 0xe7c0
 105 284 195 421 321 421 c 0xe7c0
 387 421 420 377 431 352 c 1
 437 382 456 421 491 421 c 0xebc0
 525 421 547 375 577 375 c 0
 592 375 603 384 616 447 c 0
 637 547 635 609 637 618 c 1
 709 618 l 1
 702 587 698 307 577 307 c 0xf3c0
 532 307 516 346 500 346 c 0xebc0
 488 346 480 331 480 314 c 0
 480 288 494 247 513 199 c 2
 580 31 l 1
 517 0 l 1
 446 176 l 2
 410 266 385 360 313 360 c 0
 230 360 173 235 173 152 c 0
 173 101 193 58 246 58 c 0
 284 58 302 87 304 90 c 1
 304 90 292 84 277 84 c 0
 238 84 216 116 216 154 c 0
 216 206 258 269 324 269 c 0
 378 269 394 234 394 195 c 0
 394 114 327 -3 227 -3 c 0
 139 -3 105 66 105 146 c 0xe7c0
313 216 m 0
 290 216 270 190 270 165 c 0
 270 150 278 137 298 137 c 0
 322 137 339 164 339 186 c 0
 339 202 331 216 313 216 c 0
EndSplineSet
Validated: 1
EndChar

StartChar: uni0E5A
Encoding: 3674 3674 214
Width: 625
Flags: W
HStem: -2 54<288 332.206 446.075 487.011> 271 61<210.203 338.111> 403 50<208.457 289.22> 537 61<547.01 609.922> 551 50<219.203 301.194>
VStem: 126 66<350.121 415> 304 52<467.914 547.608> 611 73<466.938 535.595>
DStem2: 350.054 -3 419.479 -3 0.207912 0.978148<84.9491 380.285 469.742 565.707> 503.918 -3 572.967 -3 0.207912 0.978148<83.6353 519.957>
LayerCount: 2
Fore
SplineSet
243 453 m 0xef
 281 453 304 484 304 515 c 0
 304 533 295 551 264 551 c 0
 233 551 205 524 205 491 c 0
 205 470 219 453 243 453 c 0xef
356 527 m 0
 356 466 304 403 236 403 c 0
 219 403 207 408 192 415 c 1
 192 413 192 411 192 409 c 0
 192 363 211 332 276 332 c 0
 319 332 356 357 403 423 c 0
 437 470 447 506 462 572 c 1
 469 593 487 600 501 600 c 0
 521 600 527 592 530 566 c 1
 552 578 576 598 607 598 c 0
 669 598 684 568 684 535 c 0
 684 523 683 510 680 498 c 2
 604 143 l 2
 576 11 448 -3 448 -3 c 1
 431 51 l 1
 473 56 524 93 529 115 c 2
 610 494 l 2
 611 497 611 502 611 506 c 0
 611 520 605 537 577 537 c 0xf7
 559 537 538 524 528 509 c 1
 452 150 l 2
 425 23 316 0 290 -2 c 1
 272 52 l 1
 291 52 365 66 383 152 c 2
 429 369 l 1
 369 285 321 271 266 271 c 0
 171 271 126 329 126 416 c 0
 126 437 129 459 134 483 c 0
 147 544 216 601 277 601 c 0
 332 601 356 567 356 527 c 0
EndSplineSet
Validated: 1
EndChar

StartChar: uni0E5B
Encoding: 3675 3675 215
Width: 1105
Flags: W
HStem: 48 53<192.504 336.447> 181 87<246.696 334.692> 181 52<288 336.461> 239 46<926.626 1142> 333 48<252.483 283.994> 494 53<256.686 378.38>
VStem: 86 53<159.466 347.104> 198 48<268.767 331.674> 284 50<269.021 332.59> 402 53<314.819 469.978> 548 51<273 348> 571 24<493.079 506> 660 51<274 299>
LayerCount: 2
Fore
SplineSet
317 494 m 0xafe8
 229 494 139 360 139 245 c 0
 139 154 194 101 256 101 c 0
 388 101 432 228 571 506 c 1
 595 506 l 1xafd8
 599 273 l 1
 677 463 l 1
 703 463 l 1
 711 274 l 1
 803 461 l 1
 819 290 l 1
 885 417 l 1
 895 380 924 285 950 285 c 2
 1151 285 l 1
 1142 244 l 1
 1101 244 956 239 935 239 c 0xbfe8
 886 239 880 278 870 293 c 1
 783 129 l 1
 770 293 l 1
 670 90 l 1
 660 299 l 1
 579 100 l 1
 553 100 l 1
 548 348 l 1
 473 191 401 48 245 48 c 0
 134 48 86 136 86 234 c 0
 86 383 198 547 328 547 c 0
 415 547 455 490 455 415 c 0
 455 323 390 181 279 181 c 0xcfe8
 214 181 198 240 198 279 c 0
 198 339 248 381 283 381 c 0
 304 381 334 363 334 321 c 0
 334 290 317 252 288 233 c 1
 352 233 402 331 402 405 c 0
 402 455 378 494 317 494 c 0xafe8
273 333 m 0
 257 333 246 302 246 286 c 0
 246 273 252 268 259 268 c 0xcfc8
 274 268 284 295 284 314 c 0
 284 326 280 333 273 333 c 0
EndSplineSet
Validated: 1
EndChar

StartChar: DEL
Encoding: 63259 63259 219
Width: 0
VWidth: 2048
Flags: W
HStem: 0 21G<-460 4.22976>
DStem2: -460 0 0 0 0.207912 0.978148<95.6394 783.151>
LayerCount: 2
Fore
SplineSet
-297 766 m 1
 162 766 l 1
 0 0 l 1
 -460 0 l 1
 -297 766 l 1
EndSplineSet
Validated: 1
EndChar

StartChar: exclamdown
Encoding: 161 161 220
Width: 332
VWidth: 2048
Flags: W
HStem: -198 21G<70 184.25> 418 100<226 307>
VStem: 210 57<315.038 340>
DStem2: 70 -198 180 -198 0.207912 0.978148<22.8703 308.277 651.814 732.788>
LayerCount: 2
Fore
SplineSet
328 518 m 1
 307 418 l 1
 205 418 l 1
 226 518 l 1
 328 518 l 1
267 340 m 1
 214 -38 l 1
 180 -198 l 1
 70 -198 l 1
 104 -38 l 1
 210 340 l 1
 267 340 l 1
EndSplineSet
Validated: 1
EndChar

StartChar: cent
Encoding: 162 162 221
Width: 554
VWidth: 2048
Flags: W
HStem: -199 21G<85 146.259> -14 72<269.212 376.467> 458 72<304.367 407.723> 696 20G<527.947 589>
VStem: 97 90<99.3192 299.505> 486 87<366 426.77>
DStem2: 85 -184 136 -199 0.449594 0.893233<9.5308 219.15 303.354 718.674 803.338 1007.58>
LayerCount: 2
Fore
SplineSet
97 173 m 0
 97 308 182 530 395 530 c 0
 410 530 425 529 443 527 c 1
 538 716 l 1
 589 700 l 1
 493 510 l 1
 548 488 573 440 573 371 c 2
 573 366 l 1
 486 353 l 1
 485 389 475 417 456 437 c 1
 269 63 l 1
 277 60 288 58 297 58 c 0
 372 58 427 103 457 190 c 1
 544 181 l 1
 491 49 383 -14 284 -14 c 0
 264 -14 249 -11 235 -6 c 1
 136 -199 l 1
 85 -184 l 1
 181 11 l 1
 125 43 97 97 97 173 c 0
408 458 m 1
 385 458 l 2
 213 458 187 248 187 182 c 0
 187 138 198 106 220 87 c 1
 408 458 l 1
EndSplineSet
Validated: 1
EndChar

StartChar: sterling
Encoding: 163 163 222
Width: 554
VWidth: 2048
Flags: W
HStem: -12 72<330.915 506.398> 34 72<151.067 302.223> 323 72<105 181 277 417> 530 21G<536 625> 656 72<349.477 500.995>
VStem: 177 97<395 574.228> 187 94<227.739 322.624> 536 90<543 622.211>
LayerCount: 2
Fore
SplineSet
177 464 m 0xbd
 177 639 314 728 448 728 c 0
 567 728 626 673 626 561 c 0
 626 555 625 549 625 543 c 1
 536 530 l 1
 536 543 l 2
 536 619 501 656 430 656 c 0
 382 656 274 636 274 463 c 0xbd
 274 442 275 420 277 395 c 1
 432 395 l 1
 417 323 l 1
 277 323 l 1
 280 315 281 306 281 296 c 0
 281 256 247 178 150 96 c 1
 179 103 204 106 224 106 c 0x7b
 303 106 357 60 419 60 c 0
 444 60 475 69 518 86 c 1
 533 18 l 1
 480 -2 437 -12 408 -12 c 0xbb
 335 -12 279 34 202 34 c 0x7b
 150 34 98 19 45 -12 c 1
 30 73 l 1
 165 141 187 255 187 323 c 1xbb
 90 323 l 1
 105 395 l 1
 181 395 l 1
 178 420 177 444 177 464 c 0xbd
EndSplineSet
Validated: 1
EndChar

StartChar: currency
Encoding: 164 164 223
Width: 554
VWidth: 2048
Flags: W
HStem: 147 80<256.763 399.448> 481 80<300.393 445.04> 575 20G<194.61 233.362 561.942 601.254>
VStem: 140 81<262.22 400.805> 481 82<308.562 445.509>
DStem2: 72 173 116 115 0.774225 0.63291<0 110.92 551.592 662.538> 218 595 149 536 0.622885 -0.782314<3.17745 90.7149 450.702 539.426>
LayerCount: 2
Fore
SplineSet
140 311 m 0
 140 326 141 396 204 469 c 1
 149 536 l 1
 218 595 l 1
 271 526 l 1
 312 550 354 561 395 561 c 0
 438 561 474 550 503 526 c 1
 586 595 l 1
 631 536 l 1
 548 469 l 1
 558 447 563 423 563 398 c 0
 563 362 553 299 499 239 c 1
 554 173 l 1
 484 115 l 1
 430 184 l 1
 391 159 350 147 307 147 c 0
 264 147 229 159 198 184 c 1
 116 115 l 1
 72 173 l 1
 155 239 l 1
 145 262 140 286 140 311 c 0
324 227 m 0
 410 227 481 304 481 382 c 0
 481 442 437 481 378 481 c 0
 286 481 221 401 221 326 c 0
 221 270 259 227 324 227 c 0
EndSplineSet
Validated: 1
EndChar

StartChar: yen
Encoding: 165 165 224
Width: 554
VWidth: 2048
Flags: W
HStem: 0 21G<232 325.304> 158 72<80 266 370 557> 297 72<109 274 434 586> 696 20G<150 255.984 586.02 705>
DStem2: 249 716 150 716 0.336508 -0.94168<0 335.078> 232 0 321 0 0.207912 0.978148<18.5041 161.616 253.666 303.608> 357 389 434 369 0.615512 0.788128<31.6319 407.903>
LayerCount: 2
Fore
SplineSet
232 0 m 1
 266 158 l 1
 65 158 l 1
 80 230 l 1
 281 230 l 1
 295 297 l 1
 94 297 l 1
 109 369 l 1
 274 369 l 1
 150 716 l 1
 249 716 l 1
 337 464 l 2
 344 441 351 417 357 389 c 1
 372 411 391 436 416 469 c 2
 601 716 l 1
 705 716 l 1
 434 369 l 1
 601 369 l 1
 586 297 l 1
 384 297 l 1
 370 230 l 1
 572 230 l 1
 557 158 l 1
 355 158 l 1
 321 0 l 1
 232 0 l 1
EndSplineSet
Validated: 1
EndChar

StartChar: brokenbar
Encoding: 166 166 225
Width: 259
VWidth: 2048
Flags: W
HStem: -210 21G<47 128.249> 708 20G<242.74 324>
VStem: 47 277
DStem2: 47 -210 124 -210 0.207912 0.978148<16.0092 394.614 581.458 959.085>
LayerCount: 2
Fore
SplineSet
324 728 m 1
 242 343 l 1
 165 343 l 1
 247 728 l 1
 324 728 l 1
206 176 m 1
 124 -210 l 1
 47 -210 l 1
 129 176 l 1
 206 176 l 1
EndSplineSet
Validated: 1
EndChar

StartChar: section
Encoding: 167 167 226
Width: 554
VWidth: 2048
Flags: W
HStem: -209 72<187.42 330.158> 656 72<337.511 470.545>
VStem: 61 93<-103.334 -34> 104 83<258.128 363.479> 206 88<517.348 616.154> 379 92<-89.7337 11.3416> 474 88<181.071 274.663> 496 93<559.374 630.586>
LayerCount: 2
Fore
SplineSet
379 -40 m 0xee
 379 44 189 126 136 195 c 0
 114 223 104 252 104 284 c 0
 104 329 127 420 246 452 c 1
 219 483 206 514 206 547 c 0
 206 635 296 728 420 728 c 0
 533 728 589 678 589 581 c 0
 589 574 589 567 588 559 c 1
 496 549 l 1
 496 557 l 2xdd
 496 623 468 656 412 656 c 0
 334 656 294 602 294 567 c 0
 294 510 386 459 430 425 c 0
 477 389 513 364 528 346 c 0
 551 319 562 289 562 258 c 0
 562 190 516 125 418 87 c 1
 453 56 471 21 471 -19 c 0
 471 -114 381 -209 240 -209 c 0
 120 -209 61 -157 61 -48 c 0
 61 -43 62 -39 62 -34 c 1
 154 -21 l 1
 154 -98 185 -137 255 -137 c 0
 320 -137 379 -90 379 -40 c 0xee
382 120 m 1
 441 147 474 186 474 222 c 0xde
 474 259 438 302 366 351 c 0
 331 376 303 399 281 418 c 1
 201 379 187 332 187 311 c 0
 187 276 218 236 283 192 c 0
 328 161 362 136 382 120 c 1
EndSplineSet
Validated: 1
EndChar

StartChar: dieresis
Encoding: 168 168 227
Width: 332
VWidth: 2048
Flags: W
HStem: 621 99<184 255 364 435>
VStem: 163 293
LayerCount: 2
Fore
SplineSet
163 621 m 1
 184 720 l 1
 276 720 l 1
 255 621 l 1
 163 621 l 1
343 621 m 1
 364 720 l 1
 456 720 l 1
 435 621 l 1
 343 621 l 1
EndSplineSet
Validated: 1
EndChar

StartChar: copyright
Encoding: 169 169 228
Width: 735
VWidth: 2048
Flags: W
HStem: -9 60<272.606 498.23> 149 55<339.867 488.749> 512 55<406.886 547.285> 668 60<396.544 619.155>
VStem: 70 63<184.839 405.588> 247 65<232.139 402.24> 576 61<449.393 481.539> 760 64<313.461 529.537>
LayerCount: 2
Fore
SplineSet
70 279 m 0
 70 504 270 728 526 728 c 0
 705 728 824 611 824 442 c 0
 824 205 609 -9 369 -9 c 0
 183 -9 70 116 70 279 c 0
382 51 m 0
 596 51 760 243 760 425 c 0
 760 566 658 668 513 668 c 0
 309 668 133 487 133 291 c 0
 133 153 229 51 382 51 c 0
247 295 m 0
 247 410 320 567 497 567 c 0
 582 567 630 529 637 451 c 1
 576 437 l 1
 565 487 534 512 481 512 c 0
 355 512 312 377 312 301 c 0
 312 237 345 204 411 204 c 0
 474 204 523 238 553 300 c 1
 609 282 l 1
 565 193 498 149 403 149 c 0
 327 149 247 184 247 295 c 0
EndSplineSet
Validated: 1
EndChar

StartChar: ordfeminine
Encoding: 170 170 229
Width: 369
VWidth: 2048
Flags: W
HStem: 365 58<196.83 307.316> 671 57<259.956 382.89>
VStem: 120 74<428.143 499.453> 354 68<374.376 473.141> 391 73<560.718 661.992>
DStem2: 345.947 365 408.169 365 0.207912 0.978148<101.075 177.424 227.391 258.473>
LayerCount: 2
Fore
SplineSet
357 417 m 1xf0
 310 382 265 365 221 365 c 0
 154 365 120 389 120 440 c 0
 120 488 140 542 214 566 c 0
 244 576 345 583 388 596 c 1
 390 605 391 613 391 620 c 0
 391 654 370 671 327 671 c 0
 279 671 248 651 233 610 c 1
 168 627 l 1
 195 694 253 728 340 728 c 0
 423 728 464 699 464 642 c 0xe8
 464 632 463 621 461 610 c 2
 429 463 l 2
 424 442 422 425 422 410 c 0
 422 394 424 382 430 374 c 1
 358 374 l 1
 355 382 354 390 354 398 c 0
 354 404 356 410 357 417 c 1xf0
376 540 m 1
 298 524 194 524 194 458 c 0
 194 434 212 423 249 423 c 0
 317 423 359 461 376 540 c 1
EndSplineSet
Validated: 1
EndChar

StartChar: guillemotleft
Encoding: 171 171 230
Width: 554
VWidth: 2048
Flags: W
LayerCount: 2
Fore
SplineSet
221 258 m 1
 300 35 l 1
 229 35 l 1
 119 258 l 1
 324 480 l 1
 395 480 l 1
 221 258 l 1
411 258 m 1
 491 35 l 1
 418 35 l 1
 311 258 l 1
 513 480 l 1
 586 480 l 1
 411 258 l 1
EndSplineSet
Validated: 1
EndChar

StartChar: logicalnot
Encoding: 172 172 231
Width: 583
VWidth: 2048
Flags: W
HStem: 422 81<162 536>
DStem2: 490 207 573 207 0.207912 0.978148<17.2567 219.866>
LayerCount: 2
Fore
SplineSet
573 207 m 1
 490 207 l 1
 536 422 l 1
 145 422 l 1
 162 503 l 1
 636 503 l 1
 573 207 l 1
EndSplineSet
Validated: 1
EndChar

StartChar: minus
Encoding: 173 173 232
AltUni2: 002212.ffffffff.0
Width: 332
VWidth: 2048
Flags: W
HStem: 215 88<96 348>
VStem: 78 288
LayerCount: 2
Fore
SplineSet
78 215 m 1
 96 303 l 1
 366 303 l 1
 348 215 l 1
 78 215 l 1
EndSplineSet
Validated: 1
EndChar

StartChar: registered
Encoding: 174 174 233
Width: 735
VWidth: 2048
Flags: W
HStem: -9 60<272.606 498.23> 323 56<354 435.141> 498 54<379 530.5> 668 60<396.544 619.155>
VStem: 70 63<184.839 405.588> 543 68<405.042 484.667> 760 64<313.461 529.537>
DStem2: 205.928 -9 270.928 -9 0.207912 0.978148<182.2 353.036 410.307 531.904>
LayerCount: 2
Fore
SplineSet
70 279 m 0
 70 504 270 728 526 728 c 0
 705 728 824 611 824 442 c 0
 824 205 609 -9 369 -9 c 0
 183 -9 70 116 70 279 c 0
382 51 m 0
 596 51 760 243 760 425 c 0
 760 566 658 668 513 668 c 0
 309 668 133 487 133 291 c 0
 133 153 229 51 382 51 c 0
611 470 m 0
 611 394 545 340 473 333 c 1
 495 325 520 293 544 233 c 2
 576 156 l 1
 496 156 l 1
 475 219 l 2
 456 273 442 323 379 323 c 2
 342 323 l 1
 306 156 l 1
 241 156 l 1
 325 552 l 1
 462 552 l 2
 561 552 611 525 611 470 c 0
432 379 m 2
 524 379 543 422 543 451 c 0
 543 482 511 498 451 498 c 2
 379 498 l 1
 354 379 l 1
 432 379 l 2
EndSplineSet
Validated: 1
EndChar

StartChar: macron
Encoding: 175 175 234
AltUni2: 0002c9.ffffffff.0
Width: 551
VWidth: 2048
Flags: W
HStem: 765 63<161 730>
LayerCount: 2
Fore
SplineSet
148 765 m 1
 161 828 l 1
 743 828 l 1
 730 765 l 1
 148 765 l 1
EndSplineSet
Validated: 1
EndChar

StartChar: degree
Encoding: 176 176 235
Width: 400
VWidth: 2048
Flags: W
HStem: 457 52<256.322 364.34> 676 52<283.295 391.109>
VStem: 186 54<524.698 633.534> 409 54<554.034 658.74>
LayerCount: 2
Fore
SplineSet
463 619 m 0
 463 535 380 457 295 457 c 0
 228 457 186 505 186 565 c 0
 186 649 269 728 353 728 c 0
 418 728 463 679 463 619 c 0
306 509 m 0
 355 509 409 559 409 609 c 0
 409 646 381 676 342 676 c 0
 289 676 240 628 240 574 c 0
 240 536 267 509 306 509 c 0
EndSplineSet
Validated: 1
EndChar

StartChar: plusminus
Encoding: 177 177 236
Width: 548
VWidth: 2048
Flags: W
HStem: 0 83<56 510> 323 83<124 302 402 579> 581 20G<356.692 444>
DStem2: 233.005 0 316.005 0 0.207912 0.978148<147.094 330.286 432.264 614.478>
LayerCount: 2
Fore
SplineSet
260 127 m 1
 302 323 l 1
 107 323 l 1
 124 406 l 1
 319 406 l 1
 361 601 l 1
 444 601 l 1
 402 406 l 1
 596 406 l 1
 579 323 l 1
 385 323 l 1
 343 127 l 1
 260 127 l 1
510 0 m 1
 38 0 l 1
 56 83 l 1
 528 83 l 1
 510 0 l 1
EndSplineSet
Validated: 1
EndChar

StartChar: twosuperior
Encoding: 178 178 237
Width: 332
VWidth: 2048
Flags: W
HStem: 357 61<217 393> 665 61<252.107 367.502>
VStem: 372 73<584.234 658.648>
LayerCount: 2
Fore
SplineSet
445 652 m 0
 445 546 320 492 217 418 c 1
 406 418 l 1
 393 357 l 1
 88 357 l 1
 109 455 356 546 370 613 c 0
 371 618 372 622 372 626 c 0
 372 652 351 665 312 665 c 0
 274 665 247 648 226 611 c 1
 154 617 l 1
 187 688 244 726 325 726 c 0
 408 726 445 701 445 652 c 0
EndSplineSet
Validated: 1
EndChar

StartChar: threesuperior
Encoding: 179 179 238
Width: 332
VWidth: 2048
Flags: W
HStem: 349 61<196.362 319.336> 525 50<268 340.82> 664 61<245.034 357.989>
VStem: 114 71<422.851 456> 345 68<435.754 518.188> 360 72<592.717 658.902>
LayerCount: 2
Fore
SplineSet
413 485 m 0xf8
 413 412 337 349 241 349 c 0
 154 349 114 386 114 456 c 1
 185 463 l 1
 188 427 211 410 249 410 c 0
 335 410 345 469 345 487 c 0xf8
 345 515 321 525 274 525 c 1
 246 523 l 1
 268 575 l 1
 343 575 360 610 360 633 c 0
 360 655 339 664 305 664 c 0
 270 664 244 652 226 618 c 1
 159 630 l 1
 193 691 248 725 318 725 c 0
 396 725 432 699 432 654 c 0xf4
 432 614 412 574 345 554 c 1
 390 542 413 521 413 485 c 0xf8
EndSplineSet
Validated: 1
EndChar

StartChar: acute
Encoding: 180 180 239
Width: 332
VWidth: 2048
Flags: W
HStem: 582 138
VStem: 233 208
LayerCount: 2
Fore
SplineSet
233 582 m 1
 326 720 l 1
 441 720 l 1
 305 582 l 1
 233 582 l 1
EndSplineSet
Validated: 1
EndChar

StartChar: micro
Encoding: 181 181 240
AltUni2: 0003bc.ffffffff.0
Width: 574
VWidth: 2048
Flags: W
HStem: -199 21G<36 129.223> -12 72<234.021 364.975> 0 21G<408 501.247> 498 20G<183.76 277 513.747 607>
DStem2: 36 -199 125 -199 0.207912 0.978148<18.5041 275.039 387.334 732.934> 365.701 -199 454.701 -199 0.207912 0.978148<221.95 265.816 325.608 732.997>
LayerCount: 2
Fore
SplineSet
298 60 m 0xd0
 408 60 442 162 471 297 c 2
 518 518 l 1
 607 518 l 1
 497 0 l 1
 408 0 l 1xb0
 421 61 l 1
 382 12 343 -12 285 -12 c 0
 236 -12 201 9 178 52 c 1
 125 -199 l 1
 36 -199 l 1
 188 518 l 1
 277 518 l 1
 231 299 l 2
 219 244 211 196 211 158 c 0
 211 95 233 60 298 60 c 0xd0
EndSplineSet
Validated: 1
EndChar

StartChar: paragraph
Encoding: 182 182 241
Width: 536
VWidth: 2048
Flags: W
HStem: -199 21G<156 249.247 343 436.247> 644 72<424 522 611 678>
DStem2: 156 -199 245 -199 0.207912 0.978148<18.5041 521.31> 343 -199 432 -199 0.207912 0.978148<18.5041 861.795>
LayerCount: 2
Fore
SplineSet
104 465 m 0
 104 546 159 716 383 716 c 2
 693 716 l 1
 678 644 l 1
 611 644 l 1
 432 -199 l 1
 343 -199 l 1
 522 644 l 1
 424 644 l 1
 245 -199 l 1
 156 -199 l 1
 264 311 l 1
 166 311 104 375 104 465 c 0
EndSplineSet
Validated: 1
EndChar

StartChar: periodcentered
Encoding: 183 183 242
AltUni2: 002219.ffffffff.0
Width: 277
VWidth: 2048
Flags: W
HStem: 302 101<176 256>
VStem: 154 124
LayerCount: 2
Fore
SplineSet
154 302 m 1
 176 403 l 1
 278 403 l 1
 256 302 l 1
 154 302 l 1
EndSplineSet
Validated: 1
EndChar

StartChar: cedilla
Encoding: 184 184 243
Width: 332
VWidth: 2048
Flags: W
HStem: -205 61<28 151.837>
VStem: 160 82<-132.973 -80.6764>
LayerCount: 2
Fore
SplineSet
242 -96 m 0
 242 -161 174 -205 79 -205 c 0
 53 -205 31 -204 10 -199 c 1
 28 -143 l 1
 54 -144 71 -144 82 -144 c 0
 145 -144 160 -119 160 -102 c 0
 160 -84 136 -75 90 -75 c 1
 132 11 l 1
 198 11 l 1
 172 -41 l 1
 218 -47 242 -64 242 -96 c 0
EndSplineSet
Validated: 1
EndChar

StartChar: onesuperior
Encoding: 185 185 244
Width: 332
VWidth: 2048
Flags: W
HStem: 573 62<191 236.467> 705 20G<314 387>
VStem: 178 209
DStem2: 240 357 309 357 0.207912 0.978148<14.3459 276.929>
LayerCount: 2
Fore
SplineSet
240 357 m 1
 297 628 l 1
 261 604 223 586 178 573 c 1
 191 635 l 1
 243 651 292 681 336 725 c 1
 387 725 l 1
 309 357 l 1
 240 357 l 1
EndSplineSet
Validated: 1
EndChar

StartChar: ordmasculine
Encoding: 186 186 245
Width: 364
VWidth: 2048
Flags: W
HStem: 362 61<219.051 334.841> 667 61<260.598 377.661>
VStem: 131 70<440.526 595.015> 395 70<495.387 650.119>
LayerCount: 2
Fore
SplineSet
131 492 m 0
 131 591 198 728 337 728 c 0
 422 728 465 678 465 599 c 0
 465 510 409 362 259 362 c 0
 177 362 131 413 131 492 c 0
272 423 m 0
 371 423 395 544 395 590 c 0
 395 640 371 667 324 667 c 0
 225 667 201 547 201 501 c 0
 201 451 226 423 272 423 c 0
EndSplineSet
Validated: 1
EndChar

StartChar: guillemotright
Encoding: 187 187 246
Width: 554
VWidth: 2048
Flags: W
LayerCount: 2
Fore
SplineSet
441 258 m 1
 361 480 l 1
 433 480 l 1
 542 258 l 1
 338 35 l 1
 266 35 l 1
 441 258 l 1
253 258 m 1
 169 480 l 1
 245 480 l 1
 351 258 l 1
 150 35 l 1
 74 35 l 1
 253 258 l 1
EndSplineSet
Validated: 1
EndChar

StartChar: onequarter
Encoding: 188 188 247
Width: 833
VWidth: 2048
Flags: W
HStem: 52 61<610 710 792 831> 573 62<190 235.679> 708 20G<314 387 798.482 892>
DStem2: 117 -28 193 -28 0.679408 0.733761<51.635 1030.31> 158.166 -28 227.166 -28 0.207912 0.978148<407.947 670.53> 536 121 610 113 0.734577 0.678525<48.9305 238.623> 693.237 -28 762.237 -28 0.207912 0.978148<27.6363 81.7371 158.453 274.923>
LayerCount: 2
Fore
SplineSet
117 -28 m 1
 817 728 l 1
 892 728 l 1
 193 -28 l 1
 117 -28 l 1
240 357 m 1
 297 628 l 1
 261 604 222 586 177 573 c 1
 190 635 l 1
 242 651 292 681 336 725 c 1
 387 725 l 1
 309 357 l 1
 240 357 l 1
696 -15 m 1
 710 52 l 1
 521 52 l 1
 536 121 l 1
 785 351 l 1
 843 351 l 1
 792 113 l 1
 844 113 l 1
 831 52 l 1
 779 52 l 1
 765 -15 l 1
 696 -15 l 1
723 113 m 1
 750 241 l 1
 610 113 l 1
 723 113 l 1
EndSplineSet
Validated: 1
EndChar

StartChar: onehalf
Encoding: 189 189 248
Width: 833
VWidth: 2048
Flags: W
HStem: -15 61<638 814> 293 61<673.107 788.502> 573 62<190 235.679> 708 20G<314 387 784.561 882>
VStem: 793 73<212.234 286.648>
DStem2: 106 -28 183 -28 0.678885 0.734245<52.2741 1028.27> 158.166 -28 227.166 -28 0.207912 0.978148<407.947 670.53>
LayerCount: 2
Fore
SplineSet
106 -28 m 1
 803 728 l 1
 882 728 l 1
 183 -28 l 1
 106 -28 l 1
240 357 m 1
 297 628 l 1
 261 604 222 586 177 573 c 1
 190 635 l 1
 242 651 292 681 336 725 c 1
 387 725 l 1
 309 357 l 1
 240 357 l 1
866 280 m 0
 866 174 741 120 638 46 c 1
 827 46 l 1
 814 -15 l 1
 509 -15 l 1
 530 83 777 174 791 241 c 0
 792 246 793 250 793 254 c 0
 793 280 772 293 733 293 c 0
 695 293 668 276 647 239 c 1
 575 245 l 1
 608 316 665 354 746 354 c 0
 829 354 866 329 866 280 c 0
EndSplineSet
Validated: 1
EndChar

StartChar: threequarters
Encoding: 190 190 249
Width: 833
VWidth: 2048
Flags: W
HStem: 52 61<610 710 792 831> 349 61<196.362 319.336> 525 50<268 340.82> 664 61<245.034 357.989>
VStem: 114 71<423.205 456> 345 68<435.754 518.188> 360 72<592.717 658.902>
DStem2: 117 -28 193 -28 0.678885 0.734245<51.5953 1029.63> 536 121 610 113 0.731843 0.681473<48.7046 238.391> 693.237 -28 762.237 -28 0.207912 0.978148<27.6363 81.7371 158.453 274.923>
LayerCount: 2
Fore
SplineSet
117 -28 m 1xf8
 816 728 l 1
 892 728 l 1
 193 -28 l 1
 117 -28 l 1xf8
413 485 m 0xfc
 413 412 337 349 241 349 c 0
 154 349 114 387 114 456 c 1
 185 463 l 1
 188 427 211 410 249 410 c 0
 335 410 345 469 345 487 c 0xfc
 345 515 321 525 274 525 c 1
 246 523 l 1
 268 575 l 1
 343 575 360 610 360 633 c 0
 360 655 339 664 305 664 c 0
 270 664 244 652 226 618 c 1
 159 630 l 1
 193 691 248 725 318 725 c 0
 396 725 432 699 432 654 c 0xfa
 432 614 412 574 345 554 c 1
 390 542 413 521 413 485 c 0xfc
696 -15 m 1
 710 52 l 1
 521 52 l 1
 536 121 l 1
 783 351 l 1
 843 351 l 1
 792 113 l 1
 844 113 l 1
 831 52 l 1
 779 52 l 1
 765 -15 l 1
 696 -15 l 1
723 113 m 1
 750 241 l 1
 610 113 l 1
 723 113 l 1
EndSplineSet
Validated: 1
EndChar

StartChar: questiondown
Encoding: 191 191 250
Width: 556
VWidth: 2048
Flags: W
HStem: -210 72<168.94 324.39> 418 100<334 413>
VStem: 36 92<-98.0687 24.6841>
DStem2: 179.514 -210 279.514 -210 0.207912 0.978148<458.474 565.612 662.821 744.211>
LayerCount: 2
Fore
SplineSet
306 169 m 0
 239 110 128 55 128 -37 c 0
 128 -99 177 -138 243 -138 c 0
 322 -138 380 -91 416 8 c 1
 504 -3 l 1
 458 -141 366 -210 228 -210 c 0
 117 -210 36 -158 36 -59 c 0
 36 75 170 131 241 210 c 0
 269 241 289 282 303 342 c 1
 392 342 l 1
 383 301 l 2
 370 242 329 189 306 169 c 0
434 518 m 1
 413 418 l 1
 313 418 l 1
 334 518 l 1
 434 518 l 1
EndSplineSet
Validated: 1
EndChar

StartChar: AE
Encoding: 198 198 257
Width: 999
VWidth: 2048
Flags: W
HStem: 0 84<592 946> 207 83<302 523> 326 86<661 976> 632 84<541 613 708 1067>
DStem2: 0 0 103 0 0.570224 0.821489<58.7331 309.753 410.44 827.672> 478 0 574.145 0 0.207912 0.978148<105.866 211.833 296.553 352.974 441.045 646.257>
LayerCount: 2
Fore
SplineSet
0 0 m 1
 497 716 l 1
 1084 716 l 1
 1067 632 l 1
 708 632 l 1
 661 412 l 1
 995 412 l 1
 976 326 l 1
 642 326 l 1
 592 84 l 1
 964 84 l 1
 946 0 l 1
 478 0 l 1
 523 207 l 1
 245 207 l 1
 103 0 l 1
 0 0 l 1
302 290 m 1
 540 290 l 1
 613 632 l 1
 541 632 l 1
 302 290 l 1
EndSplineSet
Validated: 1
EndChar

StartChar: Ccedilla
Encoding: 199 199 258
Width: 721
VWidth: 2048
Flags: W
HStem: -205 61<246 369.837> -11 83<406 499.856> 646 84<412.551 614.53>
VStem: 116 97<157.531 402.394> 378 82<-132.973 -80.6764> 684 98<519.429 569.889>
LayerCount: 2
Back
SplineSet
460 -96 m 0
 460 -161 392 -205 297 -205 c 0
 271 -205 249 -204 228 -199 c 1
 246 -143 l 1
 272 -144 289 -144 300 -144 c 0
 363 -144 378 -119 378 -102 c 0
 378 -84 354 -75 308 -75 c 1
 350 11 l 1
 416 11 l 1
 390 -41 l 1
 436 -47 460 -64 460 -96 c 0
116 247 m 0
 116 456 241 730 543 730 c 0
 691 730 771 660 782 521 c 1
 684 499 l 1
 673 599 618 646 523 646 c 0
 271 646 213 378 213 262 c 0
 213 146 268 72 394 72 c 0
 507 72 590 130 642 251 c 1
 732 227 l 1
 656 67 540 -12 383 -12 c 0
 206 -12 116 85 116 247 c 0
EndSplineSet
Fore
SplineSet
116 246 m 0
 116 462 245 730 543 730 c 0
 691 730 771 660 782 521 c 1
 684 499 l 1
 673 599 618 646 523 646 c 0
 271 646 213 378 213 262 c 0
 213 146 268 72 394 72 c 0
 507 72 590 130 642 251 c 1
 732 227 l 1
 659 74 552 -4 406 -11 c 1
 390 -41 l 1
 436 -47 460 -64 460 -96 c 0
 460 -161 392 -205 297 -205 c 0
 271 -205 249 -204 228 -199 c 1
 246 -143 l 1
 272 -144 289 -144 300 -144 c 0
 363 -144 378 -119 378 -102 c 0
 378 -84 354 -75 308 -75 c 1
 340 -10 l 1
 192 4 116 97 116 246 c 0
EndSplineSet
Validated: 1
EndChar

StartChar: Eth
Encoding: 208 208 267
Width: 721
VWidth: 2048
Flags: W
HStem: 0 84<190 469.598> 325 66<81 146 255 438> 632 84<306 584.447>
VStem: 664 97<329.921 557.344>
DStem2: 77 0 172.145 0 0.207912 0.978148<105.658 332.244 419.464 665.801>
CounterMasks: 1 e0
LayerCount: 2
Fore
SplineSet
77 0 m 1
 146 325 l 1
 67 325 l 1
 81 391 l 1
 160 391 l 1
 229 716 l 1
 486 716 l 2
 565 716 761 711 761 480 c 0
 761 446 756 407 747 362 c 0
 696 121 558 0 336 0 c 2
 77 0 l 1
652 363 m 0
 660 401 664 434 664 462 c 0
 664 617 552 632 456 632 c 2
 306 632 l 1
 255 391 l 1
 452 391 l 1
 438 325 l 1
 241 325 l 1
 190 84 l 1
 343 84 l 2
 466 84 602 126 652 363 c 0
EndSplineSet
Validated: 1
EndChar

StartChar: multiply
Encoding: 215 215 274
Width: 583
VWidth: 2048
Flags: W
DStem2: 120 199 168 141 0.77218 0.635404<0.211227 240.281 336.606 575.617> 259 567 188 507 0.61839 -0.785871<3.24655 194.445 272.672 465.725>
LayerCount: 2
Fore
SplineSet
120 199 m 1
 308 354 l 1
 188 507 l 1
 259 567 l 1
 379 414 l 1
 566 566 l 1
 612 507 l 1
 426 354 l 1
 547 201 l 1
 476 141 l 1
 353 294 l 1
 168 141 l 1
 120 199 l 1
EndSplineSet
Validated: 1
EndChar

StartChar: Oslash
Encoding: 216 216 275
Width: 777
VWidth: 2048
Flags: W
HStem: -12 84<303.734 508.778> 644 84<420.322 623.947>
VStem: 113 96<177.928 406.069> 720 97<314.733 533.693>
DStem2: 43 12 83 -29 0.742014 0.670384<2.19482 141.61 245.732 842.566 948.474 1088.93>
LayerCount: 2
Fore
SplineSet
113 275 m 0
 113 461 258 728 546 728 c 0
 627 728 693 702 748 650 c 1
 851 742 l 1
 889 702 l 1
 784 605 l 1
 806 558 817 507 817 452 c 0
 817 248 669 -12 388 -12 c 0
 311 -12 243 12 183 63 c 1
 83 -29 l 1
 43 12 l 1
 150 109 l 1
 126 163 113 219 113 275 c 0
528 644 m 0
 291 644 209 408 209 283 c 0
 209 245 215 210 226 176 c 1
 676 584 l 1
 634 627 585 644 528 644 c 0
403 72 m 0
 606 72 720 270 720 434 c 0
 720 469 715 503 706 535 c 1
 255 127 l 1
 296 89 345 72 403 72 c 0
EndSplineSet
Validated: 1
EndChar

StartChar: Thorn
Encoding: 222 222 281
Width: 666
VWidth: 2048
Flags: W
HStem: 0 21G<77 176.247> 146 84<221 512.26> 486 84<293 570.797> 696 20G<224.754 324>
VStem: 610 98<315.13 449.894>
DStem2: 77 0 172 0 0.207912 0.978148<19.7516 169.006 254.913 516.546 602.453 731.956>
LayerCount: 2
Fore
SplineSet
469 570 m 2
 609 570 708 539 708 422 c 0
 708 341 670 146 387 146 c 2
 203 146 l 1
 172 0 l 1
 77 0 l 1
 229 716 l 1
 324 716 l 1
 293 570 l 1
 469 570 l 2
406 230 m 2
 580 230 610 337 610 395 c 0
 610 451 570 486 459 486 c 2
 275 486 l 1
 221 230 l 1
 406 230 l 2
EndSplineSet
Validated: 1
EndChar

StartChar: germandbls
Encoding: 223 223 282
Width: 610
VWidth: 2048
Flags: W
HStem: -12 72<361.897 478.003> 0 21G<75 168.256> 656 72<344.283 483.419>
VStem: 378 93<340.445 420.248> 502 92<542.003 637.12> 522 92<105.341 203.621>
DStem2: 72.4493 -12 161.449 -12 0.207912 0.978148<30.7722 644.513>
LayerCount: 2
Fore
SplineSet
378 357 m 0xb4
 378 434 502 524 502 594 c 0
 502 632 469 656 421 656 c 0
 325 656 290 591 267 484 c 2
 164 0 l 1
 75 0 l 1
 179 487 l 2
 213 648 299 728 439 728 c 0
 527 728 594 684 594 614 c 0x78
 594 522 471 434 471 380 c 0
 471 318 614 286 614 180 c 0
 614 96 532 -12 399 -12 c 0
 317 -12 268 28 247 106 c 1
 330 141 l 1
 345 87 373 60 413 60 c 0
 481 60 522 120 522 158 c 0
 522 229 378 268 378 357 c 0xb4
EndSplineSet
Validated: 1
EndChar

StartChar: ae
Encoding: 230 230 289
Width: 889
VWidth: 2048
Flags: W
HStem: -12 72<165.163 318.297 555.149 716.54> 238 72<540 826.631> 458 72<272.21 448.862 631.812 788.582>
VStem: 57 91<76.761 174.828> 827 88<310.474 421.458>
LayerCount: 2
Fore
SplineSet
207 -12 m 0
 115 -12 57 34 57 105 c 0
 57 224 173 284 326 303 c 0
 375 309 418 317 455 326 c 1
 460 346 l 2
 464 363 465 377 465 390 c 0
 465 440 435 458 368 458 c 0
 286 458 233 425 209 357 c 1
 126 368 l 1
 170 477 257 530 386 530 c 0
 478 530 533 507 550 460 c 1
 602 507 662 530 731 530 c 0
 864 530 915 441 915 342 c 0
 915 306 908 280 899 238 c 1
 525 238 l 1
 520 214 517 192 517 173 c 0
 517 98 556 60 635 60 c 0
 706 60 757 97 792 170 c 1
 882 159 l 1
 821 44 731 -12 615 -12 c 0
 535 -12 478 20 443 86 c 1
 364 20 287 -12 207 -12 c 0
540 310 m 1
 825 310 l 1
 826 322 827 333 827 344 c 0
 827 419 790 458 715 458 c 0
 634 458 559 401 540 310 c 1
443 261 m 1
 297 228 148 223 148 120 c 0
 148 80 181 60 240 60 c 0
 314 60 381 96 408 146 c 0
 419 167 431 204 443 261 c 1
EndSplineSet
Validated: 1
EndChar

StartChar: ccedilla
Encoding: 231 231 290
Width: 499
VWidth: 2048
Flags: W
HStem: -205 61<134 257.837> 458 72<289.125 441.273>
VStem: 84 89<100.571 303.897> 266 82<-132.973 -80.6764> 472 89<366 426.503>
LayerCount: 2
Back
SplineSet
348 -96 m 0
 348 -161 280 -205 185 -205 c 0
 159 -205 137 -204 116 -199 c 1
 134 -143 l 1
 160 -144 177 -144 188 -144 c 0
 251 -144 266 -119 266 -102 c 0
 266 -84 242 -75 196 -75 c 1
 238 11 l 1
 304 11 l 1
 278 -41 l 1
 324 -47 348 -64 348 -96 c 0
84 176 m 0
 84 281 145 530 389 530 c 0
 507 530 561 477 561 366 c 1
 472 353 l 1xf0
 472 423 439 458 376 458 c 0
 206 458 173 255 173 182 c 0
 173 101 212 60 287 60 c 0
 362 60 414 104 445 190 c 1
 528 179 l 1
 486 66 394 -12 273 -12 c 0
 147 -12 84 61 84 176 c 0
EndSplineSet
Fore
SplineSet
84 177 m 0
 84 291 151 530 389 530 c 0
 507 530 561 477 561 366 c 1
 472 353 l 1
 472 423 439 458 376 458 c 0
 276 458 210 392 182 259 c 0
 176 230 173 204 173 182 c 0
 173 101 212 61 287 61 c 0
 362 61 414 104 445 190 c 1
 528 179 l 1
 488 72 406 -3 294 -11 c 1
 278 -41 l 1
 324 -47 348 -64 348 -96 c 0
 348 -161 280 -205 185 -205 c 0
 159 -205 137 -204 116 -199 c 1
 134 -143 l 1
 160 -144 177 -144 188 -144 c 0
 251 -144 266 -119 266 -102 c 0
 266 -84 242 -75 196 -75 c 1
 229 -9 l 1
 132 7 84 76 84 177 c 0
EndSplineSet
Validated: 1
EndChar

StartChar: eth
Encoding: 240 240 299
Width: 554
VWidth: 2048
Flags: W
HStem: -12 72<217.165 364.912> 458 72<293.565 441.248> 696 20G<302 419 527.061 579.306>
VStem: 80 90<108.718 298.126> 490 92<219.758 405.143>
DStem2: 259 582 269 532 0.920487 0.390773<0 138.004 232.197 335.135>
LayerCount: 2
Fore
SplineSet
80 175 m 0
 80 314 174 530 369 530 c 0
 403 530 436 521 460 502 c 1
 448 541 436 564 416 595 c 1
 269 532 l 1
 259 582 l 1
 386 636 l 1
 362 665 334 691 302 716 c 1
 408 716 l 1
 430 697 447 681 459 667 c 1
 574 716 l 1
 587 667 l 1
 493 625 l 1
 552 536 582 445 582 352 c 0
 582 157 458 -12 273 -12 c 0
 146 -12 80 58 80 175 c 0
370 458 m 0
 230 458 170 286 170 188 c 0
 170 86 237 60 287 60 c 0
 413 60 490 203 490 319 c 0
 490 399 450 458 370 458 c 0
EndSplineSet
Validated: 1
EndChar

StartChar: divide
Encoding: 247 247 306
Width: 548
VWidth: 2048
Flags: W
HStem: 156 100<278 356> 313 81<122 577> 451 99<341 419>
DStem2: 257 156 356 156 0.207912 0.978148<20.5833 102.181 322.235 402.855>
LayerCount: 2
Fore
SplineSet
320 451 m 1
 341 550 l 1
 440 550 l 1
 419 451 l 1
 320 451 l 1
577 313 m 1
 105 313 l 1
 122 394 l 1
 594 394 l 1
 577 313 l 1
257 156 m 1
 278 256 l 1
 377 256 l 1
 356 156 l 1
 257 156 l 1
EndSplineSet
Validated: 1
EndChar

StartChar: oslash
Encoding: 248 248 307
Width: 610
VWidth: 2048
Flags: W
HStem: -12 72<252.114 401.243> 458 72<325.454 475.12>
VStem: 109 92<136.893 300.325> 525 91<214.188 375.873>
DStem2: 73 -3 112 -38 0.699994 0.714149<2.30458 98.0962 195.166 582.874 682.664 775.721>
LayerCount: 2
Fore
SplineSet
109 177 m 0
 109 309 196 530 420 530 c 0
 469 530 513 517 555 487 c 1
 617 550 l 1
 656 517 l 1
 590 449 l 1
 607 418 616 382 616 339 c 0
 616 207 534 -12 305 -12 c 0
 253 -12 210 2 176 28 c 1
 112 -38 l 1
 73 -3 l 1
 140 64 l 1
 120 94 109 132 109 177 c 0
407 458 m 0
 268 458 201 300 201 198 c 0
 201 175 205 155 210 136 c 1
 492 423 l 1
 467 446 437 458 407 458 c 0
318 60 m 0
 461 60 525 216 525 323 c 0
 525 343 523 361 518 377 c 1
 239 92 l 1
 261 71 287 60 318 60 c 0
EndSplineSet
Validated: 1
EndChar

StartChar: thorn
Encoding: 254 254 313
Width: 556
VWidth: 2048
Flags: W
HStem: -199 21G<24 117.19> -12 72<232.023 373.687> 458 72<317.015 451.652> 696 20G<213.76 307>
VStem: 492 90<220.205 415.005>
DStem2: 24 -199 113 -199 0.207912 0.978148<18.5041 276.995 696.332 935.34>
LayerCount: 2
Fore
SplineSet
582 343 m 0
 582 184 471 -12 287 -12 c 0
 236 -12 195 11 166 54 c 1
 113 -199 l 1
 24 -199 l 1
 218 716 l 1
 307 716 l 1
 254 464 l 1
 302 509 354 530 409 530 c 0
 527 530 582 451 582 343 c 0
298 60 m 0
 436 60 492 235 492 331 c 0
 492 407 458 458 385 458 c 0
 261 458 200 285 200 176 c 0
 200 107 227 60 298 60 c 0
EndSplineSet
Validated: 1
EndChar

StartChar: dotlessi
Encoding: 305 305 315
Width: 222
VWidth: 2048
Flags: W
HStem: 0 21G<66 159.247> 498 20G<171.753 265>
VStem: 66 199
DStem2: 66 0 155 0 0.207912 0.978148<18.5041 529.551>
LayerCount: 2
Fore
SplineSet
66 0 m 1
 176 518 l 1
 265 518 l 1
 155 0 l 1
 66 0 l 1
EndSplineSet
Validated: 1
EndChar

StartChar: OE
Encoding: 338 338 316
Width: 999
VWidth: 2048
Flags: W
HStem: -12 84<287.07 454.276> 0 84<654 969> 329 84<724 999> 632 84<770 1087> 644 84<400.043 569.369>
VStem: 125 96<141.992 387.276>
LayerCount: 2
Fore
SplineSet
125 231 m 0xa4
 125 374 202 728 508 728 c 0xac
 593 728 650 691 679 619 c 1
 699 716 l 1
 1105 716 l 1
 1087 632 l 1
 770 632 l 1
 724 413 l 1
 1017 413 l 1
 999 329 l 1
 706 329 l 1
 654 84 l 1
 987 84 l 1
 969 0 l 1
 547 0 l 1x74
 569 103 l 1
 510 26 435 -12 350 -12 c 0
 195 -12 125 83 125 231 c 0xa4
366 72 m 0
 553 72 635 322 635 464 c 0
 635 558 601 644 488 644 c 0
 266 644 221 333 221 247 c 0
 221 142 265 72 366 72 c 0
EndSplineSet
Validated: 1
EndChar

StartChar: oe
Encoding: 339 339 317
Width: 944
VWidth: 2048
Flags: W
HStem: -12 72<221.674 372.736 617.615 771.559> 236 72<592 882.935> 458 72<302.676 450.669 689.87 840.918>
VStem: 85 92<105.794 297.737> 884 85<308.978 413.624>
LayerCount: 2
Fore
SplineSet
85 176 m 0
 85 279 149 530 398 530 c 0
 484 530 541 498 570 431 c 1
 630 498 700 530 781 530 c 0
 909 530 969 456 969 336 c 0
 969 305 965 272 957 236 c 1
 574 236 l 1
 570 219 569 203 569 188 c 0
 569 113 612 60 692 60 c 0
 759 60 812 97 848 169 c 1
 933 156 l 1
 880 44 793 -12 674 -12 c 0
 587 -12 527 20 496 86 c 1
 433 20 362 -12 282 -12 c 0
 154 -12 85 59 85 176 c 0
295 60 m 0
 418 60 497 203 497 323 c 0
 497 402 458 458 379 458 c 0
 248 458 177 307 177 192 c 0
 177 113 214 60 295 60 c 0
879 308 m 1
 882 321 884 334 884 346 c 0
 884 417 834 458 770 458 c 0
 687 458 610 392 592 308 c 1
 879 308 l 1
EndSplineSet
Validated: 1
EndChar

StartChar: florin
Encoding: 402 402 321
Width: 554
VWidth: 2048
Flags: W
HStem: -210 77<8.09028 133.47> 451 67<287 357 475 547> 647 83<525.555 653.833>
DStem2: 164 -58 242 -83 0.361756 0.932273<-81.0348 544.346 649.495 789.639>
LayerCount: 2
Fore
SplineSet
-18 -198 m 1
 14 -123 l 1
 49 -129 74 -133 86 -133 c 0
 120 -133 146 -109 164 -58 c 1
 357 451 l 1
 259 451 l 1
 287 518 l 1
 385 518 l 1
 411 584 l 1
 441 666 483 730 579 730 c 0
 607 730 639 723 681 710 c 1
 647 636 l 1
 618 644 593 647 576 647 c 0
 522 647 510 605 495 569 c 2
 475 518 l 1
 575 518 l 1
 547 451 l 1
 448 451 l 1
 242 -83 l 2
 208 -169 158 -210 87 -210 c 0
 54 -210 18 -205 -18 -198 c 1
EndSplineSet
Validated: 1
EndChar

StartChar: circumflex
Encoding: 710 710 322
Width: 332
VWidth: 2048
Flags: W
HStem: 582 138<252 271>
VStem: 136 309
LayerCount: 2
Fore
SplineSet
310 667 m 1
 238 582 l 1
 136 582 l 1
 271 720 l 1
 365 720 l 1
 445 582 l 1
 346 582 l 1
 310 667 l 1
EndSplineSet
Validated: 1
EndChar

StartChar: caron
Encoding: 711 711 323
Width: 332
VWidth: 2048
Flags: W
HStem: 582 138<250 274>
VStem: 173 308
LayerCount: 2
Fore
SplineSet
310 638 m 1
 382 720 l 1
 481 720 l 1
 343 582 l 1
 250 582 l 1
 173 720 l 1
 274 720 l 1
 310 638 l 1
EndSplineSet
Validated: 1
EndChar

StartChar: ring
Encoding: 730 730 324
Width: 332
VWidth: 2048
Flags: W
HStem: 564 35<257.077 337.423> 705 35<273.577 353.923>
VStem: 215 36<605.105 684.077> 360 36<619.923 698.895>
LayerCount: 2
Fore
SplineSet
396 673 m 0
 396 615 348 564 287 564 c 0
 243 564 215 591 215 631 c 0
 215 689 263 740 324 740 c 0
 368 740 396 713 396 673 c 0
317 705 m 0
 276 705 251 671 251 638 c 0
 251 614 267 599 294 599 c 0
 335 599 360 633 360 666 c 0
 360 690 344 705 317 705 c 0
EndSplineSet
Validated: 1
EndChar

StartChar: tilde
Encoding: 732 732 325
Width: 332
VWidth: 2048
Flags: W
HStem: 599 67<315.706 407.068> 641 67<202.93 294.001>
VStem: 130 64<596 633.815> 417 63<673.784 708>
LayerCount: 2
Fore
SplineSet
362 599 m 0xb0
 310 599 269 641 242 641 c 0
 217 641 201 627 194 596 c 1
 130 596 l 1
 146 670 187 708 253 708 c 0x70
 297 708 339 666 373 666 c 0xb0
 393 666 408 681 417 708 c 1
 480 708 l 1x70
 464 635 424 599 362 599 c 0xb0
EndSplineSet
Validated: 1
EndChar

StartChar: quotesinglbase
Encoding: 8218 8218 326
Width: 222
VWidth: 2048
Flags: W
HStem: -132 233
VStem: 31 145
LayerCount: 2
Fore
SplineSet
61 0 m 1
 82 101 l 1
 176 101 l 1
 159 21 l 2
 142 -58 104 -109 46 -132 c 1
 31 -98 l 1
 71 -83 95 -51 106 0 c 1
 61 0 l 1
EndSplineSet
Validated: 1
EndChar

StartChar: quotedblbase
Encoding: 8222 8222 327
Width: 332
VWidth: 2048
Flags: W
HStem: 0 101<64 89 214 239>
VStem: 13 296
LayerCount: 2
Fore
SplineSet
43 0 m 1
 64 101 l 1
 157 101 l 1
 140 21 l 2
 123 -58 87 -109 29 -132 c 1
 13 -98 l 1
 53 -83 78 -51 89 0 c 1
 43 0 l 1
193 0 m 1
 214 101 l 1
 309 101 l 1
 292 21 l 2
 275 -57 238 -109 179 -132 c 1
 166 -98 l 1
 204 -83 228 -51 239 0 c 1
 193 0 l 1
EndSplineSet
Validated: 1
EndChar

StartChar: dagger
Encoding: 8224 8224 328
Width: 554
VWidth: 2048
Flags: W
HStem: 429 72<141 321 425 606>
DStem2: 194 -169 283 -169 0.207912 0.978148<18.5041 611.337 703.386 888.474>
LayerCount: 2
Fore
SplineSet
194 -169 m 1
 321 429 l 1
 126 429 l 1
 141 501 l 1
 336 501 l 1
 379 700 l 1
 468 700 l 1
 425 501 l 1
 621 501 l 1
 606 429 l 1
 410 429 l 1
 283 -169 l 1
 194 -169 l 1
EndSplineSet
Validated: 1
EndChar

StartChar: daggerdbl
Encoding: 8225 8225 329
Width: 554
VWidth: 2048
Flags: W
HStem: 18 72<54 235 339 521> 451 72<146 327 431 613>
DStem2: 195 -169 284 -169 0.207912 0.978148<18.5041 191.23 283.28 633.896 725.945 895.529>
LayerCount: 2
Fore
SplineSet
195 -169 m 1
 235 18 l 1
 39 18 l 1
 54 90 l 1
 250 90 l 1
 327 451 l 1
 131 451 l 1
 146 523 l 1
 342 523 l 1
 381 707 l 1
 470 707 l 1
 431 523 l 1
 628 523 l 1
 613 451 l 1
 416 451 l 1
 339 90 l 1
 536 90 l 1
 521 18 l 1
 324 18 l 1
 284 -169 l 1
 195 -169 l 1
EndSplineSet
Validated: 1
EndChar

StartChar: perthousand
Encoding: 8240 8240 330
Width: 999
VWidth: 2048
Flags: W
HStem: -26 61<480.988 568.32 811.038 898.75> 288 61<527.773 612.544 855.573 942.582> 346 61<206.59 293.036> 661 61<254.083 337.785>
VStem: 123 74<415.405 582.973> 347 75<489.44 653.872> 398 74<43.0638 210.7> 622 75<117.033 280.424> 727 74<43.6866 211.68> 952 75<115.484 280.444>
DStem2: 150 -26 215 -26 0.515832 0.85669<33.5291 880.132>
LayerCount: 2
Fore
SplineSet
150 -26 m 1x99c0
 604 728 l 1
 668 728 l 1
 215 -26 l 1
 150 -26 l 1x99c0
422 609 m 0xbdc0
 422 551 393 346 233 346 c 0
 159 346 123 384 123 460 c 0
 123 522 150 722 311 722 c 0
 384 722 422 684 422 609 c 0xbdc0
300 661 m 0
 217 661 197 510 197 472 c 0
 197 428 214 407 249 407 c 0
 329 407 347 564 347 598 c 0
 347 640 332 661 300 661 c 0
586 349 m 0xdbc0
 660 349 697 311 697 237 c 0
 697 188 672 -26 507 -26 c 0
 434 -26 398 12 398 89 c 0
 398 139 419 349 586 349 c 0xdbc0
573 288 m 0
 492 288 472 136 472 100 c 0
 472 57 488 35 521 35 c 0
 601 35 622 185 622 223 c 0
 622 267 605 288 573 288 c 0
916 349 m 0
 990 349 1027 311 1027 237 c 0
 1027 188 1002 -26 837 -26 c 0
 764 -26 727 12 727 90 c 0
 727 153 755 349 916 349 c 0
904 288 m 0
 821 288 801 139 801 102 c 0
 801 57 818 35 852 35 c 0
 932 35 952 187 952 224 c 0
 952 267 935 288 904 288 c 0
EndSplineSet
Validated: 1
EndChar

StartChar: guilsinglleft
Encoding: 8249 8249 331
Width: 332
VWidth: 2048
Flags: W
VStem: 99 274
LayerCount: 2
Fore
SplineSet
198 258 m 1
 278 35 l 1
 206 35 l 1
 99 258 l 1
 301 480 l 1
 373 480 l 1
 198 258 l 1
EndSplineSet
Validated: 1
EndChar

StartChar: guilsinglright
Encoding: 8250 8250 332
Width: 332
VWidth: 2048
Flags: W
VStem: 70 270
LayerCount: 2
Fore
SplineSet
247 259 m 1
 165 480 l 1
 237 480 l 1
 340 262 l 1
 142 35 l 1
 70 35 l 1
 247 259 l 1
EndSplineSet
Validated: 1
EndChar

StartChar: trademark
Encoding: 8482 8482 333
Width: 999
VWidth: 2048
Flags: W
HStem: 658 58<262 379 445 575>
DStem2: 307 319 373 319 0.207912 0.978148<13.7222 346.562> 543 319 609 319 0.207912 0.978148<13.7222 360.284> 728 716 681 658 0.0997943 -0.995008<53.0201 318.811> 762 399 776 319 0.46211 0.886823<0 309.894> 879 319 945 319 0.207912 0.978148<13.7222 339.299>
LayerCount: 2
Fore
SplineSet
307 319 m 1
 379 658 l 1
 250 658 l 1
 262 716 l 1
 587 716 l 1
 575 658 l 1
 445 658 l 1
 373 319 l 1
 307 319 l 1
543 319 m 1
 627 716 l 1
 728 716 l 1
 762 399 l 1
 928 716 l 1
 1029 716 l 1
 945 319 l 1
 879 319 l 1
 949 651 l 1
 776 319 l 1
 715 319 l 1
 681 658 l 1
 609 319 l 1
 543 319 l 1
EndSplineSet
Validated: 1
EndChar

StartChar: uniF71D
Encoding: 63261 63261 335
Width: 340
VWidth: 2048
Flags: W
HStem: -138 135<18 58 230 293> -87 84<69 230>
LayerCount: 2
Fore
SplineSet
-11 -138 m 1x80
 18 -3 l 1x80
 322 -3 l 1x40
 293 -138 l 1
 219 -138 l 1x80
 230 -87 l 1
 69 -87 l 1x40
 58 -138 l 1
 -11 -138 l 1x80
EndSplineSet
Validated: 1
EndChar

